<svg xmlns="http://www.w3.org/2000/svg" viewBox="0 0 70 70"><g id="Layer_2" data-name="Layer 2"><g id="Layer_1-2" data-name="Layer 1"><circle cx="35" cy="35" r="7.35"/><path d="M35,0A35,35,0,1,0,70,35,35,35,0,0,0,35,0ZM56.62,43.9a13.22,13.22,0,0,1-3.52,9c-2.45,2.43-5.75,3.33-9.11,3.49H26c-3.36-.16-6.66-1.06-9.11-3.49a13.22,13.22,0,0,1-3.52-9V26.1a13.22,13.22,0,0,1,3.52-9c2.45-2.43,5.75-3.33,9.11-3.49H44c3.36.16,6.66,1.06,9.11,3.49a13.22,13.22,0,0,1,3.52,9Z"/><path d="M43.76,17.66c-4.38-.12-13.14-.12-17.52,0-2.28.06-4.87.63-6.49,2.36a9.3,9.3,0,0,0-2.39,6.42c-.11,4.28,0,17.12,0,17.12A9.34,9.34,0,0,0,19.75,50c1.62,1.73,4.21,2.3,6.49,2.36,4.38.12,13.14.12,17.52,0,2.28-.06,4.87-.63,6.49-2.36a9.3,9.3,0,0,0,2.39-6.42V26.44A9.3,9.3,0,0,0,50.25,20c-1.62-1.73-4.21-2.3-6.49-2.36ZM35,46.39A11.39,11.39,0,1,1,46.39,35h0A11.39,11.39,0,0,1,35,46.39ZM46.44,26a2.28,2.28,0,1,1,2.28-2.28A2.28,2.28,0,0,1,46.44,26Z"/></g></g></svg>