<svg xmlns="http://www.w3.org/2000/svg" viewBox="0 0 70 70"><g id="Layer_2" data-name="Layer 2"><g id="Layer_1-2" data-name="Layer 1"><path d="M59.74,10.25A35,35,0,1,0,70,35,35,35,0,0,0,59.74,10.25ZM53,48.75l-1.77,1.76A9.35,9.35,0,0,1,42.42,53a31.09,31.09,0,0,1-9-4,41.16,41.16,0,0,1-7.1-5.73A41.52,41.52,0,0,1,21,36.82a32.46,32.46,0,0,1-4-8.07,9.33,9.33,0,0,1,2.33-9.53l2.08-2.08a1.48,1.48,0,0,1,2.1,0h0l6.56,6.56a1.47,1.47,0,0,1,0,2.09h0l-3.85,3.85a3.12,3.12,0,0,0-.33,4.08,44.53,44.53,0,0,0,4.61,5.38,45.33,45.33,0,0,0,6.06,5.1,3.17,3.17,0,0,0,4-.35l3.72-3.78a1.49,1.49,0,0,1,2.1,0h0L53,46.66a1.48,1.48,0,0,1,0,2.09h0Z"/></g></g></svg>