<svg xmlns="http://www.w3.org/2000/svg" viewBox="0 0 61.75 61.5"><defs><style>.cls-1{fill:#8043ce;}.cls-2{fill:#fff;}</style></defs><g id="Layer_2" data-name="Layer 2"><g id="Layer_1-2" data-name="Layer 1"><circle class="cls-1" cx="30.86" cy="30.62" r="24.96"/><path class="cls-1" d="M30.86,61.5h-.62a.94.94,0,0,1,0-1.87,29,29,0,0,0,9.57-1.41A.93.93,0,1,1,40.43,60,30.65,30.65,0,0,1,30.86,61.5ZM20.45,59.64a.86.86,0,0,1-.32,0,30.89,30.89,0,0,1-3.93-1.78.94.94,0,0,1,.89-1.65,26.45,26.45,0,0,0,3.68,1.67.93.93,0,0,1-.32,1.81Zm31.08-6.41a.92.92,0,0,1-.68-.29.93.93,0,0,1,0-1.32,28.54,28.54,0,0,0,2.72-3,.94.94,0,0,1,1.47,1.17A31.25,31.25,0,0,1,52.17,53,.92.92,0,0,1,51.53,53.23Zm-44.88-4a.93.93,0,0,1-.75-.38,30.65,30.65,0,0,1-4.6-9.22.93.93,0,0,1,1.79-.54,28.7,28.7,0,0,0,4.32,8.66.94.94,0,0,1-.76,1.48ZM59.16,41.4a1.18,1.18,0,0,1-.31,0,.94.94,0,0,1-.57-1.19,29.08,29.08,0,0,0,1.6-9.54V30.5a.94.94,0,0,1,1.87,0v.11A30.66,30.66,0,0,1,60,40.77.92.92,0,0,1,59.16,41.4ZM.93,30.35h0a.93.93,0,0,1-.9-1A30.45,30.45,0,0,1,.47,25.1a.92.92,0,0,1,1.08-.75.93.93,0,0,1,.76,1.08,28.41,28.41,0,0,0-.44,4A.94.94,0,0,1,.93,30.35ZM57.84,18.51A.92.92,0,0,1,57,18a29.82,29.82,0,0,0-2-3.51.93.93,0,0,1,1.55-1,31.49,31.49,0,0,1,2.15,3.74.94.94,0,0,1-.44,1.25A1,1,0,0,1,57.84,18.51ZM6.59,14a.94.94,0,0,1-.76-1.49,31.44,31.44,0,0,1,7.34-7.22.94.94,0,0,1,1.3.23.92.92,0,0,1-.23,1.3,29.22,29.22,0,0,0-6.89,6.79A1,1,0,0,1,6.59,14ZM48.9,7.63a.88.88,0,0,1-.56-.19A29.3,29.3,0,0,0,39.75,3a.93.93,0,0,1,.57-1.78A30.75,30.75,0,0,1,49.46,6a.94.94,0,0,1,.18,1.31A.93.93,0,0,1,48.9,7.63ZM22.73,2.71A.93.93,0,0,1,22.48.88,30.08,30.08,0,0,1,26.7,0,.93.93,0,1,1,27,1.86a28.25,28.25,0,0,0-4,.82A1.07,1.07,0,0,1,22.73,2.71Z"/><path class="cls-2" d="M23.41,37.84a5.22,5.22,0,0,1-4.53-2.06,9,9,0,0,1-1.51-5.49,9.1,9.1,0,0,1,1.51-5.5,5.24,5.24,0,0,1,4.53-2.05,5.24,5.24,0,0,1,4.53,2.05,9.1,9.1,0,0,1,1.51,5.5,9,9,0,0,1-1.51,5.49A5.22,5.22,0,0,1,23.41,37.84ZM21.26,26.77a7.72,7.72,0,0,0-.69,3.53,7.72,7.72,0,0,0,.69,3.53,2.39,2.39,0,0,0,4.3,0,7.72,7.72,0,0,0,.69-3.53,7.72,7.72,0,0,0-.69-3.53,2.39,2.39,0,0,0-4.3,0Z"/><path class="cls-2" d="M41.19,23.07v2.82H35.42v2.45a5.16,5.16,0,0,1,1.48-.19,5.49,5.49,0,0,1,3.64,1.27,4.25,4.25,0,0,1,1.53,3.44,4.59,4.59,0,0,1-1.58,3.57,5.63,5.63,0,0,1-3.9,1.41,6.4,6.4,0,0,1-5-2.19l1.71-2.38.5.46a7.52,7.52,0,0,0,1.15.72,3.52,3.52,0,0,0,1.67.45,2.34,2.34,0,0,0,1.49-.51,1.75,1.75,0,0,0,.65-1.48,1.8,1.8,0,0,0-.7-1.51,2.89,2.89,0,0,0-1.81-.54,5.54,5.54,0,0,0-2.57.8l-1.36-1.47V23.07Z"/></g></g></svg>