<svg xmlns="http://www.w3.org/2000/svg" viewBox="0 0 715.84 268.04"><g id="Layer_2" data-name="Layer 2"><g id="Layer_1-2" data-name="Layer 1"><path d="M484.58,248.36v8.84H458.89v-8.84h25.69m4-4H454.89V261.2h33.69V244.36Z"/><path d="M419.69,190.34A23.15,23.15,0,0,1,430.64,193a19.74,19.74,0,0,1,7.77,7.16,18.78,18.78,0,0,1,2.81,10.22v1.85a6.37,6.37,0,0,0,1.65,4.43,6.18,6.18,0,0,0,4.64,2h11.95a6.18,6.18,0,0,0,4.63-2,6.39,6.39,0,0,0,1.65-4.43V195.55h12V212.2a6.37,6.37,0,0,0,1.65,4.43,6.18,6.18,0,0,0,4.63,2h12a6.19,6.19,0,0,0,4.63-2,6.39,6.39,0,0,0,1.65-4.43V195.55h12v16.86a6.38,6.38,0,0,0,1.65,4.44,6.48,6.48,0,0,0,9.27,0,6.42,6.42,0,0,0,1.64-4.44V195.55h12V212.2a6.37,6.37,0,0,0,1.64,4.43,6.05,6.05,0,0,0,4.53,2h6V192.51h12v39.16H545a12.84,12.84,0,0,1-9.3-3.46l-2.83-2.7-2.76,2.76a14.45,14.45,0,0,1-19.11,0l-2.77-2.76-2.83,2.7a13,13,0,0,1-9.4,3.46H484a19.87,19.87,0,0,1-5.63-.7,13.55,13.55,0,0,1-4.24-2.2l-2.4-1.8-2.4,1.8a13.7,13.7,0,0,1-4.25,2.2,19.87,19.87,0,0,1-5.63.7H447.51c-4.12,0-7.26-1.2-9.61-3.66l-2.44-2.56-2.84,2.12a20.92,20.92,0,0,1-12.93,4.31,18.78,18.78,0,0,1-10.22-2.81,19.81,19.81,0,0,1-7.16-7.77,22.92,22.92,0,0,1-2.63-11v-8H395a8.27,8.27,0,0,0-6.09,2.64,8.57,8.57,0,0,0-2.48,6v47.94h-12V211a19.71,19.71,0,0,1,2.76-10.25,21.23,21.23,0,0,1,7.53-7.62,19,19,0,0,1,10.05-2.79h24.88m0,28.46a8.23,8.23,0,0,0,6.15-2.48,8.45,8.45,0,0,0,2.31-6,8.15,8.15,0,0,0-2.37-5.88,8.39,8.39,0,0,0-6.09-2.36h-8.24v8.24a8.57,8.57,0,0,0,2.19,5.9,7.94,7.94,0,0,0,6.05,2.55m0-32.46H394.81a23.12,23.12,0,0,0-12.12,3.36,25.41,25.41,0,0,0-8.91,9A23.84,23.84,0,0,0,370.47,211v51.94h20V211a4.55,4.55,0,0,1,1.36-3.26,4.31,4.31,0,0,1,3.21-1.41h.65v4a27.07,27.07,0,0,0,3.09,12.82,23.89,23.89,0,0,0,8.59,9.29,22.84,22.84,0,0,0,12.33,3.42,25,25,0,0,0,15.32-5.1q4.67,4.89,12.5,4.89h11.95a23.58,23.58,0,0,0,6.79-.87,17.52,17.52,0,0,0,5.49-2.83,17.36,17.36,0,0,0,5.48,2.83,23.63,23.63,0,0,0,6.79.87h12a16.94,16.94,0,0,0,12.17-4.57,18.43,18.43,0,0,0,24.77,0A16.79,16.79,0,0,0,545,235.67h21.95V188.51h-20v26.08h-2a2,2,0,0,1-1.58-.66,2.49,2.49,0,0,1-.59-1.73V191.55h-20v20.86a2.49,2.49,0,0,1-.59,1.74,2.51,2.51,0,0,1-3.37,0,2.45,2.45,0,0,1-.6-1.74V191.55h-20V212.2a2.44,2.44,0,0,1-.6,1.73,2.16,2.16,0,0,1-1.68.66H484a2.16,2.16,0,0,1-1.68-.66,2.44,2.44,0,0,1-.6-1.73V191.55h-20V212.2a2.44,2.44,0,0,1-.6,1.73,2.16,2.16,0,0,1-1.68.66H447.51a2.16,2.16,0,0,1-1.69-.66,2.44,2.44,0,0,1-.6-1.73v-1.85A22.79,22.79,0,0,0,441.8,198a23.89,23.89,0,0,0-9.29-8.59,27.07,27.07,0,0,0-12.82-3.09Zm0,28.46a4,4,0,0,1-3.1-1.25,4.56,4.56,0,0,1-1.14-3.2v-4.24h4.24a4.39,4.39,0,0,1,3.26,1.2,4.1,4.1,0,0,1,1.2,3,4.43,4.43,0,0,1-1.2,3.2,4.27,4.27,0,0,1-3.26,1.25Z"/><path d="M631.15,192.51v21.1a17.52,17.52,0,0,1-2.39,9,18,18,0,0,1-6.52,6.61,17.13,17.13,0,0,1-9,2.43H596.91a16.06,16.06,0,0,1-1.93-.07l-4.25-.61-.31,4.28a32,32,0,0,1-2.76,11.53,25.59,25.59,0,0,1-7.21,8.56A74.46,74.46,0,0,1,569,262.58l-4.34-9.7a58.12,58.12,0,0,0,8.28-6,16,16,0,0,0,4.9-7.46,42,42,0,0,0,.83-9.81v-34h12V212.2a6.37,6.37,0,0,0,1.64,4.43,6.18,6.18,0,0,0,4.64,2H613a6.23,6.23,0,0,0,6.17-6.29V192.51h12m4-4h-20V212.3a2.21,2.21,0,0,1-.65,1.63,2.06,2.06,0,0,1-1.52.66H596.91a2.16,2.16,0,0,1-1.69-.66,2.44,2.44,0,0,1-.59-1.73V191.55h-20v38a38.87,38.87,0,0,1-.7,8.8,12.1,12.1,0,0,1-3.75,5.54,68.85,68.85,0,0,1-10.65,7.39L567,268A87.31,87.31,0,0,0,583,258.48a29.23,29.23,0,0,0,8.31-9.94,35.32,35.32,0,0,0,3.15-13,20.3,20.3,0,0,0,2.5.11H613.2a21.22,21.22,0,0,0,11.09-3,22.23,22.23,0,0,0,7.93-8,21.55,21.55,0,0,0,2.93-11v-25.1Z"/><path d="M631.15,167v8.85H605.47V167h25.68m4-4H601.47v16.85h33.68V163Z"/><path d="M42.59,54.22,14.89,35,3.48,51.5,27.92,68.34a37,37,0,0,1,3,2.23A1.94,1.94,0,0,1,31.62,72c0,1.52-.94,2.28-2.83,2.28H0V95.4H27.06a25.05,25.05,0,0,0,12.27-3.1A23.37,23.37,0,0,0,51.61,71.39a19.18,19.18,0,0,0-2.28-9.78A26.48,26.48,0,0,0,42.59,54.22Z"/><path d="M146.69,92.85A38.05,38.05,0,0,0,159,85.4l17.61-16.51h13.36V49.33H176a2.52,2.52,0,0,1-.93-.22L151.79,38.25a21.61,21.61,0,0,0-10.32-2.61,24.52,24.52,0,0,0-9.34,1.9,20.8,20.8,0,0,0-8.15,6L112.57,57.48l13.91,12.17,11.3-12.5a6,6,0,0,1,3.91-1.74,6.56,6.56,0,0,1,2.39.66l12.49,6.08L148,69.76a18.5,18.5,0,0,1-12.6,4.56H107.68V71.39a27,27,0,0,0-3.1-12.82A23.8,23.8,0,0,0,96,49.28a22.77,22.77,0,0,0-12.34-3.43A24.61,24.61,0,0,0,70.9,49.28a25.85,25.85,0,0,0-9.29,9.29,24.66,24.66,0,0,0-3.48,12.82,22.84,22.84,0,0,0,3.42,12.33,23.86,23.86,0,0,0,9.29,8.58,27,27,0,0,0,12.82,3.1h4a6.29,6.29,0,0,1-1.42,4q-1.41,1.78-6,4.34t-13.8,6.47l6.19,17.6a134.43,134.43,0,0,0,19.18-9.62,35.79,35.79,0,0,0,10.54-9.72,30.29,30.29,0,0,0,4.72-13h25.54A39.9,39.9,0,0,0,146.69,92.85Zm-59-17.23h-4a4.56,4.56,0,0,1-3.2-1.14,4,4,0,0,1-1.25-3.09,4.31,4.31,0,0,1,1.25-3.26,4.43,4.43,0,0,1,3.2-1.2,3.77,3.77,0,0,1,2.94,1.2,4.69,4.69,0,0,1,1.09,3.26Z"/><rect x="133.1" y="11.19" width="16.84" height="16.84"/><path d="M238.89,108.28a36.26,36.26,0,0,0,18.69,5,36.75,36.75,0,0,0,18.85-5,37.69,37.69,0,0,0,13.69-13.64A36.17,36.17,0,0,0,295.18,76V21.19h-20V74.86a16.46,16.46,0,0,1-2.39,8.59,18.06,18.06,0,0,1-6.41,6.41,16.93,16.93,0,0,1-8.8,2.39A16.54,16.54,0,0,1,249,89.86a18.06,18.06,0,0,1-6.41-6.41,16.46,16.46,0,0,1-2.39-8.59V55.63h-20V76a36.17,36.17,0,0,0,5.06,18.69A37.84,37.84,0,0,0,238.89,108.28Z"/><path d="M300.72,3.31Q297,6.63,297,12.6V23.25h13V17.49a2.38,2.38,0,0,1,.6-1.84,3,3,0,0,1,2-.55h28.68V0H309.63A12.91,12.91,0,0,0,300.72,3.31Z"/><rect x="314.19" y="23.8" width="19.99" height="71.6"/><path d="M384.71,88.12a22.46,22.46,0,0,0,7-16.62,25.43,25.43,0,0,0-2-9.84,27.76,27.76,0,0,0-5.81-8.74L361.89,31.18l-14.34,14,5.1,4.89-2.82,2.83a26.26,26.26,0,0,0-6,8.69,25.39,25.39,0,0,0-2.06,10,23.35,23.35,0,0,0,1.74,8.86,22.8,22.8,0,0,0,5.1,7.66A25.15,25.15,0,0,0,357,93.55a26.2,26.2,0,0,0,19.34,0A25.36,25.36,0,0,0,384.71,88.12Zm-14.78-15a4.22,4.22,0,0,1-6.3,0,4.07,4.07,0,0,1-1.31-2.94,4.59,4.59,0,0,1,1.52-3.26l2.83-2.82,2.82,3a4.78,4.78,0,0,1,1.63,3.37A3.67,3.67,0,0,1,369.93,73.13Z"/><path d="M433.27,94.48a23.9,23.9,0,0,0,7.07-4,15.83,15.83,0,0,0,5.1,3.42,18.39,18.39,0,0,0,7.61,1.47h15.54a21.12,21.12,0,0,0,11.08-3,22.15,22.15,0,0,0,7.93-8,21.54,21.54,0,0,0,2.94-11V48.24h-20V72a2.2,2.2,0,0,1-.65,1.63,2.09,2.09,0,0,1-1.52.65H454.14a3.28,3.28,0,0,1-2.4-.76,7.36,7.36,0,0,1-1.41-2.39l-14.12-38.9-19,7.06,10.87,29.34a15.57,15.57,0,0,1,.65,2.61q0,3-3.8,3H398.18V95.4h26.73A30.16,30.16,0,0,0,433.27,94.48Z"/><rect x="457.07" y="104.09" width="33.68" height="16.84"/><rect x="497.92" y="21.19" width="19.99" height="74.21"/><rect x="577.85" y="38.79" width="16.84" height="16.84"/><path d="M568,108.28a36.31,36.31,0,0,0,18.69,5,36.79,36.79,0,0,0,18.86-5A37.85,37.85,0,0,0,619.2,94.64a36.26,36.26,0,0,0,5-18.69V51.29h-20V74.86a16.47,16.47,0,0,1-2.4,8.59,18.06,18.06,0,0,1-6.41,6.41,16.93,16.93,0,0,1-8.8,2.39,16.54,16.54,0,0,1-8.58-2.39,18.06,18.06,0,0,1-6.41-6.41,16.46,16.46,0,0,1-2.39-8.59V55.63h-20V76a36.16,36.16,0,0,0,5.05,18.69A37.92,37.92,0,0,0,568,108.28Z"/><rect x="687.16" y="104.09" width="16.84" height="16.84"/><path d="M695.85,48.24V72a2.24,2.24,0,0,1-.65,1.63,2.09,2.09,0,0,1-1.52.65h-6.41a3.24,3.24,0,0,1-2.39-.76,7.18,7.18,0,0,1-1.42-2.39l-14.12-38.9-19,7.06,10.87,29.34a14.54,14.54,0,0,1,.65,2.61q0,3-3.8,3H631.31V95.4H658a30.24,30.24,0,0,0,8.37-.92,24,24,0,0,0,7.06-4,15.77,15.77,0,0,0,5.11,3.42,18.3,18.3,0,0,0,7.6,1.47h7.72a21.12,21.12,0,0,0,11.08-3,22.15,22.15,0,0,0,7.93-8,21.53,21.53,0,0,0,2.93-11V48.24Z"/><path d="M135.82,213.5a11.33,11.33,0,0,0-8.48,3.59,11.88,11.88,0,0,0-3.48,8.58,11.46,11.46,0,0,0,1.69,6,13,13,0,0,0,4.45,4.5,11,11,0,0,0,5.82,1.69,12,12,0,0,0,8.53-3.48,11.54,11.54,0,0,0,3.64-8.69,12.19,12.19,0,0,0-3.37-8.53A11.43,11.43,0,0,0,135.82,213.5Z"/><rect x="216.76" y="244.36" width="33.68" height="16.84"/><rect x="262.83" y="166.02" width="16.84" height="16.84"/><path d="M328.35,189.92l-14.77-9.78,14.77-15.32-13.69-13L292.5,175.36v14.78l23.57,15.75a4.5,4.5,0,0,1,2.5,3.92,4.44,4.44,0,0,1-1.41,3.58,5,5,0,0,1-3.37,1.2H283.48a2.16,2.16,0,0,1-1.69-.66,2.49,2.49,0,0,1-.59-1.73V191.55h-20V212.2a2.49,2.49,0,0,1-.59,1.73,2.16,2.16,0,0,1-1.69.66h-13a2.16,2.16,0,0,1-1.68-.66,2.44,2.44,0,0,1-.6-1.73V191.55h-20V212.2a2.44,2.44,0,0,1-.6,1.73,2.16,2.16,0,0,1-1.68.66h-7.61a3.31,3.31,0,0,1-2.39-.76,7.12,7.12,0,0,1-1.41-2.39l-14.13-38.9-19,7.06,10.86,29.34a15,15,0,0,1,.66,2.6q0,3-3.81,3.05H157.76v21.08h26.73a29.81,29.81,0,0,0,8.37-.93,23.81,23.81,0,0,0,7.06-4A16,16,0,0,0,205,234.2a18.35,18.35,0,0,0,7.61,1.47h8.69a23.58,23.58,0,0,0,6.79-.87,17.52,17.52,0,0,0,5.49-2.83,17.36,17.36,0,0,0,5.48,2.83,23.63,23.63,0,0,0,6.79.87h13a23.58,23.58,0,0,0,6.79-.87A17.52,17.52,0,0,0,271.2,232a17.52,17.52,0,0,0,5.49,2.83,23.58,23.58,0,0,0,6.79.87h30.1a24,24,0,0,0,12.55-3.43A25.56,25.56,0,0,0,335.2,223a25.08,25.08,0,0,0,3.37-12.77,26.3,26.3,0,0,0-2.67-11.74A20.91,20.91,0,0,0,328.35,189.92Z"/><rect x="667.06" y="161.45" width="19.99" height="74.21"/><path d="M695.31,229.58a38.73,38.73,0,0,1-.71,8.8,12,12,0,0,1-3.75,5.54,68.35,68.35,0,0,1-10.65,7.39L687.7,268q11.41-5.64,17.28-10.81a27.47,27.47,0,0,0,8.09-11.46q2.23-6.3,2.23-16.19v-38h-20Z"/></g></g></svg>