<svg xmlns="http://www.w3.org/2000/svg" viewBox="0 0 61.75 61.5"><defs><style>.cls-1{fill:#f38e27;}.cls-2{fill:#fff;}</style></defs><g id="Layer_2" data-name="Layer 2"><g id="Layer_1-2" data-name="Layer 1"><circle class="cls-1" cx="30.86" cy="30.62" r="24.96"/><path class="cls-1" d="M30.86,61.5h-.62a.94.94,0,0,1,0-1.87,29,29,0,0,0,9.57-1.41A.93.93,0,1,1,40.43,60,30.65,30.65,0,0,1,30.86,61.5ZM20.45,59.64a.86.86,0,0,1-.32,0,30.89,30.89,0,0,1-3.93-1.78.94.94,0,0,1,.89-1.65,26.45,26.45,0,0,0,3.68,1.67.93.93,0,0,1-.32,1.81Zm31.08-6.41a.92.92,0,0,1-.68-.29.93.93,0,0,1,0-1.32,28.54,28.54,0,0,0,2.72-3,.94.94,0,0,1,1.47,1.17A31.25,31.25,0,0,1,52.17,53,.92.92,0,0,1,51.53,53.23Zm-44.88-4a.93.93,0,0,1-.75-.38,30.65,30.65,0,0,1-4.6-9.22.93.93,0,0,1,1.79-.54,28.7,28.7,0,0,0,4.32,8.66.94.94,0,0,1-.76,1.48ZM59.16,41.4a1.18,1.18,0,0,1-.31,0,.94.94,0,0,1-.57-1.19,29.08,29.08,0,0,0,1.6-9.54V30.5a.94.94,0,0,1,1.87,0v.11A30.66,30.66,0,0,1,60,40.77.92.92,0,0,1,59.16,41.4ZM.93,30.35h0a.94.94,0,0,1-.9-1A30.45,30.45,0,0,1,.47,25.1a.92.92,0,0,1,1.08-.75.93.93,0,0,1,.76,1.08,28.41,28.41,0,0,0-.44,4A.94.94,0,0,1,.93,30.35ZM57.84,18.51A.92.92,0,0,1,57,18a29.82,29.82,0,0,0-2-3.51.93.93,0,0,1,1.55-1,31.49,31.49,0,0,1,2.15,3.74.94.94,0,0,1-.44,1.25A1,1,0,0,1,57.84,18.51ZM6.59,14a.94.94,0,0,1-.76-1.49,31.44,31.44,0,0,1,7.34-7.22.94.94,0,0,1,1.3.23.92.92,0,0,1-.23,1.3,29.22,29.22,0,0,0-6.89,6.79A1,1,0,0,1,6.59,14ZM48.9,7.63a.88.88,0,0,1-.56-.19A29.3,29.3,0,0,0,39.75,3a.93.93,0,0,1,.57-1.78A30.75,30.75,0,0,1,49.46,6a.94.94,0,0,1,.18,1.31A.93.93,0,0,1,48.9,7.63ZM22.73,2.71A.93.93,0,0,1,22.48.88,30.08,30.08,0,0,1,26.7,0,.93.93,0,1,1,27,1.86a28.25,28.25,0,0,0-4,.82A1.07,1.07,0,0,1,22.73,2.71Z"/><path class="cls-2" d="M23.46,37.84a5.22,5.22,0,0,1-4.53-2.06,9,9,0,0,1-1.51-5.49,9.1,9.1,0,0,1,1.51-5.5,5.24,5.24,0,0,1,4.53-2.05A5.24,5.24,0,0,1,28,24.79a9.1,9.1,0,0,1,1.51,5.5A9,9,0,0,1,28,35.78,5.22,5.22,0,0,1,23.46,37.84ZM21.31,26.77a7.72,7.72,0,0,0-.69,3.53,7.72,7.72,0,0,0,.69,3.53,2.39,2.39,0,0,0,4.3,0,7.72,7.72,0,0,0,.69-3.53,7.72,7.72,0,0,0-.69-3.53,2.39,2.39,0,0,0-4.3,0Z"/><path class="cls-2" d="M32.23,25.85V23.07h9v2.26l-3,3.4a4.31,4.31,0,0,1,2.72,1.48,4.22,4.22,0,0,1,1,2.72,4.46,4.46,0,0,1-1.56,3.61,6,6,0,0,1-4,1.3,8.64,8.64,0,0,1-4.91-1.71l1.34-2.59A6.69,6.69,0,0,0,36.45,35a2.6,2.6,0,0,0,1.62-.48,1.62,1.62,0,0,0,.64-1.39A1.67,1.67,0,0,0,38,31.69a3.35,3.35,0,0,0-2-.53,7.1,7.1,0,0,0-1.94.39v-2.4l2.8-3.3Z"/></g></g></svg>