<svg xmlns="http://www.w3.org/2000/svg" xmlns:xlink="http://www.w3.org/1999/xlink" viewBox="0 0 599.73 299.87"><defs><style>.cls-1{fill:none;}.cls-2{isolation:isolate;}.cls-3{clip-path:url(#clip-path);}.cls-4{fill:url(#ÅÂÁ_Ï_ÌÌ_È_ËÂÌÚ_4);}.cls-5{fill:#f20d1b;}.cls-6{fill:#f37522;}.cls-7{fill:#f39f29;}.cls-8{fill:#f1b42f;}.cls-9{fill:#62bd26;}.cls-10{fill:#1e9af0;}.cls-11{mix-blend-mode:soft-light;}.cls-11,.cls-19{opacity:0.5;}.cls-12{opacity:0.94;}.cls-13{opacity:0.88;}.cls-14{opacity:0.81;}.cls-15{opacity:0.75;}.cls-16{opacity:0.69;}.cls-17{opacity:0.63;}.cls-18{opacity:0.56;}.cls-20{opacity:0.44;}.cls-21{opacity:0.38;}.cls-22{opacity:0.31;}.cls-23{opacity:0.25;}.cls-24{opacity:0.19;}.cls-25{opacity:0.13;}.cls-26{opacity:0.06;}.cls-27{opacity:0;}.cls-28{fill:#fff;}</style><clipPath id="clip-path"><path class="cls-1" d="M599.73,299.87h0C599.73,134.25,465.47,0,299.86,0S0,134.25,0,299.86H599.73Z"/></clipPath><linearGradient id="ÅÂÁ_Ï_ÌÌ_È_ËÂÌÚ_4" x1="299.86" x2="299.86" y2="314" gradientUnits="userSpaceOnUse"><stop offset="0" stop-color="#0c5b8c"/><stop offset="1" stop-color="#022855"/></linearGradient></defs><g class="cls-2"><g id="Layer_2" data-name="Layer 2"><g id="Layer_1-2" data-name="Layer 1"><path d="M245.49,299.87V259.69h14.44q7.76,0,11.8,2.84a10.47,10.47,0,0,1,2.61,13.57,8.36,8.36,0,0,1-4.24,3.27,8.42,8.42,0,0,1,4.84,3.08,9,9,0,0,1,1.69,5.52q0,5.91-3.74,8.88t-11.09,3Zm9.69-23.43h5.06c2.1,0,3.61-.4,4.52-1.16a4.07,4.07,0,0,0,1.36-3.34,4.34,4.34,0,0,0-1.46-3.66,7.94,7.94,0,0,0-4.73-1.11h-4.75Zm0,6.34v9.64h6.34a6,6,0,0,0,4-1.2,4.14,4.14,0,0,0,1.42-3.37q0-5-5-5.07Z"/><path d="M300.88,259.69l9,27.95,8.94-27.95h12.74v40.18h-9.71v-9.38l.92-19.21-9.71,28.59h-6.39l-9.74-28.62.93,19.24v9.38h-9.69V259.69Z"/><path d="M354.23,299.87h-9.66V259.69h9.66Z"/><g class="cls-3"><path class="cls-4" d="M299.86,0C134.25,0,0,134.25,0,299.86H192.18a107.68,107.68,0,0,1,215.36,0H599.73C599.73,134.25,465.47,0,299.86,0Z"/><path class="cls-5" d="M558,299.86a258.08,258.08,0,0,0-49.29-151.7L380.85,241A99.6,99.6,0,0,1,400,299.86Z"/><path class="cls-6" d="M380.85,241l127.82-92.86a258.1,258.1,0,0,0-129-93.76L330.8,204.63A100.32,100.32,0,0,1,380.85,241Z"/><path class="cls-7" d="M330.8,204.63,379.62,54.4a258.16,258.16,0,0,0-159.52,0l48.82,150.24a100.42,100.42,0,0,1,61.88,0Z"/><path class="cls-8" d="M268.92,204.64,220.1,54.4a258,258,0,0,0-129,93.76L218.87,241A100.34,100.34,0,0,1,268.92,204.64Z"/><path class="cls-9" d="M268.92,204.64,220.1,54.4a258.13,258.13,0,0,0-129,93.76L218.87,241A100.28,100.28,0,0,1,268.92,204.64Z"/><path class="cls-10" d="M91.06,148.16A258.08,258.08,0,0,0,41.77,299.87h158A99.66,99.66,0,0,1,218.87,241Z"/><g class="cls-11"><path d="M400,299.86H558a257.9,257.9,0,0,0-48.43-150.48h0l-1.77-2.43h0A257.82,257.82,0,0,0,381,54.88v0l-2.85-.92h0a257.93,257.93,0,0,0-156.65,0h0l-1.42.46h0l-.13,0-1.29.42v0A257.76,257.76,0,0,0,92,147h0l-.73,1-.15.21h0l-.88,1.21h0A258,258,0,0,0,41.77,299.87h158a99.63,99.63,0,0,1,18.66-58.19l.87-1.2.09-.13c.23-.29.44-.6.67-.89l.24-.32,1-1.23c.31-.4.63-.79.95-1.19l.27-.33,1-1.25.21-.25c.37-.44.75-.87,1.13-1.3l.15-.18.65-.72c.23-.24.44-.48.67-.73l.19-.2c.38-.41.76-.82,1.15-1.22l.45-.46.91-.94.42-.4q1.19-1.17,2.4-2.31l.23-.2c.88-.82,1.78-1.62,2.69-2.4l.69-.58q3.39-2.85,7-5.42l.56-.38c.89-.62,1.79-1.22,2.69-1.8l.32-.2,1.35-.85,1.22-.74.46-.27.81-.47.89-.52.22-.12c.5-.28,1-.56,1.51-.83l1.7-.89,0,0,1.32-.66.45-.23.77-.36,1-.49.19-.08c1.14-.53,2.28-1,3.43-1.51l1.68-.68.17-.07,1.64-.62.22-.08c.53-.2,1.07-.4,1.62-.58l.25-.1,1.27-.42q.65-.22,1.29-.42a100.3,100.3,0,0,1,60.56,0q.64.19,1.29.42a100.22,100.22,0,0,1,49,35.62c.3.4.59.79.88,1.2A99.63,99.63,0,0,1,400,299.86Z"/><path class="cls-12" d="M399.55,299.86H556.86A256.91,256.91,0,0,0,508.64,150h0l-1.75-2.41h0a256.86,256.86,0,0,0-126.2-91.68h0L377.86,55v0a256.78,256.78,0,0,0-156,0v0l-1.41.46h0l-.13,0-1.29.42h0a256.79,256.79,0,0,0-126.2,91.69h0l-.72,1c0,.08-.1.14-.16.22h0l-.88,1.2h0A256.81,256.81,0,0,0,42.87,299.87H200.18a99.2,99.2,0,0,1,18.58-57.94c.28-.4.57-.8.86-1.19l.1-.13.66-.89.24-.32.95-1.23,1-1.18.26-.33,1-1.25.21-.25,1.13-1.29.15-.17L226,233l.66-.73.19-.2,1.14-1.21.45-.46c.31-.31.61-.63.92-.93l.41-.41c.78-.78,1.58-1.54,2.39-2.29l.22-.21c.88-.81,1.78-1.61,2.68-2.38l.69-.58q3.39-2.85,7-5.4l.56-.38c.89-.61,1.78-1.21,2.68-1.8l.32-.19c.44-.29.89-.57,1.34-.85s.81-.49,1.22-.73l.45-.28.81-.46L251,213l.22-.12,1.5-.82c.56-.3,1.12-.6,1.69-.89l.05,0c.43-.23.87-.44,1.31-.66l.45-.22.76-.37,1-.48.19-.09q1.69-.78,3.42-1.5l1.67-.67.16-.07,1.64-.62.21-.08,1.62-.58.25-.1,1.27-.42,1.28-.42a100.07,100.07,0,0,1,60.3,0l1.29.42a99.87,99.87,0,0,1,48.8,35.47l.87,1.19A99.25,99.25,0,0,1,399.55,299.86Z"/><path class="cls-13" d="M399.12,299.86H555.76a255.74,255.74,0,0,0-48-149.2h0l-1.75-2.4h0A255.78,255.78,0,0,0,380.35,57h0L377.52,56h0a255.77,255.77,0,0,0-155.32,0v0l-1.41.46h0l-.13,0-1.28.42h0a255.78,255.78,0,0,0-125.65,91.3h0l-.72,1-.16.21h0L92,150.66h0A255.82,255.82,0,0,0,44,299.87H200.6a98.79,98.79,0,0,1,18.5-57.7L220,241a1.13,1.13,0,0,0,.1-.13l.66-.89.24-.31c.31-.41.63-.82.95-1.22s.63-.79,1-1.18l.26-.33c.34-.42.69-.83,1-1.24l.21-.25,1.12-1.29.15-.17c.21-.24.43-.48.65-.71l.65-.73.19-.2,1.14-1.21.45-.46c.3-.31.6-.62.91-.92.13-.14.27-.27.41-.41.78-.77,1.57-1.53,2.38-2.28l.22-.21c.88-.8,1.77-1.6,2.67-2.37l.68-.57q3.38-2.84,7-5.38l.55-.38c.89-.61,1.77-1.21,2.68-1.79l.31-.19c.44-.29.88-.57,1.33-.84l1.22-.74.45-.27.8-.46.89-.52.22-.11,1.49-.83,1.68-.88.05,0,1.31-.65.44-.22.76-.36c.34-.16.68-.33,1-.48l.19-.09c1.12-.52,2.26-1,3.4-1.49l1.67-.68.16-.06,1.63-.62.21-.09,1.61-.57.25-.09q.63-.22,1.26-.42l1.28-.42a99.64,99.64,0,0,1,60,0l1.28.41A99.51,99.51,0,0,1,379.76,241c.29.4.58.79.86,1.19A98.79,98.79,0,0,1,399.12,299.86Z"/><path class="cls-14" d="M398.7,299.86h156a254.75,254.75,0,0,0-47.8-148.56h0l-1.74-2.39h0A254.59,254.59,0,0,0,380,58v0l-2.82-.91h0a254.53,254.53,0,0,0-154.65,0h0l-1.4.45h0l-.13,0-1.27.41v0A254.59,254.59,0,0,0,94.6,148.91h0l-.71,1-.16.21h0l-.87,1.2h0A254.66,254.66,0,0,0,45.06,299.87H201a98.35,98.35,0,0,1,18.42-57.45l.86-1.18.09-.13.66-.88.24-.31c.31-.41.62-.82.94-1.22l.95-1.17.26-.33c.34-.42.69-.83,1-1.23l.21-.25c.37-.43.74-.86,1.12-1.28l.15-.18.64-.71.66-.72.18-.2c.38-.4.76-.81,1.14-1.2L229,231c.3-.31.59-.62.9-.92.13-.14.27-.27.41-.4.78-.78,1.56-1.54,2.37-2.28l.22-.2c.87-.81,1.76-1.6,2.66-2.37l.68-.57q3.34-2.82,6.95-5.35l.56-.38c.87-.61,1.76-1.2,2.66-1.78l.3-.19c.45-.28.89-.57,1.34-.84l1.21-.73.45-.27c.26-.16.53-.31.8-.46s.58-.35.88-.51l.22-.12,1.48-.82,1.68-.88,0,0,1.3-.65.44-.22.76-.36,1-.48.2-.08c1.12-.52,2.24-1,3.39-1.49l1.65-.67.16-.07,1.62-.61.22-.09,1.6-.57.25-.09,1.26-.42,1.27-.41a99,99,0,0,1,59.78,0l1.28.41a99,99,0,0,1,48.38,35.17l.87,1.18A98.35,98.35,0,0,1,398.7,299.86Z"/><path class="cls-15" d="M398.27,299.86H553.56A253.51,253.51,0,0,0,506,151.94h0l-1.74-2.38h0A253.41,253.41,0,0,0,379.66,59.05v0l-2.8-.91v0a253.38,253.38,0,0,0-154,0v0l-1.39.46h0l-.13,0-1.27.42h0A253.57,253.57,0,0,0,95.49,149.56h0l-.71,1-.16.21h0l-.86,1.2h0a253.68,253.68,0,0,0-47.6,147.93h155.3a97.94,97.94,0,0,1,18.34-57.2c.28-.4.56-.79.85-1.18l.09-.12.66-.88.24-.31c.31-.41.62-.81.94-1.21s.62-.79.94-1.17l.26-.33,1-1.23L225,236c.36-.43.73-.85,1.11-1.27l.15-.18c.21-.23.42-.47.64-.7l.65-.72.19-.2,1.13-1.2.44-.45.9-.92.41-.4c.77-.77,1.56-1.53,2.36-2.27l.22-.2c.87-.8,1.75-1.58,2.65-2.35.22-.2.45-.38.67-.57q3.35-2.82,6.92-5.33l.56-.38c.87-.6,1.75-1.19,2.65-1.77l.3-.19,1.33-.84,1.21-.73L250,215l.8-.45c.29-.17.58-.35.88-.51l.21-.12,1.48-.82,1.67-.87,0,0,1.3-.65.44-.21.75-.36,1-.48.19-.09c1.12-.51,2.24-1,3.38-1.48l1.65-.66.16-.07,1.61-.61.22-.09,1.59-.57.25-.09,1.25-.42,1.27-.41a98.8,98.8,0,0,1,59.53,0l1.26.41a98.61,98.61,0,0,1,48.18,35c.29.39.58.78.86,1.18A97.92,97.92,0,0,1,398.27,299.86Z"/><path class="cls-16" d="M397.84,299.86H552.46a252.44,252.44,0,0,0-47.39-147.28h0l-1.72-2.37h0a252.32,252.32,0,0,0-124-90.12h0l-2.8-.91h0a252.47,252.47,0,0,0-153.32,0h0l-1.39.45h0l-.13.05-1.26.41h0a252.32,252.32,0,0,0-124,90.12h0l-.71,1-.15.21h0l-.86,1.19h0A252.44,252.44,0,0,0,47.26,299.87H201.88a97.5,97.5,0,0,1,18.26-57c.28-.4.57-.79.85-1.17l.1-.13.65-.88.24-.31.93-1.2.94-1.17c.09-.1.17-.21.26-.32l1-1.22.21-.25c.36-.43.73-.85,1.11-1.27l.15-.17.63-.71c.22-.23.43-.47.65-.71l.19-.2c.37-.4.74-.8,1.12-1.19l.45-.46.89-.91.41-.4c.77-.76,1.55-1.52,2.35-2.25l.22-.21c.86-.79,1.74-1.57,2.63-2.34l.68-.57q3.31-2.79,6.89-5.3l.55-.38c.87-.6,1.75-1.19,2.64-1.76l.3-.19,1.32-.84,1.2-.72.45-.27L251,215l.88-.51.21-.12,1.48-.81c.55-.3,1.1-.59,1.66-.87l0,0,1.3-.64.43-.22.75-.36,1-.47.19-.09q1.67-.76,3.36-1.47l1.65-.67.15-.06,1.61-.61.22-.09,1.58-.56.25-.09c.41-.15.83-.28,1.24-.42l1.27-.41a98.17,98.17,0,0,1,59.27,0l1.26.41a98.18,98.18,0,0,1,48,34.86c.29.39.57.78.85,1.18A97.5,97.5,0,0,1,397.84,299.86Z"/><path class="cls-17" d="M397.42,299.86h154a251.37,251.37,0,0,0-47.19-146.64h0l-1.72-2.36h0A251.31,251.31,0,0,0,379,61.13h0l-2.78-.9h0a251.32,251.32,0,0,0-152.65,0h0l-1.38.45h0l-.13,0-1.26.41h0a251.27,251.27,0,0,0-123.5,89.73h0l-.71,1-.15.2h0l-.86,1.18h0A251.45,251.45,0,0,0,48.36,299.87h154a97.12,97.12,0,0,1,18.18-56.71l.85-1.16.09-.13.65-.87.24-.31.92-1.2.94-1.16c.09-.1.17-.21.26-.32l1-1.22.2-.24,1.11-1.27.15-.17c.2-.24.42-.47.63-.7s.43-.48.65-.71l.18-.2c.37-.4.74-.8,1.12-1.19l.44-.45.89-.91.41-.4c.77-.76,1.54-1.51,2.34-2.24l.22-.2c.86-.79,1.73-1.57,2.62-2.34l.67-.56q3.32-2.79,6.86-5.28l.55-.38c.87-.59,1.74-1.18,2.63-1.75l.3-.19c.44-.28.87-.56,1.32-.83s.79-.49,1.19-.72l.44-.27.79-.46.88-.5.21-.12,1.47-.8,1.65-.87.05,0c.42-.22.85-.43,1.28-.64l.44-.22.75-.35,1-.48.19-.08c1.11-.51,2.22-1,3.35-1.47.54-.23,1.08-.45,1.63-.66l.16-.07,1.6-.61.21-.08,1.58-.56.25-.09,1.24-.42,1.25-.41a98,98,0,0,1,59,0l1.26.41A97.83,97.83,0,0,1,378.39,242l.85,1.17A97.12,97.12,0,0,1,397.42,299.86Z"/><path class="cls-18" d="M397,299.86H550.27a250.38,250.38,0,0,0-47-146h0l-1.71-2.35h0a250.12,250.12,0,0,0-123-89.33v0l-2.76-.9v0a250.18,250.18,0,0,0-152,0v0l-1.37.45h0l-.13,0-1.25.4v0a250.12,250.12,0,0,0-123,89.33h0l-.7,1-.15.21h0l-.86,1.18h0a250.19,250.19,0,0,0-47,146H202.73a96.67,96.67,0,0,1,18.11-56.46c.27-.39.56-.77.84-1.16l.09-.12.65-.87.24-.31c.3-.4.61-.8.92-1.19l.93-1.16.26-.32c.33-.41.67-.81,1-1.21l.21-.25,1.1-1.26c0-.05.09-.11.14-.17l.64-.69c.21-.24.42-.48.64-.71l.18-.2c.37-.4.74-.79,1.12-1.18l.44-.45.88-.91.41-.39c.76-.76,1.54-1.51,2.33-2.24l.22-.2c.85-.79,1.72-1.56,2.61-2.32.22-.19.44-.38.67-.56q3.28-2.78,6.83-5.26l.54-.38c.87-.59,1.74-1.18,2.62-1.74l.3-.2,1.31-.82,1.19-.72.44-.26.79-.46.87-.5.21-.11c.48-.28,1-.55,1.46-.81s1.09-.58,1.65-.86l0,0,1.28-.64.44-.22.74-.35,1-.47.19-.08q1.65-.76,3.33-1.47l1.63-.66.16-.06c.52-.21,1.06-.41,1.59-.61l.21-.08,1.57-.56.25-.09,1.23-.41,1.25-.41a97.54,97.54,0,0,1,58.76,0l1.25.41A97.28,97.28,0,0,1,378,242.24c.29.38.57.77.85,1.16A96.66,96.66,0,0,1,397,299.86Z"/><path class="cls-19" d="M396.57,299.86h152.6A249.2,249.2,0,0,0,502.4,154.5h0l-1.71-2.34h0A249.07,249.07,0,0,0,378.27,63.22v0l-2.76-.89h0a249.27,249.27,0,0,0-151.32,0h0l-1.37.45h0l-.13,0-1.25.41h0A249.07,249.07,0,0,0,99,152.16h0l-.7,1-.16.21h0l-.85,1.17h0A249.2,249.2,0,0,0,50.56,299.87h152.6a96.24,96.24,0,0,1,18-56.21l.84-1.16.09-.12c.22-.29.43-.58.65-.86.07-.11.16-.21.23-.31.31-.4.61-.8.92-1.19l.93-1.15.26-.32c.33-.41.67-.81,1-1.21l.2-.24,1.09-1.25.15-.17.63-.7.64-.7.19-.2c.36-.4.73-.79,1.11-1.18l.43-.44.89-.91.4-.39c.76-.75,1.53-1.5,2.32-2.23l.21-.19c.86-.79,1.72-1.56,2.6-2.32l.67-.56q3.29-2.76,6.8-5.23l.55-.38c.85-.59,1.72-1.17,2.6-1.74l.3-.19,1.3-.82,1.19-.71.44-.27.78-.45.86-.5.21-.11,1.46-.8c.54-.3,1.09-.58,1.64-.86l0,0,1.27-.64.43-.21.74-.35,1-.47.19-.09c1.09-.5,2.2-1,3.31-1.45.54-.23,1.08-.44,1.63-.66l.15-.06,1.59-.61.21-.08,1.56-.56.25-.09,1.23-.41,1.24-.4a96.9,96.9,0,0,1,58.5,0l1.25.4a96.93,96.93,0,0,1,47.34,34.41l.84,1.16A96.23,96.23,0,0,1,396.57,299.86Z"/><path class="cls-20" d="M396.14,299.86H548.07A248.13,248.13,0,0,0,501.5,155.14h0l-1.69-2.34h0A248,248,0,0,0,377.93,64.26h0l-2.74-.89h0a247.92,247.92,0,0,0-150.65,0h0l-1.36.44h0l-.13,0-1.24.41h0A248,248,0,0,0,99.91,152.81h0l-.69,1-.16.2h0l-.85,1.17h0A248.13,248.13,0,0,0,51.65,299.87H203.59a95.81,95.81,0,0,1,17.94-56c.28-.39.55-.77.84-1.15l.09-.13.64-.86.23-.3.92-1.19.92-1.14c.09-.11.17-.22.26-.32l1-1.2.21-.24c.35-.42.72-.84,1.08-1.25l.15-.17.63-.69.63-.7.19-.2c.36-.39.73-.79,1.1-1.17l.44-.45.88-.9.4-.39c.76-.75,1.52-1.49,2.31-2.21l.21-.2c.85-.78,1.71-1.55,2.59-2.31l.66-.55c2.18-1.83,4.44-3.58,6.78-5.21.17-.13.36-.25.54-.37.85-.59,1.71-1.17,2.59-1.74l.3-.19c.43-.27.86-.55,1.3-.81l1.18-.72.43-.26.78-.45.86-.5.21-.11,1.45-.8,1.63-.86,0,0,1.27-.63.43-.22.74-.35,1-.47.19-.08c1.08-.5,2.18-1,3.3-1.45l1.61-.65.16-.07,1.58-.6.21-.08L268,209l.25-.08,1.22-.41,1.24-.41a96.67,96.67,0,0,1,58.24,0l1.24.41a96.43,96.43,0,0,1,47.14,34.25l.84,1.16A95.81,95.81,0,0,1,396.14,299.86Z"/><path class="cls-21" d="M395.71,299.86H547a247,247,0,0,0-46.36-144.08h0l-1.69-2.33h0A247,247,0,0,0,377.58,65.3h0l-2.73-.89v0a246.77,246.77,0,0,0-150,0v0l-1.35.45h0l-.13,0-1.24.4h0A247,247,0,0,0,100.8,153.46h0l-.7.95-.15.21h0l-.84,1.16h0A247.14,247.14,0,0,0,52.75,299.87H204a95.43,95.43,0,0,1,17.87-55.72l.83-1.14.09-.12c.21-.29.42-.58.64-.86l.23-.3c.3-.4.61-.79.91-1.18l.92-1.14c.09-.11.17-.22.26-.32l1-1.2.2-.24L228,236.4l.15-.17.62-.69.64-.7.18-.19,1.1-1.17.43-.44c.29-.3.58-.6.88-.89.13-.14.26-.26.4-.4.75-.74,1.52-1.48,2.29-2.2l.22-.2c.85-.78,1.71-1.54,2.58-2.29l.66-.56c2.17-1.82,4.41-3.55,6.74-5.18l.54-.37c.85-.59,1.71-1.17,2.58-1.73l.3-.19,1.29-.81,1.17-.71.44-.26.77-.45.86-.49.21-.12,1.44-.79c.54-.29,1.08-.58,1.63-.86l0,0,1.27-.63.43-.22.73-.34,1-.47.18-.08c1.09-.5,2.18-1,3.29-1.45l1.61-.65.15-.06,1.57-.6.21-.08,1.55-.55.25-.09,1.22-.41,1.23-.4a96,96,0,0,1,58,0l1.24.4A96,96,0,0,1,377,243l.84,1.14A95.42,95.42,0,0,1,395.71,299.86Z"/><path class="cls-22" d="M395.29,299.86H545.87a246,246,0,0,0-46.15-143.44h0l-1.68-2.32h0a245.77,245.77,0,0,0-120.8-87.76v0l-2.72-.88h0a245.86,245.86,0,0,0-149.32,0h0l-1.35.44h0l-.13,0-1.23.4v0a245.93,245.93,0,0,0-120.8,87.76h0l-.69.95-.15.2h0l-.84,1.16h0A245.91,245.91,0,0,0,53.85,299.87H204.44a95,95,0,0,1,17.78-55.47l.83-1.14.09-.12c.21-.28.42-.57.64-.85l.23-.3c.3-.4.6-.79.91-1.18s.6-.76.91-1.13c.09-.11.17-.22.26-.32l1-1.19.2-.24,1.08-1.24.15-.17c.2-.23.41-.45.62-.68l.63-.7.18-.19c.36-.39.73-.78,1.1-1.16l.43-.44.87-.89.4-.39c.75-.75,1.51-1.48,2.28-2.2l.22-.19c.84-.78,1.7-1.54,2.57-2.29l.65-.55q3.24-2.73,6.71-5.16l.54-.37c.85-.59,1.7-1.16,2.57-1.72l.3-.19,1.28-.81,1.17-.7.44-.26c.25-.16.51-.3.77-.45l.85-.49.21-.12,1.44-.79c.53-.29,1.07-.57,1.61-.85l0,0,1.26-.63.42-.21.73-.35,1-.46.18-.09c1.08-.49,2.17-1,3.27-1.43l1.6-.65L265,211c.52-.21,1-.4,1.56-.6l.21-.08,1.54-.55.25-.09,1.21-.41,1.23-.39a95.6,95.6,0,0,1,57.72,0l1.23.39a95.6,95.6,0,0,1,46.72,34l.83,1.14A95,95,0,0,1,395.29,299.86Z"/><path class="cls-23" d="M394.86,299.86H544.78a244.83,244.83,0,0,0-45.95-142.79h0l-1.68-2.31h0A244.6,244.6,0,0,0,376.89,67.39h0l-2.71-.88h0a244.72,244.72,0,0,0-148.65,0h0l-1.35.44h0l-.13,0-1.22.4h0a244.54,244.54,0,0,0-120.26,87.38h0l-.69,1-.15.2h0l-.83,1.15h0A244.83,244.83,0,0,0,55,299.87H204.86a94.56,94.56,0,0,1,17.71-55.22l.82-1.13.09-.13.64-.85.23-.3.9-1.16.91-1.13c.09-.11.17-.22.26-.32.32-.4.65-.79,1-1.18l.2-.24c.35-.42.71-.83,1.07-1.24l.15-.16.61-.68.63-.7.18-.19,1.09-1.16.43-.44.87-.88.4-.39c.74-.74,1.5-1.47,2.27-2.19l.22-.19c.84-.77,1.69-1.53,2.55-2.27l.66-.55c2.15-1.81,4.37-3.53,6.68-5.15l.53-.36c.85-.58,1.7-1.16,2.56-1.71l.3-.19,1.28-.8,1.16-.71.43-.26.77-.44.85-.49.21-.11c.47-.27,1-.53,1.43-.79s1.07-.57,1.61-.85l0,0,1.26-.63.42-.21.73-.34,1-.47.19-.08c1.07-.49,2.16-1,3.26-1.43l1.59-.64.15-.07,1.56-.59.21-.08,1.54-.55.24-.09,1.2-.4,1.23-.4a95.41,95.41,0,0,1,57.47,0l1.22.4a95.18,95.18,0,0,1,46.51,33.8l.83,1.14A94.52,94.52,0,0,1,394.86,299.86Z"/><path class="cls-24" d="M394.44,299.86H543.68a243.76,243.76,0,0,0-45.75-142.15h0l-1.67-2.29h0a243.67,243.67,0,0,0-119.72-87h0l-2.69-.88v0a243.57,243.57,0,0,0-148,0v0l-1.34.44h0l-.13,0-1.22.4h0a243.6,243.6,0,0,0-119.72,87h0l-.68.94-.15.2h0l-.83,1.14h0A243.66,243.66,0,0,0,56.05,299.87H205.29a94.12,94.12,0,0,1,17.63-55c.27-.38.54-.76.82-1.13l.09-.12c.21-.28.41-.57.63-.85l.23-.3c.29-.39.59-.78.9-1.16l.9-1.13.26-.31c.32-.4.65-.79,1-1.18l.2-.24c.35-.41.71-.82,1.07-1.22l.15-.17.61-.68.63-.69.18-.19,1.08-1.15.43-.44.86-.88.4-.39c.74-.73,1.49-1.46,2.26-2.17l.22-.2c.83-.77,1.68-1.52,2.54-2.26l.65-.55q3.21-2.7,6.65-5.12l.53-.36c.84-.58,1.69-1.15,2.55-1.7l.29-.19,1.28-.8c.38-.24.77-.47,1.16-.7.14-.09.28-.18.43-.26l.76-.44.85-.49.2-.11,1.43-.79,1.6-.84.05,0L258,215l.43-.21.72-.34,1-.46.19-.08c1.07-.5,2.15-1,3.24-1.43l1.59-.64.15-.06,1.55-.59.21-.08c.5-.19,1-.37,1.53-.55l.24-.08,1.2-.41,1.22-.39a94.77,94.77,0,0,1,57.21,0l1.22.39A94.89,94.89,0,0,1,376,243.75l.82,1.14A94.19,94.19,0,0,1,394.44,299.86Z"/><path class="cls-25" d="M394,299.86H542.58A242.58,242.58,0,0,0,497,158.35h0l-1.65-2.28h0A242.5,242.5,0,0,0,376.2,69.47h0l-2.69-.87h0a242.66,242.66,0,0,0-147.32,0h0l-1.34.43h0l-.12,0-1.21.39h0a242.43,242.43,0,0,0-119.18,86.6h0l-.68.94-.15.2h0l-.83,1.14h0A242.48,242.48,0,0,0,57.15,299.87H205.72a93.67,93.67,0,0,1,17.54-54.72l.82-1.13.09-.12c.21-.28.41-.56.63-.84l.23-.3c.29-.39.59-.77.89-1.16l.9-1.12c.09-.1.17-.21.25-.31l1-1.17.2-.24c.35-.41.7-.82,1.06-1.22a2.09,2.09,0,0,0,.14-.17l.62-.67.62-.69.18-.19,1.08-1.15.42-.43.87-.88c.12-.13.26-.26.39-.38.74-.74,1.49-1.46,2.25-2.17l.22-.19c.83-.77,1.67-1.52,2.53-2.26l.64-.54c2.13-1.79,4.34-3.5,6.63-5.1l.53-.36c.83-.58,1.67-1.14,2.53-1.69l.29-.19,1.27-.8,1.16-.69.42-.26.76-.44.85-.49.2-.11c.47-.26.94-.53,1.42-.78s1.06-.56,1.6-.84l0,0,1.24-.62.42-.21.72-.35,1-.45.19-.08c1.06-.5,2.14-1,3.22-1.42l1.58-.64.16-.06,1.54-.59.2-.08,1.53-.54.24-.09,1.19-.4,1.22-.4a94.54,94.54,0,0,1,56.95,0l1.21.4A94.27,94.27,0,0,1,375.64,244c.28.37.55.75.82,1.12A93.73,93.73,0,0,1,394,299.86Z"/><path class="cls-26" d="M393.58,299.86h147.9A241.6,241.6,0,0,0,496.15,159h0l-1.65-2.27h0a241.4,241.4,0,0,0-118.64-86.2v0l-2.67-.86h0a241.51,241.51,0,0,0-146.65,0h0l-1.33.43h0l-.12,0-1.21.4h0a241.37,241.37,0,0,0-118.65,86.2h0l-.68.94a1.43,1.43,0,0,0-.14.2h0l-.83,1.13h0A241.49,241.49,0,0,0,58.25,299.87H206.14a93.3,93.3,0,0,1,17.47-54.48l.81-1.12.09-.12c.21-.28.41-.56.63-.83l.22-.3.9-1.15c.29-.38.59-.75.89-1.12.09-.1.17-.21.25-.31l1-1.17c.07-.08.13-.16.2-.23.35-.41.7-.82,1.06-1.22l.14-.16.61-.68c.21-.22.41-.45.62-.68l.18-.19c.36-.38.71-.77,1.08-1.14l.42-.43c.28-.3.57-.59.86-.88l.39-.38c.73-.73,1.48-1.45,2.24-2.16l.21-.19c.83-.76,1.67-1.51,2.52-2.24l.65-.54q3.18-2.69,6.59-5.08l.53-.36c.83-.57,1.67-1.14,2.52-1.69l.29-.18,1.26-.8,1.15-.69c.15-.08.29-.17.43-.26l.76-.43.84-.49.2-.11,1.41-.78,1.59-.83.05,0,1.23-.62.42-.21.72-.34.95-.46.18-.08c1.06-.49,2.14-1,3.22-1.41.52-.21,1-.43,1.57-.63a.94.94,0,0,1,.15-.06c.51-.21,1-.4,1.54-.59l.2-.08,1.52-.54.24-.09,1.19-.4,1.2-.39a94.14,94.14,0,0,1,56.7,0l1.21.39a93.93,93.93,0,0,1,45.88,33.35l.82,1.12A93.29,93.29,0,0,1,393.58,299.86Z"/><path class="cls-27" d="M393.16,299.86H540.38a240.42,240.42,0,0,0-45.12-140.23h0l-1.64-2.26h0a240.23,240.23,0,0,0-118.1-85.81h0l-2.65-.87v0a240.17,240.17,0,0,0-146,0v0l-1.32.43h0l-.12,0-1.2.39h0a240.23,240.23,0,0,0-118.1,85.81h0l-.68.93-.15.2h0l-.82,1.13h0A240.34,240.34,0,0,0,59.34,299.87H206.57A92.86,92.86,0,0,1,224,245.63q.39-.56.81-1.11l.09-.12.61-.84c.08-.1.16-.19.23-.29l.89-1.15.89-1.11c.09-.1.17-.21.25-.31.32-.39.65-.78,1-1.16l.19-.24c.35-.4.7-.81,1.06-1.21l.14-.16c.2-.23.41-.45.61-.67s.41-.46.62-.68a1.54,1.54,0,0,1,.17-.19l1.07-1.14c.14-.14.29-.28.43-.43l.85-.87.39-.38c.73-.73,1.47-1.44,2.23-2.15l.21-.19c.83-.76,1.66-1.5,2.51-2.23l.64-.54c2.11-1.77,4.3-3.46,6.56-5.05l.53-.36c.83-.57,1.66-1.13,2.51-1.68l.29-.18,1.26-.79,1.14-.69.43-.26.75-.43.84-.48.2-.12,1.4-.77,1.58-.83.05,0,1.23-.62L259,216l.71-.34.95-.45.18-.08c1.06-.49,2.12-1,3.2-1.4l1.57-.64.15-.06c.5-.2,1-.39,1.53-.58l.2-.08,1.51-.54.24-.09,1.18-.39,1.2-.39a93.51,93.51,0,0,1,56.44,0l1.2.39A93.48,93.48,0,0,1,375,244.51l.81,1.12A92.84,92.84,0,0,1,393.16,299.86Z"/></g><path class="cls-28" d="M91.94,147l-1.76,2.42L218,242.24c.57-.82,1.16-1.63,1.76-2.43Z"/><path class="cls-28" d="M221.53,53.94l-2.85.92L267.5,205.1c.94-.32,1.89-.63,2.85-.92Z"/><path class="cls-28" d="M381,54.86l-2.85-.92L329.38,204.18c.95.29,1.9.6,2.85.92Z"/><path class="cls-28" d="M509.55,149.37l-1.77-2.43L380,239.81c.6.8,1.18,1.61,1.76,2.43Z"/></g><path class="cls-28" d="M93.81,245.11a4.57,4.57,0,0,1-1.17-.14A4.51,4.51,0,0,1,89.92,243a5.13,5.13,0,0,1-.57-1.33,5.81,5.81,0,0,1-.19-1.52,7.66,7.66,0,0,1,.06-1,6.92,6.92,0,0,1,.19-1,10.61,10.61,0,0,1,.35-1c.15-.36.32-.76.53-1.19l1.72.82c-.19.37-.34.7-.46,1s-.22.57-.3.83a5.43,5.43,0,0,0-.16.76,6,6,0,0,0,0,.75,3.66,3.66,0,0,0,.13,1,3.32,3.32,0,0,0,.36.86,2.58,2.58,0,0,0,1,.86,2.69,2.69,0,0,0,1.32.33h1.55a4.36,4.36,0,0,0,1.32-.17,1.77,1.77,0,0,0,.79-.48,1.68,1.68,0,0,0,.38-.74,4.1,4.1,0,0,0,.1-1v-5.13h1.9v5.13a4.15,4.15,0,0,1-1.12,3.18,4.73,4.73,0,0,1-3.37,1.06Zm-.15-10L95,233.75l1.41,1.41-1.39,1.38Z"/><path class="cls-28" d="M106.34,240.55a5.57,5.57,0,0,1-.39,1.89,4,4,0,0,1-2.4,2.35,5.54,5.54,0,0,1-1.93.32h-.94v-1.9h.94a4.76,4.76,0,0,0,1.27-.15,2.17,2.17,0,0,0,.87-.49,2.09,2.09,0,0,0,.51-.87,4.21,4.21,0,0,0,.17-1.31v-4.65h1.9Zm-2.41-8.11,1.37-1.38,1.41,1.4-1.39,1.39Z"/><path class="cls-28" d="M108.92,243.21c.4,0,.77,0,1.08,0a6.11,6.11,0,0,0,.85-.13,3.33,3.33,0,0,0,.65-.2,2.46,2.46,0,0,0,.48-.3,1.85,1.85,0,0,0,.49-.6,2.49,2.49,0,0,0,.19-.93h-1.17a5.12,5.12,0,0,1-.78-.06,3.16,3.16,0,0,1-.76-.21,3.29,3.29,0,0,1-.69-.38,2.46,2.46,0,0,1-.57-.59,2.7,2.7,0,0,1-.38-.82,3.88,3.88,0,0,1-.14-1.08,4.31,4.31,0,0,1,.09-.93,4.07,4.07,0,0,1,.23-.72,3.18,3.18,0,0,1,.32-.55c.12-.15.23-.29.34-.41a3.25,3.25,0,0,1,1-.7,3.1,3.1,0,0,1,1.25-.25,3.21,3.21,0,0,1,1.42.29,2.51,2.51,0,0,1,1,.79,3.36,3.36,0,0,1,.56,1.19,6.44,6.44,0,0,1,.17,1.5v2.7a4.66,4.66,0,0,1-.34,1.91,3.45,3.45,0,0,1-1,1.33,3.49,3.49,0,0,1-.76.48,4.51,4.51,0,0,1-.92.34,7.08,7.08,0,0,1-1.14.2,12.14,12.14,0,0,1-1.42.07Zm2.51-7a1.36,1.36,0,0,0-1,.4,1.81,1.81,0,0,0-.38,1.26,1.09,1.09,0,0,0,.14.57,1.17,1.17,0,0,0,.34.39,1.45,1.45,0,0,0,.47.22,2.24,2.24,0,0,0,.52.06h1.17v-1a3.3,3.3,0,0,0-.07-.75,1.69,1.69,0,0,0-.18-.51,1,1,0,0,0-.25-.33,1.06,1.06,0,0,0-.27-.18,1,1,0,0,0-.26-.08Z"/><path class="cls-28" d="M124.6,241l-.57,0-.57-.08c-.2,0-.39-.08-.6-.14l-.64-.18-.91-.27.55-1.83c.45.15.9.29,1.38.4a7.63,7.63,0,0,0,1.35.23l.39,0a3.37,3.37,0,0,0,.77-.09.71.71,0,0,0,.54-.42.32.32,0,0,0,0-.14.75.75,0,0,0,0-.17,1.15,1.15,0,0,0-.15-.29l-2.84-4.15,1.6-1,.52.8,0,0,.11.16.23.35.39.59.6.91c.24.35.52.78.85,1.28a3,3,0,0,1,.48,1.21c0,.11,0,.21,0,.31a2.2,2.2,0,0,1-.18.88,2,2,0,0,1-.35.56,2.76,2.76,0,0,1-.5.46,3.66,3.66,0,0,1-1.31.51A7.4,7.4,0,0,1,124.6,241Z"/><path class="cls-28" d="M130.3,243.21c.4,0,.76,0,1.08,0a6.11,6.11,0,0,0,.85-.13,3.56,3.56,0,0,0,.65-.2,2.8,2.8,0,0,0,.48-.3,1.85,1.85,0,0,0,.49-.6A2.71,2.71,0,0,0,134,241h-1.18a5.09,5.09,0,0,1-.77-.06,3.37,3.37,0,0,1-.77-.21,3.88,3.88,0,0,1-.69-.38,2.63,2.63,0,0,1-.56-.59,2.7,2.7,0,0,1-.38-.82,3.88,3.88,0,0,1-.14-1.08,4.31,4.31,0,0,1,.09-.93,4.07,4.07,0,0,1,.23-.72,3.18,3.18,0,0,1,.32-.55l.33-.41a3.4,3.4,0,0,1,1-.7,3.07,3.07,0,0,1,1.25-.25,3.24,3.24,0,0,1,1.42.29,2.51,2.51,0,0,1,1,.79,3.18,3.18,0,0,1,.55,1.19,5.93,5.93,0,0,1,.18,1.5v1h1.3V241h-1.31a4.29,4.29,0,0,1-.37,1.76,3.35,3.35,0,0,1-1,1.25,3.75,3.75,0,0,1-.76.48,4.51,4.51,0,0,1-.92.34,7.08,7.08,0,0,1-1.14.2,12.26,12.26,0,0,1-1.42.07Zm2.51-7a1.36,1.36,0,0,0-1,.4,1.81,1.81,0,0,0-.38,1.26,1.09,1.09,0,0,0,.13.57,1.2,1.2,0,0,0,.35.39,1.45,1.45,0,0,0,.47.22,2.22,2.22,0,0,0,.51.06H134v-1a3.3,3.3,0,0,0-.07-.75,2,2,0,0,0-.18-.51,1.1,1.1,0,0,0-.25-.33,1.57,1.57,0,0,0-.27-.18,1,1,0,0,0-.26-.08Z"/><path class="cls-28" d="M143.1,239.11V241h-.48a4,4,0,0,1-1.18-.17,2.5,2.5,0,0,1-.9-.52,2.62,2.62,0,0,1-1,.52,4.52,4.52,0,0,1-1.33.17h-1.35v-1.9h1.35a2.48,2.48,0,0,0,.74-.08,1,1,0,0,0,.42-.22.59.59,0,0,0,.19-.29,1.15,1.15,0,0,0,0-.31v-2.47h1.89v2.41a.87.87,0,0,0,.15.54,1,1,0,0,0,.35.29,1.51,1.51,0,0,0,.38.12h.74Zm-4.62,4.64,1.37-1.39,1.4,1.41-1.39,1.38Z"/><path class="cls-28" d="M147.82,234.44a3.22,3.22,0,0,1,1.37.28,2.87,2.87,0,0,1,1,.77,3.14,3.14,0,0,1,.6,1.11,4.8,4.8,0,0,1,.22,1.32,1.09,1.09,0,0,0,.55,1,1.39,1.39,0,0,0,.42.14,1.76,1.76,0,0,0,.28,0h.21V241h-.21a3.18,3.18,0,0,1-1-.15,3.91,3.91,0,0,1-.82-.4,2,2,0,0,1-.51.5,1.91,1.91,0,0,1-.55.28,2.59,2.59,0,0,1-.52.12l-.44,0a4.18,4.18,0,0,1-.72-.07,5,5,0,0,1-.7-.21,6.62,6.62,0,0,1-.73-.33c-.26-.13-.54-.27-.84-.44a2,2,0,0,1-.73.53,2.57,2.57,0,0,1-.92.15h-.94v-1.9h.95a.48.48,0,0,0,.29-.09.93.93,0,0,0,.23-.28,2.63,2.63,0,0,0,.19-.44q.09-.26.18-.57c.1-.36.22-.74.37-1.13a4,4,0,0,1,.57-1.06,2.83,2.83,0,0,1,.89-.79A2.63,2.63,0,0,1,147.82,234.44Zm.66,5.13.22,0a.56.56,0,0,0,.3-.16,1.17,1.17,0,0,0,.27-.42,2.16,2.16,0,0,0,.12-.81,2.21,2.21,0,0,0-.08-.5,1.88,1.88,0,0,0-.25-.61,1.75,1.75,0,0,0-.48-.5,1.29,1.29,0,0,0-.76-.21.88.88,0,0,0-.64.24,2,2,0,0,0-.43.59,5.09,5.09,0,0,0-.29.75c-.08.28-.16.52-.25.75l.6.32a5.75,5.75,0,0,0,.62.29,6,6,0,0,0,.57.22A1.84,1.84,0,0,0,148.48,239.57Z"/><path class="cls-28" d="M152.15,241v-1.9h4.79a1.52,1.52,0,0,0,.42-.06,1.18,1.18,0,0,0,.36-.14.32.32,0,0,0,.14-.27,1.83,1.83,0,0,0-.24-.79,8.59,8.59,0,0,0-.64-1,13.52,13.52,0,0,0-.87-1.06l-1-1c-.32-.31-.62-.6-.9-.84s-.5-.43-.67-.55l.15-1.72,6.63-3,.7,1.67-5.58,2.46.65.64c.24.24.49.49.74.76s.51.54.76.83.49.57.71.86.42.57.59.84a6,6,0,0,1,.41.78,3.9,3.9,0,0,1,.18.62,3.74,3.74,0,0,1,0,.54,2.73,2.73,0,0,1,0,.53,2.54,2.54,0,0,1-.13.39,3.19,3.19,0,0,1-.28.47,2.27,2.27,0,0,1-.53.48,3.47,3.47,0,0,1-.86.37,4.48,4.48,0,0,1-1.24.15Z"/><path class="cls-28" d="M105.18,259.77l4.84,1.84v2l-6.86-3.06V259l6.86-3v2Z"/><path class="cls-28" d="M118.2,265.05V264c0-.12,0-.23,0-.33h0c0-.24,0-.49,0-.75s0-.54,0-.83c0-.56,0-1.14,0-1.74s0-1.22-.11-1.87-.16-1.32-.29-2a16,16,0,0,0-.54-2.17l1.78-.57a22,22,0,0,1,.61,2.38c.14.76.25,1.48.32,2.18s.11,1.36.12,2,0,1.25,0,1.83V263c0,.26,0,.52,0,.76s0,.21,0,.33v1Z"/><path class="cls-28" d="M128.33,258.83a21,21,0,0,0,1.32,3.07,14.09,14.09,0,0,0,1.59,2.42l-1.47,1.22a10.72,10.72,0,0,1-.9-1.29c-.3-.5-.59-1-.88-1.65s-.58-1.25-.86-2-.55-1.45-.83-2.24c-.21.64-.45,1.29-.71,2s-.54,1.33-.83,2-.61,1.22-.93,1.78a10.61,10.61,0,0,1-1,1.42l-1.49-1.21a8.47,8.47,0,0,0,.8-1.1c.27-.41.52-.86.77-1.33s.49-1,.71-1.49.44-1,.63-1.57.28-.88.42-1.33.24-.88.34-1.3.17-.81.23-1.17a6.26,6.26,0,0,0,.09-1h1.89a7.31,7.31,0,0,0,.08,1c.05.37.13.75.22,1.16s.21.83.34,1.27S128.17,258.37,128.33,258.83Z"/><path class="cls-28" d="M134,262.7a1.26,1.26,0,0,1,.93.33,1.2,1.2,0,0,1,.32.84,1.13,1.13,0,0,1-.32.83,1.26,1.26,0,0,1-.93.33,1.24,1.24,0,0,1-.89-.32,1.11,1.11,0,0,1-.34-.84,1.17,1.17,0,0,1,.33-.84A1.19,1.19,0,0,1,134,262.7Z"/><path class="cls-28" d="M140.75,253.25l.31.24.66.57q.41.34.9.84c.33.32.67.68,1,1.08a14.36,14.36,0,0,1,1,1.27,11.6,11.6,0,0,1,.87,1.43,8.42,8.42,0,0,1,.61,1.53,5.91,5.91,0,0,1,.23,1.61,4.37,4.37,0,0,1-.1.94,3.37,3.37,0,0,1-.26.74,2.39,2.39,0,0,1-.35.54,2.62,2.62,0,0,1-.38.37,2.35,2.35,0,0,1-.86.48,3,3,0,0,1-1,.16,3.1,3.1,0,0,1-.92-.13,2.41,2.41,0,0,1-.83-.45,2.82,2.82,0,0,1-.82.44,2.69,2.69,0,0,1-.91.16,3,3,0,0,1-.73-.09,3,3,0,0,1-.7-.26,3.2,3.2,0,0,1-.61-.43,2.92,2.92,0,0,1-.49-.61,2.7,2.7,0,0,1-.28-.6,5.48,5.48,0,0,1-.16-.56q0-.25-.06-.45c0-.12,0-.22,0-.28a5.81,5.81,0,0,1,.17-1.39,8,8,0,0,1,.43-1.31,9.65,9.65,0,0,1,.61-1.2c.23-.38.47-.73.71-1.06s.48-.62.72-.89.45-.51.63-.71l-.56-.46Zm3.3,9.69a1.46,1.46,0,0,0,.35-.45,1.54,1.54,0,0,0,.14-.67,3.67,3.67,0,0,0-.14-1,5.49,5.49,0,0,0-.35-1,8.14,8.14,0,0,0-.53-.95c-.21-.31-.42-.62-.65-.91s-.46-.58-.69-.85l-.69-.77-.55.63c-.2.24-.41.5-.62.78a10,10,0,0,0-.6.9,9.41,9.41,0,0,0-.53,1,8.06,8.06,0,0,0-.37,1,4.35,4.35,0,0,0-.14,1.06,1.54,1.54,0,0,0,.09.52,1.7,1.7,0,0,0,.24.44,1.14,1.14,0,0,0,.37.32.89.89,0,0,0,.45.12,1.63,1.63,0,0,0,.36-.05.8.8,0,0,0,.34-.18.69.69,0,0,0,.22-.34,1.31,1.31,0,0,0,.07-.44,3.71,3.71,0,0,0,0-.47q0-.22-.06-.42l1.84-.35a.1.1,0,0,0,0,0s0,.07,0,.14,0,.16,0,.27,0,.26,0,.44V262c0,.09,0,.19,0,.3s0,.24,0,.37a.71.71,0,0,0,.34.41,1,1,0,0,0,.49.13,1,1,0,0,0,.33-.06A.87.87,0,0,0,144.05,262.94Z"/><path class="cls-28" d="M151.07,131.09l.44,2.19a1,1,0,0,0,.17.43,1,1,0,0,0,.26.27,1.23,1.23,0,0,0,.31.14l.31,0h.26l.17,0,.46-.09.37,1.87-.46.09a4.58,4.58,0,0,1-.55.07,3,3,0,0,1-.6,0,2.51,2.51,0,0,1-.6-.1,1.87,1.87,0,0,1-.54-.23,3.48,3.48,0,0,1-2.08,1.13l-8.63,1.71a3,3,0,0,1-1.08,0,2.72,2.72,0,0,1-1-.38c-.11-.07-.24-.17-.38-.28a2.25,2.25,0,0,1-.38-.42,3.53,3.53,0,0,1-.33-.58,3.68,3.68,0,0,1-.24-.77,5,5,0,0,1-.09-.82c0-.31,0-.59,0-.86s0-.51,0-.71,0-.33,0-.37l1,.1.94.1c0,.15,0,.32-.05.52s0,.39,0,.6,0,.41,0,.6a2.31,2.31,0,0,0,0,.49,1.46,1.46,0,0,0,.21.56.91.91,0,0,0,.32.28.88.88,0,0,0,.34.1,1.45,1.45,0,0,0,.32,0l8.56-1.7a3,3,0,0,0,.69-.22,1,1,0,0,0,.39-.32.81.81,0,0,0,.06-.59l-.49-2.46Zm-7,9.46,1.08-1.63,1.64,1.11-1.08,1.63Z"/><path class="cls-28" d="M159.3,134.81a3.21,3.21,0,0,1-2.31-.28,2.56,2.56,0,0,1-.8.74,3.26,3.26,0,0,1-1,.37l-1.68.34-.37-1.86,1.68-.34.25-.08a.85.85,0,0,0,.31-.21,1.09,1.09,0,0,0,.22-.4,1.31,1.31,0,0,0,0-.66l-.43-2.16,1.86-.37.42,2.13a1.23,1.23,0,0,0,.47.83,1.33,1.33,0,0,0,1,.09,1,1,0,0,0,.25-.08.92.92,0,0,0,.53-.64,1.18,1.18,0,0,0,0-.65l-.42-2.13,1.85-.36.43,2.12a1.23,1.23,0,0,0,.47.84,1.38,1.38,0,0,0,1,.1l.26-.1a.89.89,0,0,0,.3-.23,1.06,1.06,0,0,0,.21-.41,1.41,1.41,0,0,0,0-.65c0-.11-.06-.24-.11-.39l-.16-.48c-.07-.16-.13-.33-.2-.5l-.21-.49c-.06-.15-.13-.29-.18-.41l-.14-.29,1.64-.93.11.23c0,.12.12.27.2.44s.16.37.25.59l.26.65c.08.22.15.44.22.65s.12.4.16.56a3.43,3.43,0,0,1,0,1.39,2.93,2.93,0,0,1-.47,1.08,2.66,2.66,0,0,1-.79.74,3,3,0,0,1-1,.4,3.17,3.17,0,0,1-2.34-.29,2.77,2.77,0,0,1-.8.73A3.2,3.2,0,0,1,159.3,134.81Z"/><path class="cls-28" d="M172,132.29a8.31,8.31,0,0,1-1.43.18,4.07,4.07,0,0,1-1.05-.1,1.9,1.9,0,0,1-.75-.38,2.15,2.15,0,0,1-.51-.64,4.69,4.69,0,0,1-.36-.9q-.13-.51-.27-1.14l-1.41-7.08,1.86-.37,1.41,7.08a8.06,8.06,0,0,0,.24.95,1,1,0,0,0,.32.51,1,1,0,0,0,.59.16,7.09,7.09,0,0,0,1-.13Z"/><path class="cls-28" d="M177.51,129.26l.37,1.87-.47.09a4.05,4.05,0,0,1-1.19.06,2.48,2.48,0,0,1-1-.34,2.73,2.73,0,0,1-.88.72,4.81,4.81,0,0,1-1.28.42l-1.32.27-.37-1.87,1.32-.26a2.65,2.65,0,0,0,.72-.23.93.93,0,0,0,.36-.3.59.59,0,0,0,.13-.32,1.56,1.56,0,0,0,0-.31l-.48-2.42,1.85-.37.47,2.37a.89.89,0,0,0,.26.5,1.06,1.06,0,0,0,.39.21,1.13,1.13,0,0,0,.4,0l.26,0Zm-5.65-5.89,1.08-1.63,1.65,1.1-1.09,1.63Z"/><path class="cls-28" d="M181.21,123.76a3.11,3.11,0,0,1,1.43,0,2.85,2.85,0,0,1,1.13.59,3.27,3.27,0,0,1,.8,1,4.79,4.79,0,0,1,.46,1.3,5.76,5.76,0,0,1,.13,1.35,3.3,3.3,0,0,1-.18,1,1.76,1.76,0,0,1-.38.66,2.11,2.11,0,0,1-.5.42,2.66,2.66,0,0,1-.52.24,4,4,0,0,1-.44.11,3.06,3.06,0,0,1-.73.07,4.56,4.56,0,0,1-.72-.06,6.77,6.77,0,0,1-.79-.18L180,130a2.19,2.19,0,0,1-.62.66,2.55,2.55,0,0,1-.87.33l-.92.18-.39-1.86.94-.18a.47.47,0,0,0,.27-.16,1,1,0,0,0,.17-.31,2.56,2.56,0,0,0,.1-.47c0-.18,0-.37.07-.59,0-.38.07-.77.13-1.18a4.28,4.28,0,0,1,.35-1.15,2.79,2.79,0,0,1,.73-1A2.64,2.64,0,0,1,181.21,123.76Zm1.65,4.91.21-.07a.65.65,0,0,0,.26-.22,1.21,1.21,0,0,0,.18-.47,2.11,2.11,0,0,0,0-.81,2.62,2.62,0,0,0-.17-.49,2.31,2.31,0,0,0-.36-.54,1.78,1.78,0,0,0-.57-.4,1.38,1.38,0,0,0-.79,0,.94.94,0,0,0-.59.35,2.22,2.22,0,0,0-.3.66,5,5,0,0,0-.13.8,7.71,7.71,0,0,1-.11.78c.21.07.42.14.65.2a6,6,0,0,0,.67.17,5,5,0,0,0,.6.1A2,2,0,0,0,182.86,128.67Z"/><path class="cls-28" d="M197.56,131.39a4.6,4.6,0,0,1-2.3-.11,4.51,4.51,0,0,1-1-.46,4.13,4.13,0,0,1-.89-.72,5.06,5.06,0,0,1-.82-1.18,6.43,6.43,0,0,1-.49-1.46,8.34,8.34,0,0,1-.13-1,8.17,8.17,0,0,1,0-1c0-.34.07-.7.14-1.08s.17-.81.29-1.27l1.84.46c-.1.4-.19.76-.25,1.07s-.1.61-.13.88a5,5,0,0,0,0,.77,5.11,5.11,0,0,0,.1.76,3.43,3.43,0,0,0,.32.95,3.58,3.58,0,0,0,.52.77,2.72,2.72,0,0,0,2.47.72l1.52-.3a4.62,4.62,0,0,0,1.26-.42,1.82,1.82,0,0,0,.68-.63,1.66,1.66,0,0,0,.23-.8,4.09,4.09,0,0,0-.09-1l-1-5,1.87-.37,1,5a4.18,4.18,0,0,1-.48,3.34,4.75,4.75,0,0,1-3.1,1.7Zm-2.09-9.75,1.07-1.63,1.65,1.1-1.09,1.63Z"/><path class="cls-28" d="M209,124.47a5.93,5.93,0,0,1,0,1.93,4.24,4.24,0,0,1-.65,1.59,4.16,4.16,0,0,1-1.25,1.18,5.53,5.53,0,0,1-1.83.69l-.93.18-.37-1.86.93-.18a4.77,4.77,0,0,0,1.21-.4,2,2,0,0,0,.76-.65,1.94,1.94,0,0,0,.34-1,4.75,4.75,0,0,0-.09-1.31l-.91-4.55,1.86-.38ZM205,117l1.08-1.63,1.65,1.1-1.09,1.63Z"/><path class="cls-28" d="M212,126.57c.4-.08.76-.16,1.06-.25a6.76,6.76,0,0,0,.81-.29,3.56,3.56,0,0,0,.59-.32,2,2,0,0,0,.78-1.08,2.63,2.63,0,0,0,0-.94l-1.15.23a4.9,4.9,0,0,1-.78.09,3.46,3.46,0,0,1-.79-.06,3.28,3.28,0,0,1-.75-.24,2.67,2.67,0,0,1-.67-.46,2.92,2.92,0,0,1-.53-.73,4.46,4.46,0,0,1-.44-2,3.38,3.38,0,0,1,.08-.75,3.25,3.25,0,0,1,.21-.6,4.77,4.77,0,0,1,.25-.46,3.28,3.28,0,0,1,.88-.9,3,3,0,0,1,1.17-.48,3.26,3.26,0,0,1,1.46,0,2.59,2.59,0,0,1,1.1.58,3.37,3.37,0,0,1,.77,1.06,6.08,6.08,0,0,1,.47,1.44l.53,2.65a4.77,4.77,0,0,1,0,2,3.45,3.45,0,0,1-.76,1.5,4.32,4.32,0,0,1-.66.62,5.09,5.09,0,0,1-.83.51,6.76,6.76,0,0,1-1.08.42,12.32,12.32,0,0,1-1.39.34Zm1.1-7.35a1.31,1.31,0,0,0-.92.59,1.78,1.78,0,0,0-.13,1.31,1.12,1.12,0,0,0,.24.54,1.24,1.24,0,0,0,.41.31,1.41,1.41,0,0,0,.5.12,1.77,1.77,0,0,0,.52,0l1.16-.22-.21-1a2.94,2.94,0,0,0-.21-.72,2.24,2.24,0,0,0-.27-.47,1.12,1.12,0,0,0-.32-.27,1.3,1.3,0,0,0-.3-.13.84.84,0,0,0-.27,0Z"/><path class="cls-28" d="M146.25,150.43s.08.14.16.3a4.6,4.6,0,0,1,.27.58c.1.23.19.47.29.74s.16.52.22.77a3.43,3.43,0,0,1,0,1.39,3,3,0,0,1-.47,1.07,2.69,2.69,0,0,1-.81.73,3.34,3.34,0,0,1-1.95.44,3.37,3.37,0,0,1-.85-.17c.13.42.25.85.36,1.27s.21.87.32,1.35.21,1,.33,1.54.23,1.17.36,1.85l-1.84.37-.36-1.81c-.11-.59-.25-1.21-.39-1.86s-.34-1.33-.55-2-.49-1.44-.8-2.2a21.08,21.08,0,0,0-1.14-2.36l1.66-.92.49.85.19.33a5,5,0,0,0,.34.5,5.59,5.59,0,0,0,.46.55,3.93,3.93,0,0,0,.58.5,2.4,2.4,0,0,0,.67.31,1.61,1.61,0,0,0,.76,0l.25-.08a1,1,0,0,0,.31-.22,1,1,0,0,0,.22-.4,1.31,1.31,0,0,0,0-.66c0-.15-.08-.32-.14-.49s-.13-.35-.2-.52-.15-.31-.22-.46l-.19-.36Z"/><path class="cls-28" d="M155.48,152.79l.41-.09.4-.09.42-.13.46-.16.75,1.59c-.24.13-.48.24-.71.34s-.47.2-.71.28-.52.16-.8.23-.6.15-1,.22a10.57,10.57,0,0,1-1.61.2,6.15,6.15,0,0,1-1.61-.13c.11.4.21.76.29,1.09s.17.64.24.94.14.59.2.87.12.58.18.88.09.42.13.64.08.45.13.71l.09.46-1.85.37-.09-.47-.42-2q-.21-1-.42-1.8c-.14-.57-.28-1.1-.44-1.61s-.32-1-.5-1.49-.39-1-.61-1.42-.48-.95-.75-1.43l1.68-.93.37.73c.12.24.24.49.35.74s.14.28.2.42.13.29.2.43a2.11,2.11,0,0,0,.59.78,1.87,1.87,0,0,0,.73.37l-.15-.22q-.07-.12-.15-.27c-.05-.1-.09-.22-.14-.34a3.83,3.83,0,0,1-.11-.43,2.85,2.85,0,0,1,0-1.27,2.91,2.91,0,0,1,.52-1,3,3,0,0,1,.86-.76,3.45,3.45,0,0,1,1.05-.4,2.92,2.92,0,0,1,.82-.06,4.52,4.52,0,0,1,.75.12,5.44,5.44,0,0,1,.68.23l.63.25-.57,1.76-.55-.24a2.79,2.79,0,0,0-.5-.15,2.57,2.57,0,0,0-.46-.07,2.1,2.1,0,0,0-.43,0h0a1.21,1.21,0,0,0-.41.15,1.3,1.3,0,0,0-.63.7.94.94,0,0,0,0,.5,1.3,1.3,0,0,0,.34.67,1.55,1.55,0,0,0,.61.35,2.37,2.37,0,0,0,.76.09A5.15,5.15,0,0,0,155.48,152.79Z"/><path class="cls-28" d="M161.44,156.51a1.22,1.22,0,0,1,1,.15,1.11,1.11,0,0,1,.48.76,1.13,1.13,0,0,1-.15.87,1.27,1.27,0,0,1-.85.51,1.24,1.24,0,0,1-.94-.15,1.11,1.11,0,0,1-.49-.75,1.19,1.19,0,0,1,.15-.89A1.24,1.24,0,0,1,161.44,156.51Z"/><path class="cls-28" d="M169.73,157.72a6.91,6.91,0,0,1-.48-1c-.15-.39-.31-.82-.46-1.29s-.29-.95-.42-1.47-.27-1-.39-1.54l-1.07.21a4.79,4.79,0,0,1-1.14.09,2.87,2.87,0,0,1-1.09-.27,2.59,2.59,0,0,1-.9-.73,3.12,3.12,0,0,1-.54-1.29,3.94,3.94,0,0,1-.05-1.44,2.87,2.87,0,0,1,.42-1.16,2.8,2.8,0,0,1,.84-.84,3.48,3.48,0,0,1,1.19-.46,3.07,3.07,0,0,1,1.35,0,2.69,2.69,0,0,1,1.06.55,3.22,3.22,0,0,1,.77,1,5,5,0,0,1,.46,1.34c.19.95.38,1.82.57,2.62s.36,1.5.54,2.12.34,1.14.5,1.57a5.25,5.25,0,0,0,.44,1Zm-2.14-7.11c0-.15-.07-.29-.1-.42s-.05-.26-.07-.37a2.42,2.42,0,0,0-.31-.87,1.52,1.52,0,0,0-.41-.45.9.9,0,0,0-.41-.15.86.86,0,0,0-.29,0,1.3,1.3,0,0,0-.5.19,1,1,0,0,0-.36.36,1.15,1.15,0,0,0-.19.51,2.31,2.31,0,0,0,0,.68.82.82,0,0,0,.24.45.93.93,0,0,0,.41.23,1.49,1.49,0,0,0,.47.07,1.94,1.94,0,0,0,.44,0Z"/><path class="cls-28" d="M181.85,154.85a8.31,8.31,0,0,1-1.43.18,3.71,3.71,0,0,1-1-.1,1.9,1.9,0,0,1-.75-.38,2.32,2.32,0,0,1-.51-.64,4.69,4.69,0,0,1-.36-.9q-.13-.51-.27-1.14l-1.41-7.08,1.87-.37,1.41,7.08a8.35,8.35,0,0,0,.23.95,1,1,0,0,0,.33.51.91.91,0,0,0,.58.16,6.91,6.91,0,0,0,1-.13Z"/><path class="cls-28" d="M181.74,146.83l-1.51-1,1-1.53,1.55,1Zm4.12.69a1.7,1.7,0,0,1,.11.23l.21.46c.07.18.16.38.25.6s.17.44.25.67.16.44.23.65.11.41.14.57a3.27,3.27,0,0,1,0,1.39,2.94,2.94,0,0,1-.48,1.06,2.86,2.86,0,0,1-.82.73,3.19,3.19,0,0,1-1,.39l-3.22.64-.37-1.86,3.27-.66.25-.07a.78.78,0,0,0,.31-.21,1,1,0,0,0,.23-.4,1.28,1.28,0,0,0,0-.65c0-.11-.06-.24-.1-.39s-.11-.32-.17-.49l-.21-.53-.22-.51c-.07-.16-.13-.31-.2-.44l-.14-.3Zm-1-1.32-1.51-1,1-1.53,1.54,1Z"/><path class="cls-28" d="M195.09,152.21q0-.14-.06-.3c0-.12-.05-.24-.07-.36s-.05-.25-.07-.37,0-.23-.06-.33h0c-.05-.24-.09-.49-.14-.75s-.1-.53-.16-.81c-.11-.55-.23-1.12-.36-1.7s-.28-1.19-.47-1.82-.41-1.26-.67-1.92a20,20,0,0,0-.95-2l1.63-.91a23,23,0,0,1,1.05,2.21c.3.72.54,1.41.75,2.08s.37,1.31.51,1.93.26,1.22.38,1.79c.05.28.11.56.16.82s.09.51.13.75,0,.21.06.33,0,.24.07.36l.06.34c0,.11,0,.21.06.29Z"/><path class="cls-28" d="M203.81,144.13a20.6,20.6,0,0,0,1.9,2.76,14.18,14.18,0,0,0,2,2.06l-1.2,1.48a9.56,9.56,0,0,1-1.14-1.09c-.39-.43-.79-.91-1.19-1.44s-.81-1.12-1.22-1.75-.82-1.31-1.25-2c-.08.66-.19,1.35-.31,2.06s-.27,1.4-.44,2.08-.35,1.32-.56,1.92a10,10,0,0,1-.69,1.59l-1.69-.89a9.67,9.67,0,0,0,.57-1.24c.18-.46.34-.94.49-1.46s.29-1.05.41-1.6.23-1.1.31-1.65.11-.93.15-1.39.07-.91.08-1.34,0-.83,0-1.2a6.79,6.79,0,0,0-.11-1l1.86-.37a6.79,6.79,0,0,0,.27,1c.12.35.27.71.44,1.09s.37.77.59,1.18S203.56,143.71,203.81,144.13Z"/><path class="cls-28" d="M210.1,146.83a1.2,1.2,0,0,1,1,.14,1.18,1.18,0,0,1,.49.76,1.16,1.16,0,0,1-.16.88,1.24,1.24,0,0,1-.84.5,1.19,1.19,0,0,1-.94-.14,1.1,1.1,0,0,1-.49-.76,1.12,1.12,0,0,1,.15-.88A1.18,1.18,0,0,1,210.1,146.83Z"/><path class="cls-28" d="M214.9,136.23l.35.18c.2.1.46.24.77.42s.66.4,1,.66.79.54,1.21.86.82.67,1.22,1.05a11,11,0,0,1,1.13,1.23,8.25,8.25,0,0,1,.9,1.39,6.07,6.07,0,0,1,.54,1.53,4,4,0,0,1,0,1.71,2.35,2.35,0,0,1-.24.6,3.35,3.35,0,0,1-.3.44,2.56,2.56,0,0,1-.75.64,2.83,2.83,0,0,1-.93.35,3.27,3.27,0,0,1-.93.05,2.59,2.59,0,0,1-.91-.28,2.73,2.73,0,0,1-.71.6,2.93,2.93,0,0,1-.86.33,3.54,3.54,0,0,1-.73,0,3.09,3.09,0,0,1-.74-.12,2.66,2.66,0,0,1-.69-.31,2.7,2.7,0,0,1-.59-.49,3.13,3.13,0,0,1-.4-.54,3.6,3.6,0,0,1-.26-.52,4.45,4.45,0,0,1-.15-.42,2.17,2.17,0,0,1-.07-.27,6.06,6.06,0,0,1-.11-1.4,7.66,7.66,0,0,1,.17-1.37,9.23,9.23,0,0,1,.36-1.3c.16-.41.32-.8.49-1.17s.35-.71.53-1,.34-.58.49-.81l-.65-.35ZM220,145.1a1.32,1.32,0,0,0,.25-.52,1.41,1.41,0,0,0,0-.68A3.8,3.8,0,0,0,220,143a5.78,5.78,0,0,0-.54-.88,7.9,7.9,0,0,0-.71-.84c-.26-.26-.53-.52-.8-.76s-.57-.48-.85-.7-.56-.43-.83-.62l-.41.73c-.16.27-.31.56-.46.88s-.29.65-.42,1a10.77,10.77,0,0,0-.31,1.07,6,6,0,0,0-.16,1.1,4.15,4.15,0,0,0,.06,1.06,1.61,1.61,0,0,0,.19.49,1.76,1.76,0,0,0,.32.39,1.27,1.27,0,0,0,.42.24,1,1,0,0,0,.48,0,1.34,1.34,0,0,0,.33-.12.79.79,0,0,0,.31-.24.73.73,0,0,0,.14-.38,1.71,1.71,0,0,0,0-.45,3.74,3.74,0,0,0-.12-.45c0-.14-.1-.28-.15-.4l1.74-.7,0,0,0,.13c0,.06.05.15.08.26s.06.25.11.43l0,.12a1.92,1.92,0,0,1,0,.29,2.3,2.3,0,0,1,0,.38.8.8,0,0,0,.43.33,1,1,0,0,0,.49,0,1,1,0,0,0,.32-.12A1.09,1.09,0,0,0,220,145.1Z"/><path class="cls-28" d="M274.55,97.88V96h3.27a5.59,5.59,0,0,0,1.43-.15,1.59,1.59,0,0,0,.83-.49,1.86,1.86,0,0,0,.4-.91,7.77,7.77,0,0,0,.1-1.39V86.89h1.89V93c0,.3,0,.61,0,.92s-.07.63-.13.94a5.73,5.73,0,0,1-.28.89,3.27,3.27,0,0,1-.46.79,3.31,3.31,0,0,1-1.48,1,6.76,6.76,0,0,1-2.27.33Zm.91-3.16L275,87.18l1.88-.22.5,7.76Z"/><path class="cls-28" d="M288.68,97.88a8.54,8.54,0,0,1-1.44-.1,3.62,3.62,0,0,1-1-.31,1.89,1.89,0,0,1-.66-.51,2.19,2.19,0,0,1-.37-.73,4.33,4.33,0,0,1-.18-1c0-.36,0-.75,0-1.17V86.89h1.9v7.22a8.47,8.47,0,0,0,0,1,1,1,0,0,0,.22.57.87.87,0,0,0,.54.27,6.64,6.64,0,0,0,1,.06Z"/><path class="cls-28" d="M292.78,91.48s0,.12.06.25.07.29.11.48.09.41.13.64l.12.7q.06.36.09.69a4.48,4.48,0,0,1,0,.59,3.33,3.33,0,0,1-.26,1.36,2.69,2.69,0,0,1-.68,1,2.73,2.73,0,0,1-.94.56,3.22,3.22,0,0,1-1.05.18h-2V96h2.08l.27,0a.91.91,0,0,0,.34-.15,1,1,0,0,0,.3-.34,1.3,1.3,0,0,0,.13-.64,3.43,3.43,0,0,0,0-.41c0-.16,0-.33-.07-.51s-.06-.37-.1-.56-.08-.37-.11-.54-.07-.33-.11-.47S291,92.09,291,92Zm-3.33,9,1.37-1.38,1.4,1.4-1.39,1.39Z"/><path class="cls-28" d="M304.35,102a4.93,4.93,0,0,1-1.17-.14,5.51,5.51,0,0,1-1.07-.41,4.56,4.56,0,0,1-.92-.66,4.12,4.12,0,0,1-.73-.88,4.63,4.63,0,0,1-.57-1.32,5.81,5.81,0,0,1-.2-1.52,7.82,7.82,0,0,1,.06-1,7.15,7.15,0,0,1,.2-1,8.49,8.49,0,0,1,.35-1c.14-.36.32-.76.53-1.19l1.71.82q-.27.55-.45,1t-.3.84a4.39,4.39,0,0,0-.16.75,4.77,4.77,0,0,0-.05.76,3.66,3.66,0,0,0,.13,1,3.23,3.23,0,0,0,.35.85,2.73,2.73,0,0,0,2.29,1.19h1.55a4.28,4.28,0,0,0,1.31-.16,1.8,1.8,0,0,0,.79-.48,1.65,1.65,0,0,0,.39-.74,4.1,4.1,0,0,0,.1-1V92.61h1.9v5.13a4.16,4.16,0,0,1-1.12,3.18A4.75,4.75,0,0,1,305.9,102Zm-.15-10,1.37-1.39L307,92l-1.38,1.38Z"/><path class="cls-28" d="M316.88,97.42a5.57,5.57,0,0,1-.39,1.89,4.21,4.21,0,0,1-.95,1.43,4.09,4.09,0,0,1-1.45.92,5.54,5.54,0,0,1-1.93.32h-1v-1.9h1a4.24,4.24,0,0,0,1.26-.16,2,2,0,0,0,.88-.48,2.07,2.07,0,0,0,.51-.88,4.41,4.41,0,0,0,.17-1.3V92.61h1.9Zm-2.41-8.11,1.37-1.39,1.4,1.41-1.38,1.38Z"/><path class="cls-28" d="M319.45,100.08c.41,0,.77,0,1.09,0a6.11,6.11,0,0,0,.85-.13,3.56,3.56,0,0,0,.65-.2,2.8,2.8,0,0,0,.48-.3,1.85,1.85,0,0,0,.48-.61,2.37,2.37,0,0,0,.2-.92H322a5.09,5.09,0,0,1-.77-.06,3.37,3.37,0,0,1-.77-.21,3.88,3.88,0,0,1-.69-.38,2.63,2.63,0,0,1-.56-.59,2.7,2.7,0,0,1-.38-.82,3.54,3.54,0,0,1-.14-1.08,4.31,4.31,0,0,1,.09-.93,3.59,3.59,0,0,1,.23-.72,3.18,3.18,0,0,1,.32-.55c.11-.16.23-.29.33-.41a3.29,3.29,0,0,1,1-.7,3.07,3.07,0,0,1,1.25-.25,3.24,3.24,0,0,1,1.42.28,2.7,2.7,0,0,1,1,.79,3.31,3.31,0,0,1,.55,1.2,5.93,5.93,0,0,1,.18,1.5v2.7a4.84,4.84,0,0,1-.34,1.91,3.45,3.45,0,0,1-1.05,1.33,4.24,4.24,0,0,1-.76.48,5.5,5.5,0,0,1-.92.34,7.08,7.08,0,0,1-1.14.2c-.42,0-.9.07-1.43.07Zm2.52-7a1.34,1.34,0,0,0-1,.4,1.81,1.81,0,0,0-.38,1.26,1.14,1.14,0,0,0,.13.57,1.2,1.2,0,0,0,.35.39,1.26,1.26,0,0,0,.47.21A1.79,1.79,0,0,0,322,96h1.18V95a3.3,3.3,0,0,0-.07-.75,2.51,2.51,0,0,0-.18-.51,1.1,1.1,0,0,0-.25-.33,1.31,1.31,0,0,0-.28-.18.81.81,0,0,0-.25-.08A.79.79,0,0,0,322,93.08Z"/><path class="cls-28" d="M272.55,110.64s.05.15.1.33.1.38.15.62.1.5.14.78a5.46,5.46,0,0,1,.06.79,3.38,3.38,0,0,1-.26,1.37,2.9,2.9,0,0,1-.67,1,2.59,2.59,0,0,1-.94.56,2.9,2.9,0,0,1-1,.19,3.12,3.12,0,0,1-.95-.13,3.23,3.23,0,0,1-.81-.34c.05.45.08.88.11,1.32s0,.9.05,1.39,0,1,0,1.57v1.89h-1.88v-1.84c0-.6,0-1.24,0-1.91s-.06-1.37-.14-2.1a23.36,23.36,0,0,0-.35-2.32,21,21,0,0,0-.65-2.53l1.8-.58.32.93q0,.11.12.36c.06.16.14.35.24.56a6.64,6.64,0,0,0,.34.63,3.8,3.8,0,0,0,.47.59,2.62,2.62,0,0,0,.6.45,1.64,1.64,0,0,0,.74.17l.26,0a.85.85,0,0,0,.34-.15.91.91,0,0,0,.3-.36,1.27,1.27,0,0,0,.13-.64,3.08,3.08,0,0,0,0-.51,4.34,4.34,0,0,0-.09-.54c0-.18-.08-.34-.12-.5s-.09-.28-.12-.39Z"/><path class="cls-28" d="M279.06,122.37a6.55,6.55,0,0,1-.28-1.05c-.08-.42-.14-.87-.2-1.35s-.1-1-.13-1.53-.06-1.06-.08-1.59h-1.09a4.32,4.32,0,0,1-1.13-.14,2.8,2.8,0,0,1-1-.47,2.6,2.6,0,0,1-.74-.89,3,3,0,0,1-.28-1.38,4.15,4.15,0,0,1,.23-1.42,2.9,2.9,0,0,1,.64-1,2.78,2.78,0,0,1,1-.66,3.4,3.4,0,0,1,1.26-.22,3.05,3.05,0,0,1,1.32.27,2.74,2.74,0,0,1,.94.74,3.62,3.62,0,0,1,.56,1.13,5.23,5.23,0,0,1,.18,1.41c0,1,0,1.86,0,2.67s.07,1.55.12,2.19.12,1.18.19,1.64a5.59,5.59,0,0,0,.24,1Zm-.72-7.39v-.81a2.48,2.48,0,0,0-.14-.91,1.36,1.36,0,0,0-.32-.52.81.81,0,0,0-.36-.23,1.45,1.45,0,0,0-.29-.05,1.61,1.61,0,0,0-.54.09,1.19,1.19,0,0,0-.42.28,1.37,1.37,0,0,0-.28.47,2.26,2.26,0,0,0-.09.67.77.77,0,0,0,.14.49,1.06,1.06,0,0,0,.36.31,1.42,1.42,0,0,0,.45.16,2.47,2.47,0,0,0,.43,0Z"/><path class="cls-28" d="M283.34,119.57a1.22,1.22,0,0,1,.92.33,1.17,1.17,0,0,1,.33.84,1.12,1.12,0,0,1-.33.83,1.22,1.22,0,0,1-.92.33,1.27,1.27,0,0,1-.9-.32,1.14,1.14,0,0,1-.33-.84,1.2,1.2,0,0,1,.32-.84A1.22,1.22,0,0,1,283.34,119.57Z"/><path class="cls-28" d="M291.23,122.37a6.55,6.55,0,0,1-.28-1.05c-.08-.42-.15-.87-.2-1.35s-.1-1-.13-1.53-.06-1.06-.08-1.59h-1.09a4.45,4.45,0,0,1-1.14-.14,2.83,2.83,0,0,1-1-.47,2.49,2.49,0,0,1-.74-.89,3,3,0,0,1-.28-1.38,3.92,3.92,0,0,1,.23-1.42,2.8,2.8,0,0,1,1.63-1.71,3.4,3.4,0,0,1,1.26-.22,3.05,3.05,0,0,1,1.32.27,2.7,2.7,0,0,1,.93.74,3.24,3.24,0,0,1,.56,1.13,4.86,4.86,0,0,1,.19,1.41c0,1,0,1.86,0,2.67s.07,1.55.12,2.19.11,1.18.18,1.64a6.37,6.37,0,0,0,.25,1Zm-.72-7.39c0-.15,0-.29,0-.43v-.38a2.51,2.51,0,0,0-.13-.91,1.36,1.36,0,0,0-.32-.52.79.79,0,0,0-.37-.23,1.38,1.38,0,0,0-.28-.05,1.57,1.57,0,0,0-.54.09,1.19,1.19,0,0,0-.42.28,1.37,1.37,0,0,0-.28.47,2.25,2.25,0,0,0-.1.67.77.77,0,0,0,.15.49.9.9,0,0,0,.36.31,1.42,1.42,0,0,0,.45.16,2.37,2.37,0,0,0,.43,0Z"/><path class="cls-28" d="M303.68,121.92a8.54,8.54,0,0,1-1.44-.1,3.62,3.62,0,0,1-1-.31,1.89,1.89,0,0,1-.66-.51,2.19,2.19,0,0,1-.37-.73,4.33,4.33,0,0,1-.18-1c0-.35,0-.74,0-1.17v-7.22h1.9v7.22a8.66,8.66,0,0,0,0,1,1,1,0,0,0,.22.56.87.87,0,0,0,.54.27,6.64,6.64,0,0,0,1,.06Z"/><path class="cls-28" d="M309,115.52s0,.12.06.25.07.29.11.48.08.41.13.64l.12.71q.06.34.09.69c0,.22,0,.42,0,.58a3.3,3.3,0,0,1-.26,1.36,2.76,2.76,0,0,1-1.62,1.51,3.22,3.22,0,0,1-1,.18h-3.29V120h3.34a1.38,1.38,0,0,0,.26,0,1,1,0,0,0,.35-.14,1.06,1.06,0,0,0,.3-.35,1.42,1.42,0,0,0,.13-.64,3.28,3.28,0,0,0,0-.4c0-.16,0-.34-.07-.52s-.07-.37-.1-.56-.08-.37-.11-.54-.08-.33-.11-.47-.06-.24-.08-.32ZM305.13,114l-1.28-1.3,1.25-1.31,1.31,1.31Zm3.19,0L307,112.74l1.26-1.32,1.32,1.32Z"/><path class="cls-28" d="M323.16,110.64s0,.15.1.33.1.38.15.62.09.5.14.78a5.46,5.46,0,0,1,.06.79,3.38,3.38,0,0,1-.26,1.37,3.06,3.06,0,0,1-.67,1,2.59,2.59,0,0,1-.94.56,3,3,0,0,1-1.05.19,3.21,3.21,0,0,1-.95-.13,3.32,3.32,0,0,1-.8-.34c.05.45.08.88.11,1.32s0,.9.05,1.39,0,1,0,1.57v1.89h-1.88v-1.84c0-.6,0-1.24,0-1.91s-.06-1.37-.14-2.1a23.36,23.36,0,0,0-.35-2.32,23,23,0,0,0-.65-2.53l1.8-.58.32.93q0,.11.12.36c.06.16.14.35.23.56s.22.41.35.63a3.29,3.29,0,0,0,.47.59,2.62,2.62,0,0,0,.6.45,1.6,1.6,0,0,0,.73.17l.27,0a.85.85,0,0,0,.34-.15,1,1,0,0,0,.3-.36,1.27,1.27,0,0,0,.13-.64,3.08,3.08,0,0,0,0-.51,4.34,4.34,0,0,0-.09-.54c0-.18-.08-.34-.12-.5s-.09-.28-.12-.39Z"/><path class="cls-28" d="M328.55,110.11l.31.25c.18.14.4.33.67.56s.57.52.9.85.67.68,1,1.08.68.82,1,1.27a11.41,11.41,0,0,1,.86,1.42,8.09,8.09,0,0,1,.61,1.54,5.55,5.55,0,0,1,.23,1.61,3.87,3.87,0,0,1-.1.94,3.28,3.28,0,0,1-.25.73,2.89,2.89,0,0,1-.35.55,4.32,4.32,0,0,1-.38.37,2.48,2.48,0,0,1-.87.48,2.9,2.9,0,0,1-1,.16,3.22,3.22,0,0,1-.93-.13,2.93,2.93,0,0,1-.83-.45,2.7,2.7,0,0,1-.82.44,2.59,2.59,0,0,1-.9.16,3,3,0,0,1-.73-.09,3.25,3.25,0,0,1-.7-.26,2.92,2.92,0,0,1-.62-.44,2.88,2.88,0,0,1-.48-.6,3.08,3.08,0,0,1-.29-.61,3.53,3.53,0,0,1-.15-.55c0-.17-.06-.32-.07-.45s0-.22,0-.28a6,6,0,0,1,.16-1.4,8.25,8.25,0,0,1,.43-1.3,9.7,9.7,0,0,1,.62-1.2,12.21,12.21,0,0,1,.71-1.06c.24-.33.48-.63.71-.9l.64-.7-.56-.46Zm3.3,9.7a1.43,1.43,0,0,0,.35-.45,1.41,1.41,0,0,0,.14-.67,3.65,3.65,0,0,0-.13-1,6.46,6.46,0,0,0-.36-1,8.14,8.14,0,0,0-.53-.95c-.2-.31-.42-.62-.64-.91s-.46-.58-.7-.85-.46-.53-.69-.77l-.54.63c-.21.24-.41.5-.62.78s-.41.58-.61.9a9.33,9.33,0,0,0-.52,1,6.44,6.44,0,0,0-.37,1,3.91,3.91,0,0,0-.14,1.06,1.44,1.44,0,0,0,.09.51,1.41,1.41,0,0,0,.6.77.92.92,0,0,0,.46.11,1.5,1.5,0,0,0,.35,0,.84.84,0,0,0,.35-.18.8.8,0,0,0,.22-.35,1.93,1.93,0,0,0,.07-.44,3.55,3.55,0,0,0,0-.46,3.66,3.66,0,0,0-.07-.42l1.85-.35v0a.41.41,0,0,1,0,.14q0,.09,0,.27c0,.11,0,.25,0,.44v.12c0,.09,0,.19,0,.3a2.52,2.52,0,0,1-.05.37.76.76,0,0,0,.35.41,1,1,0,0,0,.48.12,1,1,0,0,0,.33,0A.87.87,0,0,0,331.85,119.81Z"/><path class="cls-28" d="M386.23,130.28a4.48,4.48,0,0,1-.93-.73,5,5,0,0,1-.7-.9,4.47,4.47,0,0,1-.42-3.6,5.6,5.6,0,0,1,.62-1.4,6.7,6.7,0,0,1,.56-.8,8.88,8.88,0,0,1,.66-.73,10.41,10.41,0,0,1,.84-.71c.31-.23.67-.48,1.07-.74l1.05,1.59c-.35.22-.66.43-.91.62a5.78,5.78,0,0,0-.69.56,4.59,4.59,0,0,0-.53.56,6.16,6.16,0,0,0-.44.62,3.72,3.72,0,0,0-.4.92,3.32,3.32,0,0,0-.14.92,2.71,2.71,0,0,0,.38,1.24,2.76,2.76,0,0,0,1,1l1.32.8a4.39,4.39,0,0,0,1.22.54,1.79,1.79,0,0,0,.92,0,1.52,1.52,0,0,0,.71-.44,3.92,3.92,0,0,0,.59-.76l2.66-4.39,1.62,1-2.66,4.39a4.14,4.14,0,0,1-2.61,2.14,4.74,4.74,0,0,1-3.43-.83Zm5-8.61,1.89-.47.47,1.93-1.9.46Z"/><path class="cls-28" d="M399.31,132.87a5.83,5.83,0,0,1-1.32,1.42,4.09,4.09,0,0,1-3.27.76,5.69,5.69,0,0,1-1.81-.73l-.81-.49,1-1.62.81.49a4.59,4.59,0,0,0,1.16.52,1.92,1.92,0,0,0,1.9-.44,4.57,4.57,0,0,0,.82-1l2.4-4,1.63,1Zm2.14-8.18,1.89-.48.47,1.93-1.9.47Z"/><path class="cls-28" d="M400.13,136.48c.35.21.67.39.95.53a6.75,6.75,0,0,0,.79.33,3.14,3.14,0,0,0,.66.16,2.16,2.16,0,0,0,.57,0,1.64,1.64,0,0,0,.73-.26,2.41,2.41,0,0,0,.64-.69l-1-.61a5.31,5.31,0,0,1-.64-.45,3.71,3.71,0,0,1-.54-.58,3.07,3.07,0,0,1-.39-.68,2.6,2.6,0,0,1-.18-.8,2.8,2.8,0,0,1,.1-.89,3.6,3.6,0,0,1,.44-1,4.3,4.3,0,0,1,.56-.75,4.16,4.16,0,0,1,.57-.5,2.8,2.8,0,0,1,.56-.3l.49-.18a3.35,3.35,0,0,1,1.26-.06,3.28,3.28,0,0,1,1.2.43,3.37,3.37,0,0,1,1.06,1,2.59,2.59,0,0,1,.42,1.18,3.54,3.54,0,0,1-.14,1.31,6.18,6.18,0,0,1-.63,1.37l-1.4,2.31a4.67,4.67,0,0,1-1.28,1.46,3.66,3.66,0,0,1-1.59.6,4.49,4.49,0,0,1-.9,0,5.24,5.24,0,0,1-1-.19,7.45,7.45,0,0,1-1.08-.42,12.38,12.38,0,0,1-1.25-.68Zm5.78-4.68a1.32,1.32,0,0,0-1.09-.19,1.79,1.79,0,0,0-1,.88,1.09,1.09,0,0,0-.08,1.06,1.33,1.33,0,0,0,.28.43,2.12,2.12,0,0,0,.41.33l1,.61L406,134a3.73,3.73,0,0,0,.33-.67,1.67,1.67,0,0,0,.11-.53,1,1,0,0,0,0-.41,1.4,1.4,0,0,0-.14-.3,1.2,1.2,0,0,0-.18-.2A.66.66,0,0,0,405.91,131.8Z"/><path class="cls-28" d="M419.66,145.74l-.18-.11a5.39,5.39,0,0,1-.92-.69,4.07,4.07,0,0,1-.7-.81,3.45,3.45,0,0,1-.41-.92,2.88,2.88,0,0,1-.07-1,2,2,0,0,1-.66.19,3.47,3.47,0,0,1-.72,0,4.35,4.35,0,0,1-.71-.18,3.23,3.23,0,0,1-.62-.29,3.15,3.15,0,0,1-.88-.78,2.86,2.86,0,0,1-.5-1,2.76,2.76,0,0,1-.06-1.15,3.19,3.19,0,0,1,.45-1.22,3,3,0,0,1,1-1.07,3.66,3.66,0,0,1,1.28-.51,4.83,4.83,0,0,1,1.43-.06,10.73,10.73,0,0,1,1.49.23l.23-.72,1.81.59-1.61,5.33a1.86,1.86,0,0,0-.07.89,2,2,0,0,0,.27.71,2.34,2.34,0,0,0,.45.53,5,5,0,0,0,.48.36l.18.11Zm-2.06-5.67a1.71,1.71,0,0,0,.21-.26s0-.09.09-.17.08-.2.13-.36a4.62,4.62,0,0,0,.16-.52c0-.19.1-.4.16-.64a6,6,0,0,0-2-.2,1.49,1.49,0,0,0-1.17.71.94.94,0,0,0-.15.5,1,1,0,0,0,.09.48,1.25,1.25,0,0,0,.28.41,1.27,1.27,0,0,0,.25.21l.16.08a2.46,2.46,0,0,0,1,.2A1.17,1.17,0,0,0,417.6,140.07Z"/><path class="cls-28" d="M419.46,145.62l1-1.62,2.66,1.61a7.31,7.31,0,0,0,1,.49,3.13,3.13,0,0,0,.7.21,1.26,1.26,0,0,0,.48,0,.94.94,0,0,0,.32-.14,7.48,7.48,0,0,1-.94-.48,7.65,7.65,0,0,1-.81-.58,2.92,2.92,0,0,1-.76-1,2.36,2.36,0,0,1-.26-1.24,3,3,0,0,1,.46-1.35,3.13,3.13,0,0,1,1.91-1.42,3.2,3.2,0,0,1,1.2,0,2.88,2.88,0,0,1,1.05.4l.13.08a3.07,3.07,0,0,1,.81.74,2.77,2.77,0,0,1,.56,1.78,4.07,4.07,0,0,1-.15,1,6.12,6.12,0,0,1-.34,1,9.25,9.25,0,0,1-.48.94l-.32.46a4.09,4.09,0,0,1-1.28,1.28,3,3,0,0,1-1.37.45,3.78,3.78,0,0,1-1.43-.22,7.36,7.36,0,0,1-1.42-.68Zm7.08-3.44-.11-.09a3,3,0,0,0-.4-.17,1.17,1.17,0,0,0-.46,0,1.14,1.14,0,0,0-.47.16,1,1,0,0,0-.37.38,1,1,0,0,0,.11,1.18,2.61,2.61,0,0,0,.77.68,6.34,6.34,0,0,0,.9.43c.1-.19.21-.4.31-.62a2.17,2.17,0,0,0,.21-.67,1.38,1.38,0,0,0,0-.67A1.1,1.1,0,0,0,426.54,142.18Zm1-5,1.9-.48.47,1.93-1.91.47Z"/><path class="cls-28" d="M430.77,152.47a8.62,8.62,0,0,1-1.19-.84,3.52,3.52,0,0,1-.7-.78,1.8,1.8,0,0,1-.3-.78,2.08,2.08,0,0,1,.05-.82,4.33,4.33,0,0,1,.35-.91q.24-.47.57-1l3.74-6.17,1.63,1-3.75,6.18c-.21.34-.36.63-.47.85a1.05,1.05,0,0,0-.1.6.9.9,0,0,0,.32.51,6.23,6.23,0,0,0,.83.58Z"/><path class="cls-28" d="M430.51,152.32l1-1.63.81.49a2.43,2.43,0,0,0,.68.31,1,1,0,0,0,.47,0,.71.71,0,0,0,.32-.17,1.44,1.44,0,0,0,.22-.27l1.24-2.06,1.62,1-1.25,2.06a.73.73,0,0,0-.09.26,1.22,1.22,0,0,0,0,.27.73.73,0,0,0,.07.24.65.65,0,0,0,.15.18l.29-.15c.34-.18.7-.36,1.07-.53s.75-.33,1.12-.48a9.93,9.93,0,0,1,1.14-.35,6.65,6.65,0,0,1,1.14-.16,4.55,4.55,0,0,1,1.11.11,3.38,3.38,0,0,1,1,.43,4.49,4.49,0,0,1,.93.76,2.69,2.69,0,0,1,.61,1,2.8,2.8,0,0,1,.1,1.27,3.88,3.88,0,0,1-.59,1.53,3.44,3.44,0,0,1-1.06,1.16,3.06,3.06,0,0,1-1.21.46,3.15,3.15,0,0,1-1.22-.08,4.26,4.26,0,0,1-1.09-.46l-3.73-2.26-.51-.32a3.23,3.23,0,0,1-1-.92,1.42,1.42,0,0,1-.23-.6,3.67,3.67,0,0,1-2.31-.6Zm11.17,1.18a2.11,2.11,0,0,0-.92-.28,4.77,4.77,0,0,0-1.11.07,7.4,7.4,0,0,0-1.22.33,11.12,11.12,0,0,0-1.23.53l2.91,1.76a2.14,2.14,0,0,0,.53.24,1.68,1.68,0,0,0,.59.08,1.28,1.28,0,0,0,.56-.16,1.19,1.19,0,0,0,.48-.49,1.62,1.62,0,0,0,.26-.67,1.24,1.24,0,0,0-.07-.58,1.38,1.38,0,0,0-.31-.46A2.84,2.84,0,0,0,441.68,153.5Zm1.17-4.87,1.9-.48.47,1.93-1.91.46Z"/><path class="cls-28" d="M445.18,161.2l-1.63-1,5.7-9.41,1.62,1Z"/><path class="cls-28" d="M384.87,139.58c-.06.17-.12.36-.19.57s-.15.42-.24.64-.19.45-.3.68-.23.45-.36.67a4.33,4.33,0,0,1-.67.85,2.73,2.73,0,0,1-.84.54,2.06,2.06,0,0,1-1,.14,2.37,2.37,0,0,1-1.06-.37,4.41,4.41,0,0,1-.4-.29,3.7,3.7,0,0,1-.37-.41,2.68,2.68,0,0,1-.29-.53,2.27,2.27,0,0,1-.18-.67,2.5,2.5,0,0,1-1,.16,3.49,3.49,0,0,1-.84-.15h0l-.23-.09-.24-.14a1.37,1.37,0,0,1-.29-.2,1.48,1.48,0,0,1-.25-.25c-.35.71-.7,1.36-1,2l-1,1.63-.87,1.42-1.61-1,.78-1.29c.31-.51.65-1.09,1-1.74s.74-1.33,1.1-2.06.69-1.49,1-2.28a15.77,15.77,0,0,0,.68-2.36l1.84.42c0,.18-.08.33-.12.48s-.07.29-.11.44-.09.3-.14.46-.1.35-.17.56a5.16,5.16,0,0,0-.14.62,3.66,3.66,0,0,0,0,.65,2,2,0,0,0,.11.57.83.83,0,0,0,.32.39.73.73,0,0,0,.36,0,.85.85,0,0,0,.41-.16,1.92,1.92,0,0,0,.46-.42,5.12,5.12,0,0,0,.53-.74l.15-.25c.05-.08.1-.16.14-.24s.1-.18.15-.28.11-.24.19-.39l1.69.83c-.27.56-.49,1-.66,1.45a6.63,6.63,0,0,0-.37,1,1.38,1.38,0,0,0,0,.69.69.69,0,0,0,.34.43.57.57,0,0,0,.5,0,1,1,0,0,0,.49-.45,5.85,5.85,0,0,0,.3-.56c.09-.2.17-.4.25-.59s.14-.37.19-.54a2.63,2.63,0,0,0,.12-.43Z"/><path class="cls-28" d="M390.11,147.57l.36.21.36.2.39.19.45.19-.52,1.68-.75-.22c-.24-.08-.47-.18-.71-.28s-.49-.23-.75-.37-.55-.3-.86-.49a10.32,10.32,0,0,1-1.32-.94,6.14,6.14,0,0,1-1.1-1.18l-.52,1c-.15.31-.31.59-.45.86s-.3.52-.45.77-.3.51-.46.78l-.34.55-.38.62-.24.4-1.62-1,.25-.41q.58-1,1.08-1.8c.33-.56.63-1.1.91-1.6s.53-1,.76-1.49.44-1,.63-1.43.36-1,.51-1.47.29-1,.41-1.56l1.87.45c-.07.27-.14.54-.22.79s-.15.52-.24.79a4.43,4.43,0,0,1-.14.44c0,.15-.1.3-.14.45a2.12,2.12,0,0,0-.09,1,2,2,0,0,0,.29.76,2.34,2.34,0,0,1,0-.26,1.63,1.63,0,0,1,.07-.3,1.89,1.89,0,0,1,.13-.35,3.64,3.64,0,0,1,.2-.39,2.81,2.81,0,0,1,2-1.34,3,3,0,0,1,1.15,0,3.43,3.43,0,0,1,1.05.41,3,3,0,0,1,.64.51,4.19,4.19,0,0,1,.47.59,6.61,6.61,0,0,1,.35.63l.3.62-1.61.91c-.08-.2-.17-.39-.25-.55a3.15,3.15,0,0,0-.27-.45,3.44,3.44,0,0,0-.28-.36,1.88,1.88,0,0,0-.34-.28l0,0a1.34,1.34,0,0,0-.4-.16,1.23,1.23,0,0,0-.47,0,1.27,1.27,0,0,0-.47.13.84.84,0,0,0-.36.34,1.2,1.2,0,0,0-.2.72,1.59,1.59,0,0,0,.21.67,2.75,2.75,0,0,0,.5.59A6,6,0,0,0,390.11,147.57Z"/><path class="cls-28" d="M392,154.34a1.24,1.24,0,0,1,.62.77,1.16,1.16,0,0,1-.16.88,1.09,1.09,0,0,1-.71.54,1.44,1.44,0,0,1-1.56-.94,1.12,1.12,0,0,1,.15-.88,1.17,1.17,0,0,1,.71-.55A1.2,1.2,0,0,1,392,154.34Z"/><path class="cls-28" d="M397.29,160.83a7.76,7.76,0,0,1,.31-1.05c.15-.39.33-.81.53-1.26s.43-.9.68-1.37.5-.94.76-1.4l-.93-.56a4.77,4.77,0,0,1-.9-.71,2.93,2.93,0,0,1-.63-.94,2.53,2.53,0,0,1-.17-1.14,3,3,0,0,1,.48-1.32,3.93,3.93,0,0,1,.93-1.1,3,3,0,0,1,1.09-.57,3,3,0,0,1,1.19,0,3.58,3.58,0,0,1,1.19.46,3.15,3.15,0,0,1,1,.92,2.46,2.46,0,0,1,.41,1.12,3.23,3.23,0,0,1-.1,1.26,5.26,5.26,0,0,1-.57,1.3c-.5.83-.95,1.59-1.35,2.31s-.74,1.35-1,1.93-.52,1.07-.69,1.5a5.39,5.39,0,0,0-.34,1Zm3.22-6.7.22-.37c.07-.12.13-.22.2-.32a2.68,2.68,0,0,0,.35-.85,1.39,1.39,0,0,0,0-.61.9.9,0,0,0-.2-.39l-.21-.19a1.8,1.8,0,0,0-.51-.2,1.25,1.25,0,0,0-.51,0,1.42,1.42,0,0,0-.48.26,2.09,2.09,0,0,0-.43.52.8.8,0,0,0-.13.5,1,1,0,0,0,.15.45,1.52,1.52,0,0,0,.3.37,1.85,1.85,0,0,0,.35.26Z"/><path class="cls-28" d="M408.18,166.89a7.92,7.92,0,0,1-1.18-.83,3.58,3.58,0,0,1-.71-.79,1.76,1.76,0,0,1-.3-.78,2.31,2.31,0,0,1,.06-.82,4.4,4.4,0,0,1,.34-.9q.24-.48.57-1l3.74-6.18,1.63,1-3.74,6.18a6.61,6.61,0,0,0-.47.86,1,1,0,0,0-.11.6.93.93,0,0,0,.33.51,5.51,5.51,0,0,0,.82.57Z"/><path class="cls-28" d="M416.08,164.19l-.08.25-.15.47c-.07.19-.14.39-.23.61s-.17.45-.26.67-.18.43-.28.64a5,5,0,0,1-.27.52,3.24,3.24,0,0,1-.93,1,2.78,2.78,0,0,1-1.07.46,2.85,2.85,0,0,1-1.09,0,3.26,3.26,0,0,1-1-.39l-2.81-1.7,1-1.63,2.85,1.73.24.12a.88.88,0,0,0,.37,0,.9.9,0,0,0,.44-.14,1.26,1.26,0,0,0,.44-.47,4.11,4.11,0,0,0,.19-.37c.06-.14.13-.3.2-.48s.14-.34.2-.53.13-.35.19-.52.11-.31.15-.45a3.23,3.23,0,0,1,.1-.32Zm-2.58-3.29-.43-1.77,1.76-.47.44,1.8Zm2.74,1.65-.43-1.77,1.76-.47.45,1.8Z"/><path class="cls-28" d="M432.68,168.55c-.06.17-.12.36-.19.57s-.15.42-.24.64-.19.45-.3.68a7,7,0,0,1-.36.66,3.81,3.81,0,0,1-.67.85,2.59,2.59,0,0,1-.84.55,2.06,2.06,0,0,1-1,.14,2.5,2.5,0,0,1-1.06-.37,2.55,2.55,0,0,1-.39-.3,2.5,2.5,0,0,1-.38-.41,2.94,2.94,0,0,1-.3-.53,2.87,2.87,0,0,1-.18-.66,2.43,2.43,0,0,1-1,.16,3.48,3.48,0,0,1-.84-.16h0l-.23-.1a1.36,1.36,0,0,1-.24-.13,1.94,1.94,0,0,1-.29-.21,1.43,1.43,0,0,1-.25-.24q-.52,1.05-1,2c-.35.6-.67,1.15-1,1.63l-.86,1.43-1.61-1,.78-1.3c.31-.51.65-1.09,1-1.73s.74-1.34,1.1-2.07.68-1.49,1-2.27a15,15,0,0,0,.69-2.36l1.84.42q-.08.26-.12.48c0,.14-.07.29-.11.43s-.09.31-.14.47-.1.34-.17.55a4.92,4.92,0,0,0-.14.63,3.6,3.6,0,0,0,0,.65,2,2,0,0,0,.11.56.83.83,0,0,0,.32.39.72.72,0,0,0,.36,0,1,1,0,0,0,.41-.16,2.47,2.47,0,0,0,.46-.42,4.93,4.93,0,0,0,.52-.74c.06-.1.12-.18.16-.26s.09-.15.14-.23l.15-.28c.05-.11.12-.24.19-.4l1.69.83c-.27.56-.49,1.05-.66,1.46a6.29,6.29,0,0,0-.37,1,1.38,1.38,0,0,0,0,.69.72.72,0,0,0,.34.43.52.52,0,0,0,.49,0,.94.94,0,0,0,.5-.44c.11-.18.2-.37.3-.57s.17-.39.24-.59.14-.37.2-.54l.12-.42Z"/><path class="cls-28" d="M432,179.76a2.79,2.79,0,0,1-.9-.84,3.13,3.13,0,0,1-.5-1.08,3.17,3.17,0,0,1-.05-1.19,3.06,3.06,0,0,1,.42-1.16,3,3,0,0,1,.83-.91,3.11,3.11,0,0,1,1.08-.49,2.92,2.92,0,0,1,1.18-.06,3.1,3.1,0,0,1,1.16.41,3.18,3.18,0,0,1,.91.84,3.53,3.53,0,0,1,.5,1.08,3,3,0,0,1,.06,1.19,2.94,2.94,0,0,1-.41,1.16,2.9,2.9,0,0,1-.84.9,3.14,3.14,0,0,1-2.28.56A2.88,2.88,0,0,1,432,179.76Zm2.26-3.74a1.15,1.15,0,0,0-.46-.16,1.29,1.29,0,0,0-.48,0,1.4,1.4,0,0,0-.43.2,1.2,1.2,0,0,0-.34.37,1.33,1.33,0,0,0-.17.47,1.28,1.28,0,0,0,0,.48,1.17,1.17,0,0,0,.2.44,1,1,0,0,0,.36.33,1.22,1.22,0,0,0,.47.17,1.15,1.15,0,0,0,.49,0,1.25,1.25,0,0,0,.44-.2,1.2,1.2,0,0,0,.34-.37,1.16,1.16,0,0,0,.17-.47,1.3,1.3,0,0,0,0-.48,1.37,1.37,0,0,0-.21-.44A1.34,1.34,0,0,0,434.26,176Z"/><path class="cls-28" d="M463.81,245.11a4.89,4.89,0,0,1-2.25-.56,4.56,4.56,0,0,1-.92-.66,4,4,0,0,1-.72-.87,5.09,5.09,0,0,1-.57-1.26,4.93,4.93,0,0,1-.2-1.47,8.21,8.21,0,0,1,.05-1,7.47,7.47,0,0,1,.17-1,10.25,10.25,0,0,1,.34-1.08c.14-.38.32-.78.53-1.22l1.7.81a10.13,10.13,0,0,0-.44,1,6.31,6.31,0,0,0-.28.88,5,5,0,0,0-.14.8,6.85,6.85,0,0,0,0,.79,3,3,0,0,0,.48,1.72,2.51,2.51,0,0,0,1,.88,2.84,2.84,0,0,0,1.34.31h.57a13.51,13.51,0,0,0,1.51-.08,3.39,3.39,0,0,0,1.15-.31,1.75,1.75,0,0,0,.73-.67A2.19,2.19,0,0,0,468,241h-1.09a5.32,5.32,0,0,1-.78-.06,3.9,3.9,0,0,1-.76-.22,3,3,0,0,1-.69-.39,2.3,2.3,0,0,1-.56-.6,2.82,2.82,0,0,1-.38-.82,3.64,3.64,0,0,1-.15-1.09,4.65,4.65,0,0,1,.21-1.35,3.25,3.25,0,0,1,.63-1.12,2.93,2.93,0,0,1,1-.77,3.12,3.12,0,0,1,1.41-.29,2.93,2.93,0,0,1,1.38.3,2.55,2.55,0,0,1,.94.81,3.37,3.37,0,0,1,.54,1.2,6,6,0,0,1,.17,1.43v2.74a5.68,5.68,0,0,1-.18,1.51,3.56,3.56,0,0,1-.52,1.13,3.16,3.16,0,0,1-.82.81,4.58,4.58,0,0,1-1.09.52A7.16,7.16,0,0,1,466,245a12.3,12.3,0,0,1-1.52.09Zm1.24-12.32-1.28-1.29,1.25-1.31,1.32,1.31Zm1.83,3.31a1.28,1.28,0,0,0-1,.44,1.93,1.93,0,0,0-.37,1.29,1.2,1.2,0,0,0,.13.59,1,1,0,0,0,.33.39,1.33,1.33,0,0,0,.46.23,1.81,1.81,0,0,0,.52.07H468V238a3.54,3.54,0,0,0-.13-1.1,1.5,1.5,0,0,0-.32-.57.74.74,0,0,0-.38-.23A2.39,2.39,0,0,0,466.88,236.1Zm1.36-3.31-1.28-1.3,1.27-1.31,1.31,1.31Z"/><path class="cls-28" d="M475.87,241a8.54,8.54,0,0,1-1.44-.1,3.54,3.54,0,0,1-1-.31,1.8,1.8,0,0,1-.66-.51,2.2,2.2,0,0,1-.38-.73,5,5,0,0,1-.17-1c0-.35,0-.74,0-1.17V230h1.9v7.22a8.36,8.36,0,0,0,0,1,1,1,0,0,0,.22.57.87.87,0,0,0,.54.27,6.49,6.49,0,0,0,1,.06Z"/><path class="cls-28" d="M486.1,238l-.4.27-.93.57c-.38.23-.84.47-1.36.72a15.93,15.93,0,0,1-3.56,1.26,9.35,9.35,0,0,1-2,.21h-2.31v-1.9h2.31a9.06,9.06,0,0,0,1.59-.15,15.58,15.58,0,0,0,1.67-.39c.55-.16,1.07-.34,1.57-.54a12.37,12.37,0,0,0,1.29-.59l-.76-.23-.83-.25-.85-.24-.78-.21-.66-.15a3.31,3.31,0,0,0-.46-.05,1,1,0,0,0-.31,0,.75.75,0,0,0-.24.14.86.86,0,0,0-.19.25,2,2,0,0,0-.19.36l-1.75-.52a5.15,5.15,0,0,1,.35-.86,2.61,2.61,0,0,1,.52-.7,2.34,2.34,0,0,1,.69-.47,2.38,2.38,0,0,1,.91-.17,3.08,3.08,0,0,1,.56.08l.84.22,1,.32,1.06.36,1,.38.91.33.68.25.35.12Zm-8,5.62,1.29-1.3,1.3,1.31-1.3,1.3Zm1.66,2.15,1.2-1.21,1.22,1.22L481,247Zm1.52-2.14,1.31-1.29,1.29,1.31-1.29,1.29Z"/><path class="cls-28" d="M460.82,259.73l-5.06-1.86v-2l7.08,3v1.58l-7.08,3v-2Z"/><path class="cls-28" d="M478.79,253.77l.13.59c.05.21.09.44.13.67s.07.48.1.73,0,.51,0,.76a4.21,4.21,0,0,1-.13,1.08,2.7,2.7,0,0,1-.44.9,2.08,2.08,0,0,1-.75.62,2.44,2.44,0,0,1-1.09.22,3,3,0,0,1-.5,0,2.28,2.28,0,0,1-.53-.16,2.62,2.62,0,0,1-.53-.3,2.4,2.4,0,0,1-.49-.47,2.46,2.46,0,0,1-.78.65,3.21,3.21,0,0,1-.8.31h0l-.26,0h-.27l-.35,0-.34-.08c.06.78.1,1.52.11,2.21s0,1.33,0,1.89v1.67h-1.89v-1.51c0-.6,0-1.28,0-2s0-1.53-.13-2.34-.18-1.63-.33-2.45a14.11,14.11,0,0,0-.64-2.38l1.79-.59c.05.17.1.33.15.47l.13.43.12.47c.05.16.09.35.14.56a5.53,5.53,0,0,0,.21.61,3.81,3.81,0,0,0,.3.57,1.63,1.63,0,0,0,.39.43.76.76,0,0,0,.48.17.72.72,0,0,0,.32-.15.84.84,0,0,0,.27-.35,1.94,1.94,0,0,0,.18-.6,5.48,5.48,0,0,0,.07-.9v-.3c0-.09,0-.18,0-.27s0-.2,0-.32,0-.26,0-.44l1.88-.16q.09.93.18,1.59a7.6,7.6,0,0,0,.22,1.07,1.4,1.4,0,0,0,.34.61.69.69,0,0,0,.51.19.57.57,0,0,0,.44-.23,1,1,0,0,0,.19-.64,4.64,4.64,0,0,0,0-.63c0-.22-.05-.43-.09-.64s-.07-.39-.11-.56a4.08,4.08,0,0,0-.12-.43Z"/><path class="cls-28" d="M484.21,253.25a3,3,0,0,1,.31.24c.18.14.4.33.67.57s.57.51.9.84.67.68,1,1.08.68.82,1,1.27a11.53,11.53,0,0,1,.86,1.43,7.75,7.75,0,0,1,.61,1.53,5.55,5.55,0,0,1,.23,1.61,3.82,3.82,0,0,1-.1.94,3.38,3.38,0,0,1-.25.74,2.39,2.39,0,0,1-.35.54,3.24,3.24,0,0,1-.38.37,2.48,2.48,0,0,1-.87.48,2.9,2.9,0,0,1-1,.16,3.22,3.22,0,0,1-.93-.13,2.5,2.5,0,0,1-.83-.45,2.7,2.7,0,0,1-.82.44,2.59,2.59,0,0,1-.9.16,3,3,0,0,1-.73-.09,2.8,2.8,0,0,1-.7-.26,2.74,2.74,0,0,1-1.1-1,3.29,3.29,0,0,1-.29-.6,3.62,3.62,0,0,1-.15-.56c0-.17-.06-.32-.07-.45s0-.22,0-.28a5.81,5.81,0,0,1,.16-1.39,9.13,9.13,0,0,1,.43-1.31,9.7,9.7,0,0,1,.62-1.2,12.21,12.21,0,0,1,.71-1.06c.24-.33.48-.62.71-.89s.45-.51.64-.71l-.56-.46Zm3.31,9.69a1.44,1.44,0,0,0,.34-.45,1.41,1.41,0,0,0,.14-.67,3.65,3.65,0,0,0-.13-1,6.46,6.46,0,0,0-.36-1,6.9,6.9,0,0,0-.53-.95c-.2-.31-.42-.62-.64-.91s-.46-.58-.7-.85-.46-.53-.69-.77l-.54.63c-.21.24-.41.5-.62.78s-.41.58-.61.9a9.33,9.33,0,0,0-.52,1,6.79,6.79,0,0,0-.37,1,4.35,4.35,0,0,0-.14,1.06,1.54,1.54,0,0,0,.09.52,1.26,1.26,0,0,0,.24.44,1.22,1.22,0,0,0,.36.32.93.93,0,0,0,.46.12,1.55,1.55,0,0,0,.35-.05A.84.84,0,0,0,484,263a.77.77,0,0,0,.22-.34,2.13,2.13,0,0,0,.07-.44,3.71,3.71,0,0,0,0-.47c0-.15,0-.29-.07-.42l1.85-.35v0a.41.41,0,0,1,0,.14q0,.11,0,.27c0,.11,0,.26,0,.44V262c0,.09,0,.19,0,.3a2.52,2.52,0,0,1-.05.37.72.72,0,0,0,.35.41.94.94,0,0,0,.48.13,1.09,1.09,0,0,0,.64-.22Z"/></g></g></g></svg>