<svg xmlns="http://www.w3.org/2000/svg" viewBox="0 0 612.53 344.55"><defs><style>.cls-1{fill:#212121;}.cls-2,.cls-3{fill:#fff;}.cls-2{opacity:0.2;}.cls-4,.cls-8{fill:#525252;}.cls-5{fill:#1aa879;}.cls-6{fill:#121212;}.cls-7{fill:#c3c3c3;}.cls-8{opacity:0.4;}</style></defs><g id="Layer_2" data-name="Layer 2"><g id="Layer_1-2" data-name="Layer 1"><rect class="cls-1" width="612.53" height="344.55"/><circle class="cls-2" cx="306.27" cy="159.29" r="46.05" transform="translate(80.87 420.77) rotate(-76.72)"/><path class="cls-3" d="M330.54,159.29l-38.28-25.15c0,37.92,0,19.31,0,50.31Z"/><rect class="cls-4" y="295.13" width="612.53" height="6.31"/><rect class="cls-5" y="295.13" width="198.3" height="6.31"/><rect class="cls-6" y="298.64" width="612.53" height="45.91"/><path class="cls-7" d="M36.44,321.8l-11.22-7.38c0,11.12,0,5.67,0,14.75Z"/><path class="cls-7" d="M177.85,321.8l-9.48-6.23c0,9.39,0,4.78,0,12.45Z"/><rect class="cls-7" x="177.68" y="315.57" width="1.78" height="12.45"/><rect class="cls-7" x="65.66" y="315.57" width="3.49" height="12.45" transform="translate(134.82 643.59) rotate(180)"/><rect class="cls-7" x="73.2" y="315.57" width="3.49" height="12.45" transform="translate(149.89 643.59) rotate(180)"/><path class="cls-5" d="M203.52,296.74a5.26,5.26,0,1,1-5.26-5.27A5.27,5.27,0,0,1,203.52,296.74Z"/><path class="cls-7" d="M234.63,315.57l-6,4.4v3.65l6,4.4C234.62,318.64,234.63,323.24,234.63,315.57Z"/><rect class="cls-7" x="227.06" y="318.77" width="3.17" height="6.06" transform="translate(457.29 643.59) rotate(180)"/><path class="cls-7" d="M238.5,327.87a.75.75,0,0,1-.69-.45.74.74,0,0,1,.4-1,5.13,5.13,0,0,0,1.6-1.08,5,5,0,0,0,1.08-1.61,5,5,0,0,0,0-3.93,4.81,4.81,0,0,0-1.08-1.6,5,5,0,0,0-1.6-1.08.74.74,0,1,1,.58-1.37,6.59,6.59,0,0,1,3.47,3.47,6.55,6.55,0,0,1-3.47,8.57A.77.77,0,0,1,238.5,327.87Z"/><path class="cls-7" d="M237.11,324.89a.71.71,0,0,1-.65-.42.69.69,0,0,1,.37-.91,2,2,0,0,0,.61-.41,1.91,1.91,0,0,0,.56-1.35,1.85,1.85,0,0,0-.15-.74,1.82,1.82,0,0,0-.41-.61,1.77,1.77,0,0,0-.61-.41.7.7,0,0,1-.37-.91.69.69,0,0,1,.92-.37,3.3,3.3,0,0,1,1.75,1.75,3.31,3.31,0,0,1,0,2.57,3,3,0,0,1-.71,1.05,3.37,3.37,0,0,1-1,.71A.86.86,0,0,1,237.11,324.89Z"/><path class="cls-7" d="M534.28,320.37c.74-.14,1.45-.23,2.23-.3v3.45a17.87,17.87,0,0,1-2.23-.3l-1.09,2.63a20.24,20.24,0,0,1,1.8,1.36l-2.45,2.44a20.6,20.6,0,0,1-1.36-1.79L528.55,329a20,20,0,0,1,.31,2.23H525.4a20,20,0,0,1,.31-2.23l-2.63-1.09a18.9,18.9,0,0,1-1.37,1.79l-2.44-2.44a20.12,20.12,0,0,1,1.79-1.36L520,323.22a17.38,17.38,0,0,1-2.23.3v-3.45a21.82,21.82,0,0,1,2.23.3l1.09-2.63a18.38,18.38,0,0,1-1.79-1.36l2.44-2.44a20.27,20.27,0,0,1,1.37,1.79l2.63-1.09a19.32,19.32,0,0,1-.31-2.23h3.46a19.32,19.32,0,0,1-.31,2.23l2.63,1.09a22.24,22.24,0,0,1,1.36-1.79l2.45,2.44a18.49,18.49,0,0,1-1.8,1.36Zm-7.15-2.74a4.17,4.17,0,1,0,4.17,4.17A4.17,4.17,0,0,0,527.13,317.63Z"/><path class="cls-7" d="M417,325.1a3.61,3.61,0,0,1-1.32-1.57,6.54,6.54,0,0,1,0-4.92A3.61,3.61,0,0,1,417,317a3.59,3.59,0,0,1,3.82,0,3.7,3.7,0,0,1,1.33,1.57,6.54,6.54,0,0,1,0,4.92,3.7,3.7,0,0,1-1.33,1.57,3.65,3.65,0,0,1-3.82,0Zm3.41-1.68a5.21,5.21,0,0,0,0-4.7,1.82,1.82,0,0,0-3,0,5.3,5.3,0,0,0,0,4.7,1.82,1.82,0,0,0,3,0Z"/><path class="cls-7" d="M429.31,321.13a2.42,2.42,0,0,1,.65,1.72,2.67,2.67,0,0,1-.39,1.41,2.78,2.78,0,0,1-1.19,1,4.69,4.69,0,0,1-1.94.37,6.24,6.24,0,0,1-1.83-.27,5,5,0,0,1-1.51-.76l.71-1.28A3.81,3.81,0,0,0,425,324a4.34,4.34,0,0,0,1.43.24,2.35,2.35,0,0,0,1.38-.37,1.16,1.16,0,0,0,.5-1,1.12,1.12,0,0,0-.48-1,2.4,2.4,0,0,0-1.45-.35h-.82v-1.13l2-2.4h-4v-1.39h6.06v1.11l-2.16,2.56A3,3,0,0,1,429.31,321.13Z"/><path class="cls-7" d="M431.29,320.46a1.06,1.06,0,1,1,.74.3A1,1,0,0,1,431.29,320.46Zm0,4.84a1,1,0,0,1-.3-.75,1,1,0,0,1,.3-.77,1,1,0,0,1,.74-.29,1.07,1.07,0,0,1,.74,1.81,1,1,0,0,1-.74.3A1,1,0,0,1,431.29,325.3Z"/><path class="cls-7" d="M442.06,323.49h-1.57v2h-1.6v-2H434v-1.14l4.38-5.73h1.77L436,322.1h2.91v-1.79h1.55v1.79h1.57Z"/><path class="cls-7" d="M448.9,316.62v1.11l-3.46,7.78h-1.76L447,318h-3.49v1.51H442v-2.91Z"/><path class="cls-7" d="M456.67,314.82h1.42l-4.19,12h-1.42Z"/><path class="cls-7" d="M464.71,316.62v8.89h-1.65V318h-1.88v-1.39Z"/><path class="cls-7" d="M468.28,325.1a3.61,3.61,0,0,1-1.32-1.57,6.42,6.42,0,0,1,0-4.92,3.61,3.61,0,0,1,1.32-1.57,3.57,3.57,0,0,1,3.81,0,3.56,3.56,0,0,1,1.33,1.57,6.54,6.54,0,0,1,0,4.92,3.56,3.56,0,0,1-1.33,1.57,3.63,3.63,0,0,1-3.81,0Zm3.41-1.68a5.3,5.3,0,0,0,0-4.7,1.82,1.82,0,0,0-3,0,5.3,5.3,0,0,0,0,4.7,1.82,1.82,0,0,0,3,0Z"/><path class="cls-7" d="M475.28,320.46a1,1,0,0,1-.31-.75,1.05,1.05,0,0,1,1.79-.76,1,1,0,0,1,.29.76,1,1,0,0,1-1.77.75Zm0,4.84a1,1,0,0,1-.31-.75,1,1,0,0,1,.3-.77,1.1,1.1,0,0,1,1.49,0,1.06,1.06,0,0,1,.29.77,1,1,0,0,1-1,1.05A1,1,0,0,1,475.28,325.3Z"/><path class="cls-7" d="M479.92,325.1a3.75,3.75,0,0,1-1.32-1.57,6.54,6.54,0,0,1,0-4.92,3.75,3.75,0,0,1,1.32-1.57,3.59,3.59,0,0,1,3.82,0,3.63,3.63,0,0,1,1.33,1.57,6.54,6.54,0,0,1,0,4.92,3.63,3.63,0,0,1-1.33,1.57,3.65,3.65,0,0,1-3.82,0Zm3.41-1.68a5.21,5.21,0,0,0,0-4.7,1.81,1.81,0,0,0-3,0,5.21,5.21,0,0,0,0,4.7,1.81,1.81,0,0,0,3,0Z"/><path class="cls-7" d="M488.47,325.1a3.61,3.61,0,0,1-1.32-1.57,6.54,6.54,0,0,1,0-4.92,3.61,3.61,0,0,1,1.32-1.57,3.37,3.37,0,0,1,1.91-.55,3.41,3.41,0,0,1,1.91.55,3.7,3.7,0,0,1,1.33,1.57,6.54,6.54,0,0,1,0,4.92,3.7,3.7,0,0,1-1.33,1.57,3.49,3.49,0,0,1-1.91.54A3.44,3.44,0,0,1,488.47,325.1Zm3.41-1.68a5.21,5.21,0,0,0,0-4.7,1.82,1.82,0,0,0-3,0,5.3,5.3,0,0,0,0,4.7,1.82,1.82,0,0,0,3,0Z"/><rect class="cls-7" x="106.17" y="315.57" width="12.45" height="12.45"/><rect class="cls-8" x="146.53" y="305.81" width="1.1" height="31.57"/><rect class="cls-8" x="200.21" y="305.81" width="1.1" height="31.57"/><path class="cls-7" d="M591.75,330.3H567.9v-17h23.85Zm-22-1.86h20.13V315.15H569.76Z"/></g></g></svg>