<svg xmlns="http://www.w3.org/2000/svg" xmlns:xlink="http://www.w3.org/1999/xlink" viewBox="0 0 225 149.9"><defs><style>.cls-1{fill:url(#linear-gradient);}.cls-2{fill:#fff;}</style><linearGradient id="linear-gradient" y1="334.85" x2="225" y2="334.85" gradientTransform="matrix(1, 0, 0, -1, 0, 409.8)" gradientUnits="userSpaceOnUse"><stop offset="0" stop-color="#f58145"/><stop offset="1" stop-color="#801428"/></linearGradient></defs><g id="Layer_2" data-name="Layer 2"><g id="Layer_1-2" data-name="Layer 1"><g id="Layer_2-2" data-name="Layer 2"><g id="Layer_1-2-2" data-name="Layer 1-2"><path class="cls-1" d="M24.5,0H200.4A24.56,24.56,0,0,1,225,24.5V125.4a24.48,24.48,0,0,1-24.5,24.5H24.5A24.39,24.39,0,0,1,0,125.5V24.5A24.54,24.54,0,0,1,24.5,0Z"/></g></g><path class="cls-2" d="M59.8,63.15A7,7,0,0,0,61.3,59c0-1.1-1.2-2.2-3.8-3.3a21.24,21.24,0,0,1,4.8-1.8,9.1,9.1,0,0,0,.2-2.1,16.53,16.53,0,0,0-.2-2.9,11.81,11.81,0,0,0-4.8,1.9,11.94,11.94,0,0,0-3.4,3.3,6.6,6.6,0,0,0-1.3,3.4,1.57,1.57,0,0,0,.7,1.3,18.4,18.4,0,0,0,2.9,1.7,8.87,8.87,0,0,1-2.5,1.4,6.82,6.82,0,0,1-2.3.5,2.56,2.56,0,0,1-2.1-.8,3.73,3.73,0,0,1-.7-2.5,13.65,13.65,0,0,1,1.1-4.8L45.8,53a21.6,21.6,0,0,0-1.8,7.9,7.16,7.16,0,0,0,1.6,5,6.51,6.51,0,0,0,5,1.8,12.21,12.21,0,0,0,5.4-1.2A12.42,12.42,0,0,0,59.8,63.15Z"/><path class="cls-2" d="M62.1,68.55a18.69,18.69,0,0,0,2.6,1.5,11.77,11.77,0,0,0,.8-1.3c.5-.8.8-1.7,1.3-2.6.7-1.5,1.2-2.8,1.6-3.8a9,9,0,0,0,2.1.2h0a17.61,17.61,0,0,0,3.4-.4,7.68,7.68,0,0,0,3.2-1.7h.3a5.27,5.27,0,0,0,2,1.5,5.75,5.75,0,0,0,2.6.5c2.1,0,4-.1,5.4-.2s2.9-.4,4.4-.7a13.14,13.14,0,0,0,.5-1.5,6.75,6.75,0,0,0,.2-1.4,13.23,13.23,0,0,0-2.7-7.4L93.9,50v-4.8l-.4-.3-9.4,3.5v4.8a13.31,13.31,0,0,1,3.8,3.7,52.55,52.55,0,0,1-6,.2,4.35,4.35,0,0,1-2.3-.5c-.5-.3-.6-.8-.6-1.7v-.6L76.8,54a4.72,4.72,0,0,1-2.3,2.5,8.61,8.61,0,0,1-3.8.7,16.36,16.36,0,0,1-2-.1,21.66,21.66,0,0,1-2.5-.4l-.3.1a33.88,33.88,0,0,1-2.4,5.5c-.9,1.5-1.9,3.1-3.1,4.8A13.77,13.77,0,0,0,62.1,68.55Z"/><path class="cls-2" d="M73.4,69.25a5.93,5.93,0,0,0,.8-.8,10.47,10.47,0,0,1,.8-1.1,8.12,8.12,0,0,0,1.3,1.1,5.29,5.29,0,0,0,1.4.8,4.44,4.44,0,0,0,1.2-1.4c.5-.7.7-1.1.6-1.5a2.79,2.79,0,0,0-1.1-1.1,2.73,2.73,0,0,0-1.5-.7,1.46,1.46,0,0,0-.8.5,5,5,0,0,0-.8,1.2,3.73,3.73,0,0,0-1.1-1.1,2.53,2.53,0,0,0-1.4-.7c-.3,0-.7.3-1.1,1a7.11,7.11,0,0,0-.9,1.7,5.21,5.21,0,0,0,1.3,1.1A3.79,3.79,0,0,0,73.4,69.25Z"/><polygon class="cls-2" points="92.3 41.65 92 41.45 85 44.55 85 46.75 92.3 43.95 92.3 41.65"/><path class="cls-2" d="M93.8,68.75a11.75,11.75,0,0,0,2.4,1.3,20.28,20.28,0,0,0,1.2-2.3c.6-1.1,1.1-2.4,1.7-3.8a29.7,29.7,0,0,0,1.8-6.4l-4.1-1.4a49.18,49.18,0,0,1-2.3,6,33,33,0,0,1-2.8,5C92.2,67.55,92.9,68.15,93.8,68.75Z"/><path class="cls-2" d="M102.8,62.45l.2.2a24.52,24.52,0,0,0,2.7-.2,14.33,14.33,0,0,0,2-.5c.1-1.3.2-3.1.2-5.2,0-3.4-.2-7-.4-10.7l-4.8.2c.2,4.4.4,8.3.4,11.4Z"/><path class="cls-2" d="M108.8,68.55a18.69,18.69,0,0,0,2.6,1.5,11.77,11.77,0,0,0,.8-1.3c.5-.8.8-1.7,1.3-2.6.7-1.5,1.2-2.8,1.6-3.8a9,9,0,0,0,2.1.2h0c2,0,3.7-.1,5-.2a26.73,26.73,0,0,0,3.2-.6,10.44,10.44,0,0,0,1.1-2.4,10.87,10.87,0,0,0,.4-2.6,7.13,7.13,0,0,0-1.1-3.9,3.54,3.54,0,0,0-3-1.6,3.84,3.84,0,0,0-2.5.9,6.83,6.83,0,0,0-1.8,2.3,5.55,5.55,0,0,0-.7,2.8h-.6a16.36,16.36,0,0,1-2-.1,18.66,18.66,0,0,1-2.5-.4l-.2.2a33.88,33.88,0,0,1-2.4,5.5c-.9,1.5-1.9,3.1-3.1,4.8A14.47,14.47,0,0,0,108.8,68.55ZM120.9,56a1.49,1.49,0,0,1,1-.3,7,7,0,0,1,1.4.3,3.6,3.6,0,0,1,1.2.8,7.84,7.84,0,0,1-2.1.2,3,3,0,0,1-1.9-.4A.92.92,0,0,1,120.9,56Z"/><path class="cls-2" d="M118.7,48.45a6.51,6.51,0,0,0,1.5.9,5.93,5.93,0,0,0,.8-.8,10.47,10.47,0,0,1,.8-1.1,8.12,8.12,0,0,0,1.3,1.1,5.29,5.29,0,0,0,1.4.8,4.44,4.44,0,0,0,1.2-1.4c.4-.7.7-1.1.6-1.5a2.79,2.79,0,0,0-1.1-1.1,2.73,2.73,0,0,0-1.5-.7,1.46,1.46,0,0,0-.8.5,5,5,0,0,0-.8,1.2,3.73,3.73,0,0,0-1.1-1.1,2.53,2.53,0,0,0-1.4-.7c-.3,0-.7.3-1.1,1a4.7,4.7,0,0,0-.9,1.7C117.6,47.65,118.1,48.05,118.7,48.45Z"/><path class="cls-2" d="M180.3,54.25a4.74,4.74,0,0,0-1.5-2.1,4,4,0,0,0-2.3-.8,3.7,3.7,0,0,0-2.1.6c-.5.5-1.2,1.1-1.9,1.9s-1.1,1.2-1.5,1.7a7.12,7.12,0,0,1-1.7,1.1,5.93,5.93,0,0,1-2.3.5,19.66,19.66,0,0,1-2.6-.2,15.56,15.56,0,0,0,.3-2.5,3.55,3.55,0,0,1-1.8-.8c-.8-.5-2.1-1.3-3.8-2.4l-1-.7a5.47,5.47,0,0,0-1.9-.9,6.45,6.45,0,0,0-2-.3,3.75,3.75,0,0,0-1.1.1,11.15,11.15,0,0,0-.7,2c-.2.9-.4,1.8-.5,2.5l.2.2h.6c1,.1,1.8.2,2.5.2a3.74,3.74,0,0,1,1.8.5c.5.2,1.1.5,1.9.9l-1.8.4-.8.2a26.24,26.24,0,0,1-3,.6,11.87,11.87,0,0,1-2.8.2,11.14,11.14,0,0,1-1.7-.2c-.2-5.3-.5-9-.6-11l-4.8.2c.2,2.5.5,5.3.7,8.4s.3,5.6.3,7.5a15.75,15.75,0,0,1-2.8.3,3.65,3.65,0,0,1-2.7-.8,3,3,0,0,1-.8-2.2,16,16,0,0,1,1.1-4.7l-4.1-1.3a22.49,22.49,0,0,0-1.8,7.9,6,6,0,0,0,2.1,5,9.29,9.29,0,0,0,5.8,1.6,21.38,21.38,0,0,0,5.9-.8,11.4,11.4,0,0,0,1.7-4.8,4.67,4.67,0,0,0,1.7.3,16.56,16.56,0,0,0,3.3-.4,20.39,20.39,0,0,0,3.2-1.1,6.61,6.61,0,0,1,1.5-.5,13,13,0,0,1,3.3-.7,5.78,5.78,0,0,0,2.1,2,6.7,6.7,0,0,0,3.1.7,8.81,8.81,0,0,0,2.9-.5,8.68,8.68,0,0,0,2.3-1.6,10.06,10.06,0,0,0,2.5,1.7,4.62,4.62,0,0,0,2.5.6,3.22,3.22,0,0,0,2.8-1.5,6.53,6.53,0,0,0,1-3.8A9.47,9.47,0,0,0,180.3,54.25Zm-2.5,3.3a3.08,3.08,0,0,1-1,.1,7.72,7.72,0,0,1-1.5-.2c-.5-.2-.9-.3-1.3-.5a4.75,4.75,0,0,1,2.4-.6,3.34,3.34,0,0,1,1.5.3,1,1,0,0,1,.5.7Z"/><path class="cls-2" d="M74.8,91.55c0,.1.1.2.1.3s.1.2.2.4c.4,1,.6,2,.9,2.9a9.23,9.23,0,0,1-1.5.1,43.9,43.9,0,0,1-7-.8L66,98.35l.5.3a19.28,19.28,0,0,1,2.1,1.3,20.28,20.28,0,0,1,1.8,1.3,13.25,13.25,0,0,1-5.8,1.9,2.52,2.52,0,0,1-2.1-.8,2.82,2.82,0,0,1-.7-2.1,17.92,17.92,0,0,1,1.1-5.2l-4.1-1.3a26.83,26.83,0,0,0-1.4,4.3,18.92,18.92,0,0,0-.5,3.8,6.12,6.12,0,0,0,1.9,4.9,7.56,7.56,0,0,0,5,1.7,14.29,14.29,0,0,0,5.2-1.1,22.2,22.2,0,0,0,4.9-3,6.27,6.27,0,0,0,.2-1.6,14.77,14.77,0,0,0,.1-2.1,29.48,29.48,0,0,0,4.4-.8,7.51,7.51,0,0,0,.9-2.4,15.26,15.26,0,0,0,.3-3,14.57,14.57,0,0,0-.5-3.8Z"/><path class="cls-2" d="M72.1,88.15a6.51,6.51,0,0,0,1.5.9,5.93,5.93,0,0,0,.8-.8,10.47,10.47,0,0,1,.8-1.1,8.12,8.12,0,0,0,1.3,1.1,5.29,5.29,0,0,0,1.4.8,4.44,4.44,0,0,0,1.2-1.4c.5-.7.7-1.1.6-1.5a2.79,2.79,0,0,0-1.1-1.1,2.73,2.73,0,0,0-1.5-.7,1.46,1.46,0,0,0-.8.5,5,5,0,0,0-.8,1.2A3.73,3.73,0,0,0,74.4,85a2.53,2.53,0,0,0-1.4-.7c-.3,0-.7.3-1.1,1A4.7,4.7,0,0,0,71,87,2.41,2.41,0,0,0,72.1,88.15Z"/><path class="cls-2" d="M95.7,83.05a8.34,8.34,0,0,0-1.2-.8,3.26,3.26,0,0,0-1-.3,1.82,1.82,0,0,0-.8.6,8.34,8.34,0,0,0-.8,1.2c-.2.5-.4.8-.5,1.1a4.44,4.44,0,0,0,1.4,1.2,9.57,9.57,0,0,0,1.6.9,4,4,0,0,0,1.3-1.5c.5-.8.8-1.2.7-1.5A1.85,1.85,0,0,0,95.7,83.05Z"/><path class="cls-2" d="M107,103.45a2.73,2.73,0,0,0-1.5-.7,1.46,1.46,0,0,0-.8.5,5,5,0,0,0-.8,1.2,3.73,3.73,0,0,0-1.1-1.1,2.53,2.53,0,0,0-1.4-.7c-.3,0-.7.3-1.1,1a4.7,4.7,0,0,0-.9,1.7,5.21,5.21,0,0,0,1.3,1.1,14.68,14.68,0,0,0,1.5.9,5.93,5.93,0,0,0,.8-.8,10.47,10.47,0,0,1,.8-1.1,8.12,8.12,0,0,0,1.3,1.1,5.29,5.29,0,0,0,1.4.8,4.44,4.44,0,0,0,1.2-1.4c.5-.7.7-1.1.6-1.5A10.1,10.1,0,0,0,107,103.45Z"/><path class="cls-2" d="M125.7,103.85a8.34,8.34,0,0,0-1.2-.8,2.65,2.65,0,0,0-1-.3,1.82,1.82,0,0,0-.8.6,8.34,8.34,0,0,0-.8,1.2c-.2.5-.4.8-.5,1.1a4.44,4.44,0,0,0,1.4,1.2,5.42,5.42,0,0,0,1.6.9,4,4,0,0,0,1.3-1.5c.5-.8.8-1.2.7-1.5A1.85,1.85,0,0,0,125.7,103.85Z"/><path class="cls-2" d="M137.3,85.15a2.73,2.73,0,0,0-1.5-.7,1.46,1.46,0,0,0-.8.5,5,5,0,0,0-.8,1.2,3.73,3.73,0,0,0-1.1-1.1,2.53,2.53,0,0,0-1.4-.7c-.3,0-.7.3-1.1,1a4.7,4.7,0,0,0-.9,1.7,5.21,5.21,0,0,0,1.3,1.1,6.51,6.51,0,0,0,1.5.9,5.93,5.93,0,0,0,.8-.8,10.47,10.47,0,0,1,.8-1.1,8.12,8.12,0,0,0,1.3,1.1,5.29,5.29,0,0,0,1.4.8,4.44,4.44,0,0,0,1.2-1.4c.5-.7.7-1.1.6-1.5A6.39,6.39,0,0,1,137.3,85.15Z"/><path class="cls-2" d="M133.1,91.65a10,10,0,0,1,.4,1.1,11.7,11.7,0,0,1,.5,2,23.83,23.83,0,0,1-4.7.4,4.64,4.64,0,0,1-2-.4c-.4-.2-.5-.8-.5-1.7v-.7l-2.5-.4a4.16,4.16,0,0,1-1.5,2.4,5.12,5.12,0,0,1-2.8.8h-1.8v-.6c-.1-3.2-.2-6.8-.4-10.6l-4.8.2c.1.8.2,1.5.2,1.9.1.6.2,1.9.4,3.8s.3,3.6.4,5.1c-1,.1-2.1.1-3.3.1a4.35,4.35,0,0,1-2.3-.5c-.5-.3-.6-.8-.6-1.7v-.6l-2.5-.4a4.72,4.72,0,0,1-2.3,2.5,8.61,8.61,0,0,1-3.8.7H99a12.48,12.48,0,0,1-2.1-.2,13.46,13.46,0,0,0,1.8-3.3,2.9,2.9,0,0,0-1.1-2.4,5.69,5.69,0,0,0-3.1-.8,14.64,14.64,0,0,0-5.5,1.3,4,4,0,0,0,.2,1.8,6.2,6.2,0,0,0,.4,1.4,2.92,2.92,0,0,1,2.8,1.8,17.91,17.91,0,0,1-3.9.4,9.32,9.32,0,0,1-1.4-.2c.1-1.2.1-2.2.1-3,0-2.5-.1-5.1-.2-8l-4.8.2.2,6c.2,5.7.2,8.9.5,9.6a8.34,8.34,0,0,0,2.5.6,16.15,16.15,0,0,0,3.1.2h0a13.28,13.28,0,0,0,3-.5,9.78,9.78,0,0,0,3.1-1.4,9,9,0,0,0,1.1,1,5.29,5.29,0,0,0,1.5.7,7.8,7.8,0,0,0,2.4.3,19.73,19.73,0,0,0,3.5-.4,7.68,7.68,0,0,0,3.2-1.7h.2a5.27,5.27,0,0,0,2,1.5,5.75,5.75,0,0,0,2.6.5,8.58,8.58,0,0,0,4.9-1.4,4.69,4.69,0,0,0,2,1,10.05,10.05,0,0,0,2.5.4,7.39,7.39,0,0,0,2.8-.5,4.57,4.57,0,0,0,2.1-1.6h.2a3.48,3.48,0,0,0,1.8,1.6,6.44,6.44,0,0,0,2.4.5c1.6,0,3.1-.1,4.4-.2s2.5-.4,3.3-.6a7.51,7.51,0,0,0,.9-2.4,15.26,15.26,0,0,0,.3-3,14.57,14.57,0,0,0-.5-3.8Z"/><path class="cls-2" d="M150.8,88.75a5.42,5.42,0,0,0,1.6.9,4,4,0,0,0,1.3-1.5c.5-.8.8-1.2.7-1.5a1.82,1.82,0,0,0-.6-.8,8.34,8.34,0,0,0-1.2-.8,3.26,3.26,0,0,0-1-.3,1.82,1.82,0,0,0-.8.6,8.34,8.34,0,0,0-.8,1.2c-.2.5-.4.8-.5,1.1A3,3,0,0,0,150.8,88.75Z"/><path class="cls-2" d="M165.1,103.85a8.34,8.34,0,0,0-1.2-.8,3.26,3.26,0,0,0-1-.3,1.82,1.82,0,0,0-.8.6,8.34,8.34,0,0,0-.8,1.2c-.2.5-.4.8-.5,1.1a4.44,4.44,0,0,0,1.4,1.2,5.42,5.42,0,0,0,1.6.9,4,4,0,0,0,1.3-1.5c.5-.8.8-1.2.7-1.5A2.76,2.76,0,0,0,165.1,103.85Z"/><path class="cls-2" d="M162.6,91.65a26.89,26.89,0,0,1,1,3.2,11,11,0,0,1-2.8.2,3.23,3.23,0,0,1-2.1-.8,5.47,5.47,0,0,1-1.4-2.5,22.77,22.77,0,0,1-7.7,1.5,8.17,8.17,0,0,1-1.4-.1,41.66,41.66,0,0,1-2.4,6c-.9,1.8-2.1,3.8-3.4,5.9a10.16,10.16,0,0,0,2.1,1.7,9.63,9.63,0,0,0,2.4,1.3,10.16,10.16,0,0,0,1-1.8c.5-1.1,1.1-2.3,1.7-3.8a36.64,36.64,0,0,0,1.5-4.3,15.11,15.11,0,0,0,5.4-1,5.24,5.24,0,0,0,1.8,2.5,4.9,4.9,0,0,0,2.5.8,22.14,22.14,0,0,0,5.9-.8,6.69,6.69,0,0,0,.9-2.4,13.86,13.86,0,0,0,.3-3,13.46,13.46,0,0,0-.5-3.8Z"/></g></g></svg>