<svg xmlns="http://www.w3.org/2000/svg" viewBox="0 0 330 47.37"><defs><style>.cls-1{fill:#a40000;}.cls-2{fill:#fff;}</style></defs><g id="Layer_2" data-name="Layer 2"><g id="Layer_1-2" data-name="Layer 1"><rect class="cls-1" width="330" height="47.37" rx="23.69"/><path class="cls-2" d="M41.1,21.87a4.16,4.16,0,0,0-1.42-1.14,4.24,4.24,0,0,0-2-.43h-.09a4.28,4.28,0,0,0-1.29.18,3.56,3.56,0,0,0-1.07.58,4,4,0,0,0-.8.89,6.8,6.8,0,0,0-.59,1.1,8.61,8.61,0,0,0-.42,1.24c-.12.44-.21.88-.3,1.32l-2-1-2.49,1.51V37.78h2.4l0-10.49c.67.32,1.36.66,2.06,1s1.39.72,2.06,1a20.23,20.23,0,0,0,1.87.82,4.44,4.44,0,0,0,1.51.33,6.07,6.07,0,0,0,.66-.05,3.11,3.11,0,0,0,.78-.23,3.62,3.62,0,0,0,.81-.51,3.15,3.15,0,0,0,.71-.9,5.23,5.23,0,0,0,.51-1.36,8,8,0,0,0,.2-1.95,6.5,6.5,0,0,0-.29-2A5.31,5.31,0,0,0,41.1,21.87ZM39.85,27a1.92,1.92,0,0,1-.42.75A.9.9,0,0,1,39,28l-.36,0a2.27,2.27,0,0,1-.63-.1,6,6,0,0,1-.79-.26l-.88-.4c-.31-.15-.61-.31-.92-.48a16.94,16.94,0,0,1,.46-2.14,4.46,4.46,0,0,1,.55-1.21,1.4,1.4,0,0,1,.65-.54,2.25,2.25,0,0,1,.74-.12,2,2,0,0,1,.85.17,2.09,2.09,0,0,1,.61.43,2.4,2.4,0,0,1,.41.59A4,4,0,0,1,40,25.15c0,.17,0,.29,0,.37A4.41,4.41,0,0,1,39.85,27Z"/><rect class="cls-2" x="45.43" y="14.06" width="2.49" height="16.39"/><path class="cls-2" d="M69.87,12.24,59.58,16.78l-.2,2.37c.25.18.59.46,1,.83s.89.79,1.38,1.26,1,1,1.48,1.53,1,1.08,1.36,1.6a11.67,11.67,0,0,1,1,1.5,2.6,2.6,0,0,1,.39,1.2.59.59,0,0,1-.23.49,1.66,1.66,0,0,1-.55.27,3.43,3.43,0,0,1-.64.11L64,28H57.51a2.6,2.6,0,0,1-.41-.06,2,2,0,0,1-1.18-.8,1.58,1.58,0,0,1-.25-.94V22.6H53.18v7.09a6.72,6.72,0,0,1-.26,2,3.22,3.22,0,0,1-.79,1.35,3.27,3.27,0,0,1-1.36.75,7,7,0,0,1-2,.24H47.24v2.49h1.57a7.78,7.78,0,0,0,2.81-.47,6,6,0,0,0,2.11-1.32,6.09,6.09,0,0,0,1.38-2.1,8.1,8.1,0,0,0,.56-2.75,2,2,0,0,0,.9.46,4.91,4.91,0,0,0,.68.06v0h6.59a6.23,6.23,0,0,0,1.8-.22,4.47,4.47,0,0,0,1.22-.53,3.19,3.19,0,0,0,.76-.68,4.3,4.3,0,0,0,.4-.66c.06-.15.12-.34.18-.55a2.88,2.88,0,0,0,.09-.76,4.69,4.69,0,0,0-.08-.78,5,5,0,0,0-.27-.89,7.09,7.09,0,0,0-.61-1.19,14.18,14.18,0,0,0-.93-1.28c-.34-.44-.71-.87-1.1-1.31s-.78-.87-1.17-1.27-.76-.79-1.12-1.14l-1-1,8.71-3.84Z"/><polygon class="cls-2" points="68.5 9.6 59.96 13.3 59.82 14.74 69.02 10.73 68.5 9.6"/><polygon class="cls-2" points="83.52 17.64 81.68 15.8 79.92 17.64 81.72 19.46 83.52 17.64"/><polygon class="cls-2" points="88.1 17.66 86.26 15.82 84.49 17.66 86.28 19.48 88.1 17.66"/><polygon class="cls-2" points="118.03 17.38 116.1 15.45 114.22 17.36 116.13 19.29 118.03 17.38"/><polygon class="cls-2" points="125.67 34.64 127.47 36.46 129.28 34.64 127.44 32.8 125.67 34.64"/><path class="cls-2" d="M129.48,24.15q-.07-.54-.18-1.08c-.06-.35-.13-.68-.19-1s-.12-.55-.17-.75a2.76,2.76,0,0,0-.09-.37l-2.35.72c0,.11.07.28.13.49s.1.45.16.71.12.55.18.86.11.59.16.88.08.56.11.81a5.27,5.27,0,0,1,0,.62,2.17,2.17,0,0,1-.21,1.05,1.51,1.51,0,0,1-.49.56,1.37,1.37,0,0,1-.57.23,2.23,2.23,0,0,1-.44.05H119.8l-.38-.06a2.5,2.5,0,0,1-.43-.16,1.52,1.52,0,0,1-.4-.28,1.31,1.31,0,0,1-.3-.44,1.57,1.57,0,0,1-.12-.65V22.58h-2.48v3.86a2.29,2.29,0,0,1-.06.51,1.11,1.11,0,0,1-.3.49,1.73,1.73,0,0,1-.68.37,3.83,3.83,0,0,1-1.19.15H110.6a2.73,2.73,0,0,1-1.69-.43,1.75,1.75,0,0,1-.58-1.4V22.6h-2.49v3.53a2.34,2.34,0,0,1-.17.86,1.71,1.71,0,0,1-.4.56,1.3,1.3,0,0,1-.53.31,1.8,1.8,0,0,1-.6.1,2.23,2.23,0,0,1-1.57-.46,1.94,1.94,0,0,1-.49-1.48V22.6H99.6v3.47a2.31,2.31,0,0,1-.18,1,1.59,1.59,0,0,1-.44.56,1.34,1.34,0,0,1-.53.27A3.72,3.72,0,0,1,98,28a2.26,2.26,0,0,1-1.54-.47A2,2,0,0,1,96,26V22.6H93.48v3.47a3.26,3.26,0,0,1-.09.8,1.27,1.27,0,0,1-.33.6,1.6,1.6,0,0,1-.7.36,4.23,4.23,0,0,1-1.18.13H88.24l-.38-.06a2.85,2.85,0,0,1-.43-.16,1.48,1.48,0,0,1-.39-.28,1.2,1.2,0,0,1-.31-.44,1.57,1.57,0,0,1-.12-.65V22.58H84.14v3.86a2.31,2.31,0,0,1-.07.51,1,1,0,0,1-.3.49,1.68,1.68,0,0,1-.67.37,3.9,3.9,0,0,1-1.2.15H78.21a8.37,8.37,0,0,1-1.5-.1,1.37,1.37,0,0,1-.81-.42,1.72,1.72,0,0,1-.32-.91A12.75,12.75,0,0,1,75.51,25V14.06H73V25c0,.63,0,1.19.06,1.7a6.72,6.72,0,0,0,.24,1.37,3.24,3.24,0,0,0,.53,1.05,2.76,2.76,0,0,0,.92.75,5.21,5.21,0,0,0,1.41.44,12.08,12.08,0,0,0,1.62.14h4.1a6.41,6.41,0,0,0,2-.29,4.16,4.16,0,0,0,1.5-.81,3.25,3.25,0,0,0,1.3.82,5.31,5.31,0,0,0,1.8.28h2.69a6.64,6.64,0,0,0,2-.28,4.25,4.25,0,0,0,1.52-.84,4.32,4.32,0,0,0,1.38.82,5.16,5.16,0,0,0,1.83.3H98a4.18,4.18,0,0,0,1.48-.31,4.27,4.27,0,0,0,1.32-.85,3.92,3.92,0,0,0,1.42.87,5.67,5.67,0,0,0,1.88.29,4.69,4.69,0,0,0,1.62-.29,3.34,3.34,0,0,0,1.32-.88,3.79,3.79,0,0,0,1.48.88,6.65,6.65,0,0,0,2,.29h2.86a6.46,6.46,0,0,0,2-.29,4.11,4.11,0,0,0,1.49-.81,3.29,3.29,0,0,0,1.31.82,5.31,5.31,0,0,0,1.8.28h5.44a4.64,4.64,0,0,0,1.5-.26,4,4,0,0,0,1.35-.8,4.08,4.08,0,0,0,1-1.36,4.73,4.73,0,0,0,.37-2c0-.25,0-.54-.05-.88S129.54,24.51,129.48,24.15Z"/><polygon class="cls-2" points="121.34 34.62 123.14 36.44 124.95 34.62 123.11 32.78 121.34 34.62"/><rect class="cls-2" x="132.95" y="14.06" width="2.49" height="16.39"/><polygon class="cls-2" points="185.5 16.04 183.57 14.11 181.68 16.02 183.59 17.95 185.5 16.04"/><path class="cls-2" d="M208.14,21.72a4,4,0,0,0-1.48-.91,4.93,4.93,0,0,0-1.69-.29,4.68,4.68,0,0,0-1.74.31,6.4,6.4,0,0,0-1.53.85,10.47,10.47,0,0,0-1.35,1.25q-.63.72-1.2,1.5c-.37.53-.73,1.07-1.07,1.62l-1,1.59a.91.91,0,0,1-.41-.1,1.39,1.39,0,0,1-.37-.28,1.57,1.57,0,0,1-.28-.41,1.34,1.34,0,0,1-.1-.49V22.6h-2.47v3.85a1.93,1.93,0,0,1-.08.52,1,1,0,0,1-.31.48,1.68,1.68,0,0,1-.67.37,4.08,4.08,0,0,1-1.18.14h-3.95l-.46,0a5.15,5.15,0,0,0,.8-1.39,4.72,4.72,0,0,0,.28-1.73,4.41,4.41,0,0,0-.3-1.6,4.26,4.26,0,0,0-.85-1.38,4.13,4.13,0,0,0-1.36-1,4.23,4.23,0,0,0-1.82-.37,4.71,4.71,0,0,0-1.81.35,4.89,4.89,0,0,0-1.47,1,4.45,4.45,0,0,0-1,1.38,3.89,3.89,0,0,0-.36,1.65,5.46,5.46,0,0,0,.08.93,4.08,4.08,0,0,0,.21.8,4.3,4.3,0,0,0,.36.71,5.15,5.15,0,0,0,.5.68l-.45,0H174.9a2,2,0,0,1-.51-.1,1.69,1.69,0,0,1-.53-.28,1.1,1.1,0,0,1-.37-.53c.45-.26.83-.49,1.12-.68l.61-.39-.31-2.09-2.26-.82L171,22.43l-1.27-.49-1-.4-1-.36-1.15-.38a4.47,4.47,0,0,0-1.32-.23,2.87,2.87,0,0,0-.52.05,3.36,3.36,0,0,0-1.41.63,4,4,0,0,0-1,1.16,6.79,6.79,0,0,0-.65,1.46l2.29.69a3.5,3.5,0,0,1,.41-.8,1.34,1.34,0,0,1,.54-.47,1.44,1.44,0,0,1,.7-.14,3.25,3.25,0,0,1,.91.15l5.67,2c-.36.2-.76.41-1.2.62s-.93.41-1.44.61-1,.38-1.6.55-1.11.33-1.67.46a16.93,16.93,0,0,1-1.7.32,13.57,13.57,0,0,1-1.65.11h-3.3a6.74,6.74,0,0,1-.93-.08,3.15,3.15,0,0,1-1-.35,3.38,3.38,0,0,1-.93-.75,3.21,3.21,0,0,1-.63-1.31l-2-8.17-2.39.57c0,.18.07.36.1.53s.08.35.12.55a13.17,13.17,0,0,0-2.09.87,7.77,7.77,0,0,0-1.79,1.26,6,6,0,0,0-1.25,1.71,4.8,4.8,0,0,0-.47,2.17,4.68,4.68,0,0,0,.25,1.58,3.94,3.94,0,0,0,.69,1.28,3.88,3.88,0,0,0,1,.94,3.82,3.82,0,0,0,1.19.51,4.9,4.9,0,0,0,1.1.13,3.39,3.39,0,0,0,.45,0,4.91,4.91,0,0,0,1.51-.37,4.35,4.35,0,0,0,1.06-.62,3.06,3.06,0,0,0,.72-.88,3.91,3.91,0,0,0,.84,1.27,4.71,4.71,0,0,0,1.24.92,5.67,5.67,0,0,0,1.51.56,7.41,7.41,0,0,0,1.71.19h3.3a14,14,0,0,0,2.94-.32,22.46,22.46,0,0,0,2.82-.8,25.84,25.84,0,0,0,2.54-1l.17-.08a3.69,3.69,0,0,0,1,1.24h0a4.38,4.38,0,0,0,1.34.74,5,5,0,0,0,1.63.26h3a21.46,21.46,0,0,0,2.94-.18,18.41,18.41,0,0,0,2.31-.47c.33.09.71.18,1.14.26s.89.14,1.37.2,1,.1,1.49.14,1,.05,1.48.05h2.36a7.53,7.53,0,0,0,2-.28,3.72,3.72,0,0,0,1.45-.82l.17.13a2.72,2.72,0,0,0,.7.39,7.76,7.76,0,0,0,.89.31,8,8,0,0,0,.95.2,5.78,5.78,0,0,0,.89.07h6.5a6.14,6.14,0,0,0,1.11-.11A4.7,4.7,0,0,0,207,30a5,5,0,0,0,1-.6,4.21,4.21,0,0,0,1.35-2.12,5.86,5.86,0,0,0,.2-1.57,6.24,6.24,0,0,0-.4-2.38A4.4,4.4,0,0,0,208.14,21.72ZM153,24.93a2.09,2.09,0,0,1-.5,1.09,3,3,0,0,1-1,.68,2.87,2.87,0,0,1-.92.16h-.12a2.41,2.41,0,0,1-1-.25,1.87,1.87,0,0,1-.74-.63,1.72,1.72,0,0,1-.29-1,2.77,2.77,0,0,1,1-2.09,8,8,0,0,1,3-1.53c.06.28.14.58.22.88s.16.61.23.92.11.56.14.77,0,.37,0,.49A3,3,0,0,1,153,24.93Zm32.47.82a2.36,2.36,0,0,1-.45.73,2.67,2.67,0,0,1-.69.54,7.65,7.65,0,0,1-.86.41,6.53,6.53,0,0,1-.92-.42,3,3,0,0,1-.71-.55,2.24,2.24,0,0,1-.44-.7,2.21,2.21,0,0,1-.15-.82V24.8a1.4,1.4,0,0,1,.2-.69,1.89,1.89,0,0,1,.51-.59,2.29,2.29,0,0,1,.73-.42,2.51,2.51,0,0,1,.86-.15,1.87,1.87,0,0,1,.76.17,2.51,2.51,0,0,1,.67.44,2.27,2.27,0,0,1,.48.6,1.26,1.26,0,0,1,.18.63A2.61,2.61,0,0,1,185.49,25.75Zm21.77.58a2.48,2.48,0,0,1-.23.52,2.36,2.36,0,0,1-.33.42,3.52,3.52,0,0,1-.39.31h0a2.06,2.06,0,0,1-.42.21l-.42.12-.37.05h-5.46q.54-.88,1.17-1.77a13.29,13.29,0,0,1,1.3-1.6,7.23,7.23,0,0,1,1.4-1.15A2.71,2.71,0,0,1,205,23a2.6,2.6,0,0,1,.93.17,2,2,0,0,1,.75.5,2.33,2.33,0,0,1,.51.85,3.3,3.3,0,0,1,.19,1.19A2.08,2.08,0,0,1,207.26,26.33Z"/><path class="cls-2" d="M227.37,22.57a18.56,18.56,0,0,0-1.37-1.7l-1.58-1.71-.6-.64c-.21-.23-.41-.44-.58-.64l-1.84,1.67.71.8c-.4.42-.78.85-1.15,1.27A9.4,9.4,0,0,0,220,23a6.84,6.84,0,0,0-.67,1.48,5.81,5.81,0,0,0-.24,1.72,4.23,4.23,0,0,0,.35,1.72,4.17,4.17,0,0,0,1,1.36,4.49,4.49,0,0,0,1.52.89,5.74,5.74,0,0,0,3.78,0,5.11,5.11,0,0,0,1.5-.88,4.51,4.51,0,0,0,1.08-1.48,4.41,4.41,0,0,0,.38-1.79v0a4.35,4.35,0,0,0-.35-1.67A8.39,8.39,0,0,0,227.37,22.57Zm-1.78,4.85a2.5,2.5,0,0,1-1.7.54,3.58,3.58,0,0,1-.87-.11,2.17,2.17,0,0,1-.74-.33,1.64,1.64,0,0,1-.52-.56,1.62,1.62,0,0,1-.19-.81,4.06,4.06,0,0,1,.16-1.18,5.31,5.31,0,0,1,.46-1.07,7.88,7.88,0,0,1,.7-1c.26-.32.55-.66.86-1,.32.33.62.66.92,1a8.83,8.83,0,0,1,.78,1,5.49,5.49,0,0,1,.55,1,2.79,2.79,0,0,1,.2,1A1.81,1.81,0,0,1,225.59,27.42Z"/><path class="cls-2" d="M259.23,24.75a4.15,4.15,0,0,0-.58-1l-.49-.63-.64-.83-.73-.94q-.37-.48-.72-1L254.28,18l-1.95,1.47,2,2.54c.65.78,1.2,1.51,1.67,2.16a10.18,10.18,0,0,1,1,1.62,2.9,2.9,0,0,1,.28,1,1.23,1.23,0,0,1-.06.39,1.83,1.83,0,0,1-.44.73,2.23,2.23,0,0,1-.65.45,2.81,2.81,0,0,1-.78.22,4.26,4.26,0,0,1-.78.07,4.1,4.1,0,0,1-.9-.11,5.53,5.53,0,0,1-.87-.25,5.4,5.4,0,0,0,1.23-1.63,4.71,4.71,0,0,0,.44-2.05,3.84,3.84,0,0,0-.13-.91,4.84,4.84,0,0,0-.39-1,5.24,5.24,0,0,0-.63-.9,4.24,4.24,0,0,0-.87-.76,4.29,4.29,0,0,0-1.1-.52,4.17,4.17,0,0,0-1.3-.2,5,5,0,0,0-1.76.3,4.45,4.45,0,0,0-1.42.84,3.76,3.76,0,0,0-1,1.28,3.9,3.9,0,0,0-.35,1.65,4.39,4.39,0,0,0,.39,1.88,5.11,5.11,0,0,0,1.07,1.53c-.38,0-.75.06-1.12.07h-2.3a1.48,1.48,0,0,1-.9-.36,6.26,6.26,0,0,1-.92-.88c-.3-.35-.58-.72-.86-1.12l-.73-1.09-1.4-2.1-1.1-1.67L237,19.62l-.27-.41-.7-1.05L234,19.53l.69,1h0a2,2,0,0,0,.19.27l.71,1.07c.33.48.73,1.08,1.21,1.81l1.62,2.49a1.81,1.81,0,0,1,.34.91v.08a.75.75,0,0,1-.42.58,2.78,2.78,0,0,1-1,.27,12.76,12.76,0,0,1-1.47.08c-.3,0-.6,0-.91,0A8,8,0,0,1,234,28a6.09,6.09,0,0,1-.79-.19,3.72,3.72,0,0,1-.63-.27l-1.08-.62-1.24,2.16,1.08.62a6,6,0,0,0,.77.35,5.87,5.87,0,0,0,.81.26,7.9,7.9,0,0,0,.79.16l.71.09c.44,0,.89.07,1.35.07s.62,0,.92,0a8.08,8.08,0,0,0,.86-.1,5.74,5.74,0,0,0,2.07-.63,3.21,3.21,0,0,0,.91-.74,4.58,4.58,0,0,0,2.93,1.32v0h1.28a18.91,18.91,0,0,0,5.36-.65l.31.16.37.17.43.19a6.65,6.65,0,0,0,1.75.61,8.72,8.72,0,0,0,1.65.17,6.69,6.69,0,0,0,1.72-.22,5,5,0,0,0,1.39-.61,4.25,4.25,0,0,0,1-.95,3.83,3.83,0,0,0,.63-1.2,3.69,3.69,0,0,0,.19-.88c0-.26,0-.47,0-.61a6.27,6.27,0,0,0,0-.74A5.22,5.22,0,0,0,259.23,24.75Zm-7.21.77a3.14,3.14,0,0,1-.44.75,3.37,3.37,0,0,1-.63.62,3.8,3.8,0,0,1-.74.46,5.6,5.6,0,0,1-1.7-1.29,2.39,2.39,0,0,1-.57-1.59,1.47,1.47,0,0,1,.18-.71,1.89,1.89,0,0,1,.47-.59,2.33,2.33,0,0,1,.68-.41,2.24,2.24,0,0,1,.81-.15,2.15,2.15,0,0,1,.65.12,2.44,2.44,0,0,1,.68.39,2.19,2.19,0,0,1,.55.65,1.82,1.82,0,0,1,.22.92A2.15,2.15,0,0,1,252,25.52Z"/><polygon class="cls-2" points="280.75 19.66 282.54 17.85 280.71 16.03 278.87 17.87 280.75 19.66"/><rect class="cls-2" x="277.13" y="13.46" width="2.41" height="2.38" transform="translate(71.16 201.11) rotate(-45)"/><polygon class="cls-2" points="277.67 17.89 275.85 16.07 274.03 17.91 275.85 19.73 277.67 17.89"/><path class="cls-2" d="M301,24a5.07,5.07,0,0,0-.85-1.67,4.07,4.07,0,0,0-1.42-1.14,4.38,4.38,0,0,0-2-.43,4.11,4.11,0,0,0-1.37.21,3.3,3.3,0,0,0-1.05.56,3.94,3.94,0,0,0-.8.83,6.25,6.25,0,0,0-.59,1,9.13,9.13,0,0,0-.43,1.09c-.12.38-.23.74-.33,1.09s-.19.65-.28.94a6.82,6.82,0,0,1-.31.75,1.89,1.89,0,0,1-.39.5.72.72,0,0,1-.51.19h-2.5a2.71,2.71,0,0,1-1.69-.43,1.72,1.72,0,0,1-.58-1.4V22.6h-2.49v3.53a2.56,2.56,0,0,1-.18.86,1.56,1.56,0,0,1-.39.56,1.37,1.37,0,0,1-.53.31,1.81,1.81,0,0,1-.61.1,2.19,2.19,0,0,1-1.56-.46,1.94,1.94,0,0,1-.49-1.48V22.6h-2.48v3.47a2.31,2.31,0,0,1-.18,1,1.59,1.59,0,0,1-.44.56,1.41,1.41,0,0,1-.53.27,3.72,3.72,0,0,1-.46.07,2.25,2.25,0,0,1-1.54-.47,1.93,1.93,0,0,1-.49-1.47V22.6h-2.48v3.47a3.26,3.26,0,0,1-.09.8,1.29,1.29,0,0,1-.34.6,1.56,1.56,0,0,1-.69.36,4.27,4.27,0,0,1-1.18.13h-.9a8.32,8.32,0,0,1-1.49-.1,1.37,1.37,0,0,1-.81-.42,1.64,1.64,0,0,1-.33-.91c0-.39-.06-.9-.06-1.54V14.06h-2.49V25c0,.63,0,1.19.06,1.7a5.58,5.58,0,0,0,.24,1.37,3.23,3.23,0,0,0,.52,1.05,2.76,2.76,0,0,0,.92.75,5.41,5.41,0,0,0,1.42.44,10.33,10.33,0,0,0,1.49.13v0h1.43a6.69,6.69,0,0,0,2.05-.28,4.25,4.25,0,0,0,1.52-.84,4.17,4.17,0,0,0,1.37.82,5.16,5.16,0,0,0,1.83.3h.08a4.13,4.13,0,0,0,1.48-.31,4.32,4.32,0,0,0,1.33-.85,3.92,3.92,0,0,0,1.42.87,5.61,5.61,0,0,0,1.87.29,4.69,4.69,0,0,0,1.62-.29,3.44,3.44,0,0,0,1.33-.88,3.72,3.72,0,0,0,1.48.88,6.65,6.65,0,0,0,2,.29h2.59a3.12,3.12,0,0,0,1.26-.26,2.93,2.93,0,0,0,1.08-.8c.46.25.89.48,1.27.67s.76.37,1.11.51a7.26,7.26,0,0,0,1,.32,5.32,5.32,0,0,0,1.07.1,4.08,4.08,0,0,0,.65,0,3,3,0,0,0,.79-.22,3.36,3.36,0,0,0,.82-.49,3.24,3.24,0,0,0,.72-.88,5.23,5.23,0,0,0,.51-1.36,8,8,0,0,0,.2-2A7.3,7.3,0,0,0,301,24Zm-2.18,3.46a1.82,1.82,0,0,1-.42.73.94.94,0,0,1-.47.25l-.35,0a2.64,2.64,0,0,1-.74-.12,6.12,6.12,0,0,1-.88-.3c-.31-.12-.62-.27-.94-.43s-.62-.32-.92-.48c.09-.25.17-.51.25-.8s.16-.58.26-.86a7.67,7.67,0,0,1,.32-.84,2.9,2.9,0,0,1,.42-.71,2,2,0,0,1,.58-.5,1.52,1.52,0,0,1,.79-.19,1.9,1.9,0,0,1,.85.17,1.84,1.84,0,0,1,.61.44,2,2,0,0,1,.41.59,3.5,3.5,0,0,1,.25.62,4.9,4.9,0,0,1,.13.56,3.51,3.51,0,0,1,0,.37A4.63,4.63,0,0,1,298.84,27.5Z"/></g></g></svg>