<svg xmlns="http://www.w3.org/2000/svg" xmlns:xlink="http://www.w3.org/1999/xlink" viewBox="0 0 600 800"><defs><style>.cls-1{fill:url(#linear-gradient);}.cls-2{fill:#fff;}</style><linearGradient id="linear-gradient" y1="400" x2="600" y2="400" gradientUnits="userSpaceOnUse"><stop offset="0" stop-color="#e9922e"/><stop offset="0.25" stop-color="#eb8b34"/><stop offset="0.61" stop-color="#f07744"/><stop offset="1" stop-color="#f75a5c"/></linearGradient></defs><g id="Layer_2" data-name="Layer 2"><g id="Layer_1-2" data-name="Layer 1"><rect class="cls-1" width="600" height="800"/><path class="cls-2" d="M240.08,421.31a.81.81,0,0,1-.24.6.77.77,0,0,1-.56.24h-4a.8.8,0,0,1-.62-.24.91.91,0,0,1-.22-.64v-8.74h-7.38v8.82a.91.91,0,0,1-.22.64.78.78,0,0,1-.62.24.8.8,0,0,1-.62-.24.91.91,0,0,1-.22-.64v-7.7H218v7.7a.91.91,0,0,1-.22.64.78.78,0,0,1-.62.24.81.81,0,0,1-.62-.24.91.91,0,0,1-.22-.64v-7.7H208.9v8.7a6,6,0,0,1-.89,3.16,6.62,6.62,0,0,1-2.36,2.37,6.22,6.22,0,0,1-3.25.88,6.09,6.09,0,0,1-3.17-.88,6.78,6.78,0,0,1-2.36-2.37,6,6,0,0,1-.88-3.16v-7.1h-7.38v7.5a13.28,13.28,0,0,0,1.87,6.89,13.94,13.94,0,0,0,5,5,13.52,13.52,0,0,0,18.88-5.35,5.26,5.26,0,0,0,2.8.68,6.12,6.12,0,0,0,4.53-1.72,6.82,6.82,0,0,0,9.1,0,6.25,6.25,0,0,0,4.49,1.68h4.05a7.77,7.77,0,0,0,4.09-1.1,8.13,8.13,0,0,0,2.92-3,7.91,7.91,0,0,0,1.09-4.07v-9.26h-7.38Z"/><rect class="cls-2" x="240.6" y="403.11" width="6.21" height="6.21"/><rect class="cls-2" x="259.48" y="407.44" width="12.43" height="6.21"/><rect class="cls-2" x="284.97" y="433.13" width="12.43" height="6.21"/><rect class="cls-2" x="305.38" y="395.13" width="6.21" height="6.21"/><path class="cls-2" d="M312.65,405.29a7.64,7.64,0,0,0-4.19-1.18,8.46,8.46,0,0,0-4.35,1.18,9,9,0,0,0-3.22,3.23,8.7,8.7,0,0,0-1.2,4.49,7.6,7.6,0,0,0,1.18,4.15,8.49,8.49,0,0,0,3.18,2.94,9.06,9.06,0,0,0,4.41,1.09h.81v.12q0,.84-.81.84H295.72a.78.78,0,0,1-.62-.24.91.91,0,0,1-.22-.64v-7.62H287.5v7.62a.91.91,0,0,1-.22.64.81.81,0,0,1-.62.24h-4.41a.78.78,0,0,1-.62-.24.91.91,0,0,1-.22-.64v-7.62H274v6.85a1.7,1.7,0,0,1-.42,1.19,1.49,1.49,0,0,1-1.14.46h-12a3.62,3.62,0,0,1-3.6-3.61v-4.89h-7.38v5.29a10.62,10.62,0,0,0,1.48,5.49,11.09,11.09,0,0,0,4,4,10.64,10.64,0,0,0,5.49,1.48h12a8.59,8.59,0,0,0,2.7-.38,8.16,8.16,0,0,0,2.31-1.18,6.37,6.37,0,0,0,2.12,1.2,8.71,8.71,0,0,0,2.65.36h4.41a8.48,8.48,0,0,0,2.5-.32,6.42,6.42,0,0,0,2-1,6.37,6.37,0,0,0,2,1,8.55,8.55,0,0,0,2.51.32h12.82a7.77,7.77,0,0,0,4.09-1.1,8.15,8.15,0,0,0,2.93-3,8,8,0,0,0,1.08-4.07V413a9.53,9.53,0,0,0-1.06-4.51A8.26,8.26,0,0,0,312.65,405.29Zm-2.9,9.08h-1.57a1.51,1.51,0,0,1-1.16-.46,1.66,1.66,0,0,1-.44-1.18,1.51,1.51,0,0,1,.44-1.12,1.54,1.54,0,0,1,1.16-.45,1.59,1.59,0,0,1,1.57,1.57Z"/><rect class="cls-2" x="327.5" y="404.23" width="6.21" height="6.21"/><path class="cls-2" d="M326.9,427.68a14.56,14.56,0,0,1-.26,3.25,4.4,4.4,0,0,1-1.38,2,26.62,26.62,0,0,1-3.93,2.73l2.76,6.17a30.15,30.15,0,0,0,6.38-4,10.22,10.22,0,0,0,3-4.23,18.43,18.43,0,0,0,.82-6v-14H326.9Z"/><path class="cls-2" d="M354.76,421.07a10,10,0,0,0-1.14-4.73,8.81,8.81,0,0,0-3.17-3.43,8.44,8.44,0,0,0-4.55-1.26,9.13,9.13,0,0,0-4.71,1.26,9.56,9.56,0,0,0-3.43,3.43,9.15,9.15,0,0,0-1.28,4.73,8.39,8.39,0,0,0,1.26,4.54,8.8,8.8,0,0,0,3.43,3.17,10,10,0,0,0,4.73,1.14h1.48a2.3,2.3,0,0,1-.52,1.47,7.81,7.81,0,0,1-2.2,1.6c-1.12.63-2.82,1.42-5.09,2.39l2.28,6.49a43.53,43.53,0,0,0,8-4.17,11.08,11.08,0,0,0,3.81-4.43,16.56,16.56,0,0,0,1.12-6.63Zm-7.38,1.56H345.9a1.69,1.69,0,0,1-1.18-.42,1.46,1.46,0,0,1-.46-1.14,1.6,1.6,0,0,1,.46-1.21,1.66,1.66,0,0,1,1.18-.44,1.38,1.38,0,0,1,1.08.44,1.73,1.73,0,0,1,.4,1.21Z"/><polygon class="cls-2" points="412.08 404.23 408.99 404.23 408.99 398.82 402.78 398.82 402.78 404.23 399.65 404.23 399.65 410.44 412.08 410.44 412.08 404.23"/><path class="cls-2" d="M411.24,412.53v9.62h-.72a.78.78,0,0,1-.59-.24,1,1,0,0,1-.22-.64v-7.62h-7.37v7.7a.91.91,0,0,1-.22.64.81.81,0,0,1-.62.24.78.78,0,0,1-.62-.24.91.91,0,0,1-.22-.64v-7.7h-7.38v7.62a.91.91,0,0,1-.22.64.8.8,0,0,1-.62.24H389a9,9,0,0,0-1.08.08,10.68,10.68,0,0,0,.12-1.57,9.16,9.16,0,0,0-1.26-4.71,9.69,9.69,0,0,0-3.43-3.42,9.06,9.06,0,0,0-4.73-1.29,8.45,8.45,0,0,0-4.55,1.27,8.78,8.78,0,0,0-3.17,3.42,10,10,0,0,0-1.14,4.73v1.49h-2.72a.82.82,0,0,1-.63-.24,1,1,0,0,1-.22-.64v-7.62h-7.37v14a18.18,18.18,0,0,1-.24,3.39,6,6,0,0,1-1.16,2.38,24.38,24.38,0,0,1-3,3.05l4.13,5.37a41,41,0,0,0,4.25-3.87,12.43,12.43,0,0,0,2.32-3.57,14.28,14.28,0,0,0,1-4.55,6.91,6.91,0,0,0,.93,0h2.72V431a8.9,8.9,0,0,0,1.26,4.61,9.55,9.55,0,0,0,3.39,3.38,8.83,8.83,0,0,0,4.57,1.27h10.3v-7.3h-2.4v-1.36a1.73,1.73,0,0,1,.38-1.2,1.35,1.35,0,0,1,1.1-.45h4.05a6.25,6.25,0,0,0,4.49-1.68,6.81,6.81,0,0,0,9.14,0,6.19,6.19,0,0,0,4.45,1.68h8.09V412.53Zm-34.15,8.13a1.69,1.69,0,0,1,.42-1.18,1.49,1.49,0,0,1,1.14-.46,1.6,1.6,0,0,1,1.2.46,1.66,1.66,0,0,1,.44,1.18,1.42,1.42,0,0,1-.44,1.09,1.74,1.74,0,0,1-1.2.4h-1.56Zm3.12,10.91v1.36h-1.12a1.79,1.79,0,0,1-1.36-.58,1.9,1.9,0,0,1-.56-1.38v-1.05h1.48a8.18,8.18,0,0,0,1.72-.16A9.91,9.91,0,0,0,380.21,431.57Z"/></g></g></svg>