<svg xmlns="http://www.w3.org/2000/svg" viewBox="0 0 21.41 21"><defs><style>.cls-1{fill:none;stroke:#fff;stroke-miterlimit:10;}</style></defs><g id="Layer_2" data-name="Layer 2"><g id="Layer_1-2" data-name="Layer 1"><path class="cls-1" d="M1.15,18h0a.8.8,0,0,1,0-1.14l3.56-3.6h0a.8.8,0,0,1,1.14,0l2,2.07a1.7,1.7,0,0,0,2.19.19,24.9,24.9,0,0,0,3.29-2.79,25,25,0,0,0,2.49-2.94,1.72,1.72,0,0,0-.17-2.23L13.58,5.47h0a.81.81,0,0,1,0-1.15L17.13.74h0a.79.79,0,0,1,1.13,0L19.4,1.87a5.12,5.12,0,0,1,1.26,5.22A17.71,17.71,0,0,1,18.5,11.5,22.13,22.13,0,0,1,15.62,15a22.72,22.72,0,0,1-3.85,3.13,16.67,16.67,0,0,1-4.88,2.21A5,5,0,0,1,2.11,19l-1-1Z"/></g></g></svg>