<svg xmlns="http://www.w3.org/2000/svg" xmlns:xlink="http://www.w3.org/1999/xlink" viewBox="0 0 107.23 107.23"><defs><style>.cls-1{fill:url(#linear-gradient);}</style><linearGradient id="linear-gradient" y1="-6593.58" x2="107.23" y2="-6593.58" gradientTransform="matrix(1, 0, 0, -1, 0, -6539.96)" gradientUnits="userSpaceOnUse"><stop offset="0" stop-color="#f5cedb"/><stop offset="0.18" stop-color="#eed0dc"/><stop offset="0.45" stop-color="#dbd5dd"/><stop offset="0.78" stop-color="#bcdee0"/><stop offset="1" stop-color="#a2e5e1"/></linearGradient></defs><g id="Layer_2" data-name="Layer 2"><g id="Layer_1-2" data-name="Layer 1"><g id="Layer_2-2" data-name="Layer 2"><g id="Layer_1-2-2" data-name="Layer 1-2"><path class="cls-1" d="M53.62,0h0a53.61,53.61,0,0,1,53.61,53.62h0a53.61,53.61,0,0,1-53.61,53.61h0A53.61,53.61,0,0,1,0,53.62H0A53.61,53.61,0,0,1,53.62,0Z"/><path d="M26.33,50.21a3.59,3.59,0,0,0,.89-.58,2.66,2.66,0,0,0,.61-.81,2.27,2.27,0,0,0,.23-1,1.57,1.57,0,0,0-.18-.8,1.53,1.53,0,0,0-.48-.5,2.79,2.79,0,0,0-.68-.31l-.8-.23-.43-.11a2.4,2.4,0,0,1-.38-.12,1,1,0,0,1-.27-.17.31.31,0,0,1-.08-.26,1.76,1.76,0,0,1,.27-.7,3,3,0,0,1,.53-.59,2.76,2.76,0,0,1,.68-.4,1.78,1.78,0,0,1,.71-.15,1.63,1.63,0,0,1,.45.06,3.82,3.82,0,0,1,.51.18L28.52,42a3.74,3.74,0,0,0-.8-.33,2.86,2.86,0,0,0-.77-.1,3.21,3.21,0,0,0-1,.14,4,4,0,0,0-.86.41,4.28,4.28,0,0,0-.73.62,4.39,4.39,0,0,0-.58.78,4.62,4.62,0,0,0-.39.88,4.32,4.32,0,0,0-.17.94,2,2,0,0,0,.11.86,1.64,1.64,0,0,0,.39.61,2.29,2.29,0,0,0,.59.43,5,5,0,0,0,.73.29,6.69,6.69,0,0,0,.77.2l.75.17a.81.81,0,0,1-.34.43,2.91,2.91,0,0,1-.75.37,6.64,6.64,0,0,1-1.07.25,8.42,8.42,0,0,1-1.33.1,5.14,5.14,0,0,1-1-.1,2.64,2.64,0,0,1-.89-.32,1.84,1.84,0,0,1-.64-.63,1.93,1.93,0,0,1-.23-1,5.39,5.39,0,0,1,.06-.8,7,7,0,0,1,.15-.77q.11-.37.24-.75c.09-.24.19-.49.29-.73l-1.39-.59-.14.32c-.1.23-.19.47-.27.71s-.18.62-.26,1a6.48,6.48,0,0,0-.16,1.16c0,.09,0,.18,0,.28a2.83,2.83,0,0,0,0,.29,3.7,3.7,0,0,0,.33,1.6A3.14,3.14,0,0,0,20,49.94a3.87,3.87,0,0,0,1.36.72,6.19,6.19,0,0,0,1.71.24,7.83,7.83,0,0,0,1.08-.07,7.35,7.35,0,0,0,1.12-.21A6.83,6.83,0,0,0,26.33,50.21Z"/><polygon points="35.75 48.56 34.69 47.51 33.63 48.58 34.7 49.66 35.75 48.61 36.81 49.67 37.88 48.59 36.8 47.52 35.75 48.56"/><path d="M42.89,44.26a2.46,2.46,0,0,0-.1-.72,3.79,3.79,0,0,0-.28-.73,5.47,5.47,0,0,0-.93-1.36,4.31,4.31,0,0,0-.56-.57,4.89,4.89,0,0,0-.56-.46l3.7-1.71-.68-1.5-4.67,2.08-.18,1.51.63.54.59.55.54.54.44.49c.13.16.23.31.32.43a1.54,1.54,0,0,1,.17.34,1.4,1.4,0,0,1,.06.64.81.81,0,0,1-.22.43,1.06,1.06,0,0,1-.43.26,3.39,3.39,0,0,1-.57.13,4.58,4.58,0,0,1-.64,0H38.43a.6.6,0,0,1-.39-.1.79.79,0,0,1-.23-.25,1.24,1.24,0,0,1-.12-.32q0-.18-.06-.33c0-.15,0-.3-.06-.43s0-.26-.06-.39,0-.26-.08-.4-.07-.29-.12-.46L35.69,43c0,.14.07.29.11.45a3.4,3.4,0,0,1,.09.46,1.7,1.7,0,0,1,0,.45.79.79,0,0,1-.16.39.71.71,0,0,1-.26.23,1.49,1.49,0,0,1-.4.15,3.31,3.31,0,0,1-.55.08l-.72,0h-.13a.66.66,0,0,1-.35-.11,1.41,1.41,0,0,1-.36-.37,4.24,4.24,0,0,1-.4-.72,10.56,10.56,0,0,1-.42-1.11l-1.62.7.31.71c.1.26.19.52.28.78a6.25,6.25,0,0,1,.21.72,2.53,2.53,0,0,1,.09.55,1.57,1.57,0,0,1-.14.64,2.45,2.45,0,0,1-.36.63,5.12,5.12,0,0,1-.55.59,8.61,8.61,0,0,1-.68.55,6.78,6.78,0,0,1-.77.5,8.89,8.89,0,0,1-.79.43l1,1.41a10.33,10.33,0,0,0,1.35-.82,7.16,7.16,0,0,0,1.13-1,6,6,0,0,0,.83-1.16,4.35,4.35,0,0,0,.46-1.31,1.73,1.73,0,0,0,.46.12h1.19a6.9,6.9,0,0,0,.78-.09,4.35,4.35,0,0,0,.71-.18,2.18,2.18,0,0,0,.6-.32,1.27,1.27,0,0,0,.33.24,2.11,2.11,0,0,0,.43.2l.48.12a3.28,3.28,0,0,0,.43,0h1.74a3.16,3.16,0,0,0,1.14-.21,2.91,2.91,0,0,0,.89-.58,2.62,2.62,0,0,0,.58-.85A2.7,2.7,0,0,0,42.89,44.26Z"/><polygon points="42.98 36.04 38.73 37.81 38.68 38.65 43.29 36.7 42.98 36.04"/><path d="M45.4,47.47a5.81,5.81,0,0,1-.56.65c-.23.21-.46.41-.71.6a8.43,8.43,0,0,1-.78.55c-.27.16-.54.32-.81.45l1,1.41a9.47,9.47,0,0,0,1-.59,8.81,8.81,0,0,0,.93-.71A6.06,6.06,0,0,0,46.3,49a5,5,0,0,0,.61-.89,4.31,4.31,0,0,0,.4-1,3.18,3.18,0,0,0,.14-1,4.25,4.25,0,0,0-.07-.8c-.05-.28-.11-.57-.18-.86s-.15-.56-.24-.84-.17-.52-.25-.75l-1.6.73c.11.27.21.52.32.76s.18.46.26.67.12.39.17.58a2.22,2.22,0,0,1,.06.51,1.65,1.65,0,0,1-.13.66A3,3,0,0,1,45.4,47.47Z"/><path d="M48.35,39.42c0,.19,0,.41.06.64s0,.51.06.81,0,.67.06,1.06,0,.86.07,1.39c0,.26,0,.53,0,.83s0,.61,0,.93,0,.65,0,1,0,.65-.06,1l1.72-.27c0-.31,0-.63,0-1s0-.64,0-1,0-.62,0-.92,0-.57,0-.83,0-.62,0-1,0-.82-.05-1.29-.07-.94-.12-1.45-.11-1-.2-1.5l-1.71.57c0,.18.06.36.08.53S48.32,39.23,48.35,39.42Z"/><path d="M53.14,49.31A6,6,0,0,0,54,48.15a4.09,4.09,0,0,0,.46-1.31,1.83,1.83,0,0,0,.46.12h.43c.43,0,.83,0,1.23,0a7.56,7.56,0,0,0,1.16-.18,4.48,4.48,0,0,0,1-.35,3,3,0,0,0,.79-.58A2.52,2.52,0,0,0,60,45a3.59,3.59,0,0,0,.19-1.17,5.69,5.69,0,0,0-.08-.83,5.14,5.14,0,0,0-.21-.86,4.83,4.83,0,0,0-.37-.8,3.24,3.24,0,0,0-.51-.66,2.37,2.37,0,0,0-.66-.46,1.82,1.82,0,0,0-.8-.16,1.73,1.73,0,0,0-.64.12,1.9,1.9,0,0,0-.54.34A2.23,2.23,0,0,0,56,41a3.56,3.56,0,0,0-.56,1.87,2,2,0,0,0,.26,1.07,1.44,1.44,0,0,0,.69.6,3.15,3.15,0,0,0,1.05.24,8.58,8.58,0,0,0,1.34-.05,1.46,1.46,0,0,1-.43.22,5.45,5.45,0,0,1-.58.14c-.22,0-.44.06-.66.08l-.67,0-.63,0h-.6a.61.61,0,0,1-.35-.11,1.45,1.45,0,0,1-.37-.37,5,5,0,0,1-.39-.72c-.13-.29-.28-.67-.43-1.11l-1.61.7c.1.22.2.45.3.71s.2.52.29.78.15.49.21.72a2.53,2.53,0,0,1,.09.55,1.74,1.74,0,0,1-.13.64,3.35,3.35,0,0,1-.37.63,5.12,5.12,0,0,1-.55.59,7.11,7.11,0,0,1-.68.55,6.78,6.78,0,0,1-.77.5,7.68,7.68,0,0,1-.79.43l1,1.41A10.33,10.33,0,0,0,52,50.3,7.1,7.1,0,0,0,53.14,49.31Zm5.17-6h-.37a2.69,2.69,0,0,1-.4,0,1.12,1.12,0,0,1-.36-.09.74.74,0,0,1-.27-.16.42.42,0,0,1-.1-.28,1,1,0,0,1,.07-.35,1.17,1.17,0,0,1,.19-.3.88.88,0,0,1,.25-.22.48.48,0,0,1,.26-.07A.61.61,0,0,1,58,42a1.64,1.64,0,0,1,.29.35,2.46,2.46,0,0,1,.2.47,4.07,4.07,0,0,1,.13.5Z"/><polygon points="57.56 38.43 58.62 39.49 59.69 38.41 58.61 37.34 57.56 38.39 56.5 37.33 55.44 38.4 56.51 39.48 57.56 38.43"/><path d="M88.3,43.66a3.27,3.27,0,0,0-.4-1,2.34,2.34,0,0,0-.69-.71,1.92,1.92,0,0,0-1-.27,1.84,1.84,0,0,0-.77.17,2.52,2.52,0,0,0-.62.45,3.59,3.59,0,0,0-.48.61,7.37,7.37,0,0,0-.37.68c-.1.18-.19.37-.28.56a3.46,3.46,0,0,1-.32.52,1.45,1.45,0,0,1-.43.39,1.32,1.32,0,0,1-.62.15h-.55l-.4-.06A1.44,1.44,0,0,1,81,45a.78.78,0,0,1-.33-.24l.15-.07.28-.14.28-.13.29-1.64a4.88,4.88,0,0,1-.85-.07,8.23,8.23,0,0,1-.86-.19l-.81-.27c-.26-.1-.49-.2-.7-.3s-.42-.19-.62-.28a5.14,5.14,0,0,0-.61-.24,3.78,3.78,0,0,0-.6-.17A2.89,2.89,0,0,0,76,41.2a2.11,2.11,0,0,0-.82.17,3.61,3.61,0,0,0-.77.47,4.78,4.78,0,0,0-.68.67,5.19,5.19,0,0,0-.53.79l1.32.76,0-.08.15-.21a2.53,2.53,0,0,1,.23-.26,1.74,1.74,0,0,1,.29-.25,1.58,1.58,0,0,1,.36-.2A.9.9,0,0,1,76,43a2.62,2.62,0,0,1,.73.1l.84.24.86.3a6.39,6.39,0,0,0,.77.23c-.24.11-.49.23-.77.34l-.87.32-.93.28c-.32.08-.64.16-1,.21l-.93.15a6.11,6.11,0,0,1-.86.06h-1a1,1,0,0,1-.35-.07.92.92,0,0,1-.25-.19.84.84,0,0,1-.18-.28,1.23,1.23,0,0,1-.08-.33c0-.48,0-1,0-1.47s0-1,0-1.49,0-1.15-.07-1.74,0-1.19-.07-1.82L70,38.22c0,.59.1,1.17.14,1.72s.09,1.09.13,1.64.06.92.1,1.4.06.94.08,1.39,0,.88.06,1.29,0,.74,0,1a2.09,2.09,0,0,1-.11.7,2.11,2.11,0,0,1-.31.55,2.24,2.24,0,0,1-.45.42,3.25,3.25,0,0,1-.52.28,3.47,3.47,0,0,1-.55.16,2.21,2.21,0,0,1-.51,0,2,2,0,0,1-.77-.15,2.41,2.41,0,0,1-.67-.41,2.35,2.35,0,0,1-.49-.6,1.71,1.71,0,0,1-.21-.73,3,3,0,0,1,.12-1,5.17,5.17,0,0,1,.39-.94l-1.39-.67a4.21,4.21,0,0,0-.28.66,5.56,5.56,0,0,0-.19.7,5.65,5.65,0,0,0-.11.7,5.74,5.74,0,0,0,0,.71,3.15,3.15,0,0,0,.13,1A2.94,2.94,0,0,0,65,49a2.86,2.86,0,0,0,.6.7,3.93,3.93,0,0,0,.76.52,4.14,4.14,0,0,0,1.79.43,4.79,4.79,0,0,0,.84-.09,4,4,0,0,0,.88-.26,3.71,3.71,0,0,0,1.52-1.19,3.85,3.85,0,0,0,.49-1,4.15,4.15,0,0,0,.2-1.26,1.17,1.17,0,0,0,.41.1h1.44a9.84,9.84,0,0,0,1.43-.11,11.55,11.55,0,0,0,1.32-.32,13.07,13.07,0,0,0,1.24-.45c.4-.16.78-.34,1.15-.51a2.48,2.48,0,0,0,.49.58,2.75,2.75,0,0,0,.69.43,3.61,3.61,0,0,0,.86.28A5.23,5.23,0,0,0,82,47h.28a3.9,3.9,0,0,0,.59,0,2.13,2.13,0,0,0,.51-.14,2.3,2.3,0,0,0,.44-.23,2.52,2.52,0,0,0,.39-.41,4.4,4.4,0,0,0,.56.31,3.81,3.81,0,0,0,.66.27,5.41,5.41,0,0,0,.69.19,3.33,3.33,0,0,0,.7.07,1.1,1.1,0,0,0,.56-.16,1.87,1.87,0,0,0,.51-.46,2.27,2.27,0,0,0,.36-.69,2.6,2.6,0,0,0,.14-.87A4.78,4.78,0,0,0,88.3,43.66Zm-1.21,1.56-.49-.07L86.1,45a4.09,4.09,0,0,1-.49-.18l-.42-.21c.06-.12.11-.26.18-.4a3,3,0,0,1,.21-.4,1.58,1.58,0,0,1,.26-.31.48.48,0,0,1,.3-.13.62.62,0,0,1,.41.16,1.43,1.43,0,0,1,.31.42,2.32,2.32,0,0,1,.19.58A2.49,2.49,0,0,1,87.09,45.22Z"/><path d="M41,63.16a7.58,7.58,0,0,0-.28-.8c-.1-.26-.21-.51-.31-.75l-1.59.8c.11.21.22.44.32.68a6.29,6.29,0,0,1,.29.68l.22.59a1.77,1.77,0,0,1,.08.4.46.46,0,0,1-.17.36,1.1,1.1,0,0,1-.4.24,2.4,2.4,0,0,1-.53.12,2.92,2.92,0,0,1-.51,0H37.3a1.43,1.43,0,0,1-.73-.17,2,2,0,0,1-.57-.43,3.26,3.26,0,0,1-.43-.6,5.19,5.19,0,0,1-.35-.66,5.63,5.63,0,0,0-.49-.81,8.06,8.06,0,0,0-.59-.72c-.22-.23-.45-.45-.69-.67s-.5-.43-.77-.64L37,59.08l-.62-1.54-5.15,2.14L31,61.2l.51.4c.19.15.4.31.61.49s.41.36.62.56.37.38.55.58a3.92,3.92,0,0,1,.39.58,1.11,1.11,0,0,1,.14.54.62.62,0,0,1-.16.45,1.6,1.6,0,0,1-.45.32,3.69,3.69,0,0,1-.64.21q-.37.08-.75.12c-.25,0-.51,0-.76.06h-.7c-.3,0-.61,0-.93,0s-.64,0-.95-.08a7.71,7.71,0,0,1-.88-.14,3.69,3.69,0,0,1-.74-.21,1.66,1.66,0,0,1-.51-.31.57.57,0,0,1-.19-.42,1.13,1.13,0,0,1,.06-.32,2.26,2.26,0,0,1,.13-.33c0-.1.1-.2.16-.3l.16-.26-1.31-1a2.11,2.11,0,0,0-.28.45,3.11,3.11,0,0,0-.22.53,3.41,3.41,0,0,0-.14.55,3,3,0,0,0,0,.52,3.2,3.2,0,0,0,.21,1.22,2.4,2.4,0,0,0,.58.83,2.68,2.68,0,0,0,.87.53,5.85,5.85,0,0,0,1.07.29,9.62,9.62,0,0,0,1.19.13l1.24,0h.82c.29,0,.6,0,.91,0s.61,0,.92-.1a6.34,6.34,0,0,0,.86-.21,3.19,3.19,0,0,0,.7-.33,1.47,1.47,0,0,0,.46-.5,3.61,3.61,0,0,0,2.79,1.19h.9a5.05,5.05,0,0,0,1.23-.15,2.64,2.64,0,0,0,1-.45,2.18,2.18,0,0,0,.62-.79,2.64,2.64,0,0,0,.21-1.15,4,4,0,0,0-.07-.77A7.91,7.91,0,0,0,41,63.16Z"/><rect x="38.21" y="58.91" width="1.75" height="1.75" transform="translate(-30.83 45.15) rotate(-45)"/><rect x="45.73" y="68.22" width="1.75" height="1.75" transform="translate(-35.2 53.19) rotate(-45)"/><path d="M48.45,63.16a7.58,7.58,0,0,0-.28-.8c-.1-.26-.21-.51-.31-.75l-1.59.8c.11.21.22.44.32.68a6.29,6.29,0,0,1,.29.68l.22.59a1.77,1.77,0,0,1,.08.4.46.46,0,0,1-.17.36,1.1,1.1,0,0,1-.4.24,2.4,2.4,0,0,1-.53.12,2.92,2.92,0,0,1-.51,0h-1a.78.78,0,0,1-.21,0,.46.46,0,0,1-.18-.1.47.47,0,0,1-.12-.19,1.34,1.34,0,0,1-.1-.52,4.81,4.81,0,0,1,0-.76c0-.28,0-.57,0-.88s0-.6,0-.88,0-.65,0-1,0-.74,0-1.1,0-.71-.08-1a6.14,6.14,0,0,0-.12-.86l-1.66.51a8,8,0,0,1,.12,1c0,.39.06.79.07,1.21s0,.84,0,1.26,0,.8,0,1.15,0,.65,0,.92,0,.48,0,.66a3.16,3.16,0,0,0,.14,1,1.84,1.84,0,0,0,.44.78,2,2,0,0,0,.79.51,3,3,0,0,0,1.11.19h.89a5,5,0,0,0,1.22-.14,2.67,2.67,0,0,0,1-.46,2.08,2.08,0,0,0,.62-.79,2.64,2.64,0,0,0,.22-1.14,3.94,3.94,0,0,0-.08-.77A7.91,7.91,0,0,0,48.45,63.16Z"/><path d="M59.62,64.28a3.16,3.16,0,0,1,.68-.41,2.15,2.15,0,0,1,.71-.15,2.34,2.34,0,0,1,.45.07L62,64l.62-1.63a3.61,3.61,0,0,0-.8-.32,2.87,2.87,0,0,0-.77-.11,3.28,3.28,0,0,0-1,.15,3.23,3.23,0,0,0-.86.41,3.64,3.64,0,0,0-.74.62,3.94,3.94,0,0,0-.57.77,4.33,4.33,0,0,0-.57,1.82,2.08,2.08,0,0,0,.11.86,1.77,1.77,0,0,0,.39.61,2.28,2.28,0,0,0,.6.43,3.74,3.74,0,0,0,.72.29,6.9,6.9,0,0,0,.78.21l.74.17a.73.73,0,0,1-.33.42,2.68,2.68,0,0,1-.76.37,6.54,6.54,0,0,1-1.08.26,8.37,8.37,0,0,1-1.32.09,5.16,5.16,0,0,1-1-.09,2.9,2.9,0,0,1-.89-.33,1.72,1.72,0,0,1-.85-1.59,5.39,5.39,0,0,1,.06-.8,7,7,0,0,1,.16-.77,7.16,7.16,0,0,1,.23-.75c.09-.24.19-.49.3-.73l-1.4-.59-.14.31a7.56,7.56,0,0,0-.26.71q-.14.43-.27,1a7.83,7.83,0,0,0-.16,1.17c0,.08,0,.17,0,.27s0,.19,0,.29a3.82,3.82,0,0,0,.32,1.6,3.29,3.29,0,0,0,.89,1.17,3.89,3.89,0,0,0,1.35.71,5.59,5.59,0,0,0,1.72.24,9.46,9.46,0,0,0,1.07-.06,8.53,8.53,0,0,0,1.12-.22,6.74,6.74,0,0,0,1.06-.39,3.72,3.72,0,0,0,.89-.59,2.67,2.67,0,0,0,.6-.81,2.21,2.21,0,0,0,.23-1,1.62,1.62,0,0,0-.18-.8,1.53,1.53,0,0,0-.48-.5,2.67,2.67,0,0,0-.69-.3L60,66.25l-.43-.11a1.71,1.71,0,0,1-.38-.13,1,1,0,0,1-.27-.17.3.3,0,0,1-.09-.25,1.63,1.63,0,0,1,.28-.71A2.58,2.58,0,0,1,59.62,64.28Z"/><path d="M72.53,63.11a5.47,5.47,0,0,0-.41-.71,8.27,8.27,0,0,0-.51-.66,7.66,7.66,0,0,0-.57-.57,5,5,0,0,0-.56-.45L74.18,59l-.68-1.49L68.83,59.6l-.18,1.51c.22.17.42.35.63.54s.4.36.59.55l.54.53c.17.18.31.34.44.5a4.35,4.35,0,0,1,.32.43,1.35,1.35,0,0,1,.17.34,1.38,1.38,0,0,1,.06.64.87.87,0,0,1-.21.43,1,1,0,0,1-.43.25,3,3,0,0,1-.57.14c-.22,0-.43,0-.65,0H68.33a5.86,5.86,0,0,0-.43-1.68,4.6,4.6,0,0,0-.4-.76,3,3,0,0,0-.52-.61,2.78,2.78,0,0,0-.65-.42,2.08,2.08,0,0,0-.78-.15,1.65,1.65,0,0,0-.66.13,2.12,2.12,0,0,0-.57.36,2.92,2.92,0,0,0-.46.53,3.92,3.92,0,0,0-.34.64,4.33,4.33,0,0,0-.21.7,3.23,3.23,0,0,0-.07.69,2.35,2.35,0,0,0,.17.95,2,2,0,0,0,.51.7,2.4,2.4,0,0,0,.77.45,3.5,3.5,0,0,0,1,.21l.43,0h.51a2,2,0,0,1-.45.66,3.78,3.78,0,0,1-.81.62,6.11,6.11,0,0,1-1.13.53,10.5,10.5,0,0,1-1.43.4l.41,1.71a7.53,7.53,0,0,0,1.69-.45,6.83,6.83,0,0,0,1.47-.82,5.45,5.45,0,0,0,1.14-1.16,4.4,4.4,0,0,0,.69-1.49H70.1a3.1,3.1,0,0,0,1.13-.21,2.74,2.74,0,0,0,.89-.58,2.65,2.65,0,0,0,.59-.85,2.85,2.85,0,0,0,.21-1.08,2.44,2.44,0,0,0-.1-.71A3.58,3.58,0,0,0,72.53,63.11Zm-6.11,2.41a3.17,3.17,0,0,1-.43,0c-.16,0-.31,0-.46-.06a2.17,2.17,0,0,1-.42-.11,1.05,1.05,0,0,1-.3-.22.43.43,0,0,1-.12-.31,1,1,0,0,1,.09-.41A1.58,1.58,0,0,1,65,64a1.07,1.07,0,0,1,.28-.28.35.35,0,0,1,.26-.08.87.87,0,0,1,.43.21,1.53,1.53,0,0,1,.34.42,3,3,0,0,1,.27.57,6.36,6.36,0,0,1,.2.66Z"/><polygon points="73.01 56.34 68.75 58.11 68.7 58.95 73.31 57 73.01 56.34"/><path d="M82.49,61.62c0-.77-.08-1.4-.11-1.89s0-.86-.07-1.11,0-.39,0-.45l-1.76.43a1.49,1.49,0,0,1,0,.21c0,.15,0,.36,0,.62s0,.56.07.9,0,.69.07,1.05,0,.72.07,1.08,0,.66.06.95,0,.52,0,.71,0,.29,0,.32a2.36,2.36,0,0,1,0,.53.81.81,0,0,1-.14.33.61.61,0,0,1-.29.17,1.75,1.75,0,0,1-.46,0h-.44a6.11,6.11,0,0,0-.43-1.68,4.23,4.23,0,0,0-.4-.76,2.8,2.8,0,0,0-.53-.61,2.13,2.13,0,0,0-.65-.42,1.9,1.9,0,0,0-.78-.15,1.54,1.54,0,0,0-.67.13,2.06,2.06,0,0,0-.56.36,2.34,2.34,0,0,0-.46.53,3,3,0,0,0-.34.64,3.46,3.46,0,0,0-.22.69,4.15,4.15,0,0,0-.07.7,2.2,2.2,0,0,0,.18,1,2,2,0,0,0,.5.7,2.52,2.52,0,0,0,.78.45,3.79,3.79,0,0,0,1,.21l.44,0h.51a2.06,2.06,0,0,1-.46.67,4,4,0,0,1-.8.62,6.57,6.57,0,0,1-1.14.53,8.62,8.62,0,0,1-1.43.39l.41,1.72a7.55,7.55,0,0,0,1.69-.46,6.25,6.25,0,0,0,1.48-.81,5.27,5.27,0,0,0,1.14-1.17,4.55,4.55,0,0,0,.69-1.48H80a3,3,0,0,0,1.18-.22,2.3,2.3,0,0,0,.83-.59,2.36,2.36,0,0,0,.47-.9,3.51,3.51,0,0,0,.13-1.16C82.57,63.32,82.53,62.38,82.49,61.62Zm-4.85,3.9a3.17,3.17,0,0,1-.43,0c-.15,0-.31,0-.46-.06a2,2,0,0,1-.42-.11,1.05,1.05,0,0,1-.3-.22.43.43,0,0,1-.12-.31,1.15,1.15,0,0,1,.08-.41,2.08,2.08,0,0,1,.22-.38,1.07,1.07,0,0,1,.28-.28.35.35,0,0,1,.26-.08.87.87,0,0,1,.43.21,1.74,1.74,0,0,1,.34.42,2.44,2.44,0,0,1,.26.57,4.6,4.6,0,0,1,.2.66Z"/></g></g></g></g></svg>