<svg xmlns="http://www.w3.org/2000/svg" viewBox="0 0 20 20"><defs><style>.cls-1{fill:#fff;}</style></defs><g id="Layer_2" data-name="Layer 2"><g id="Layer_1-2" data-name="Layer 1"><path class="cls-1" d="M17.22,0H2.78A2.77,2.77,0,0,0,0,2.78V17.22A2.77,2.77,0,0,0,2.78,20H17.22A2.77,2.77,0,0,0,20,17.22V2.78A2.77,2.77,0,0,0,17.22,0Zm1.67,17.22a1.67,1.67,0,0,1-1.67,1.67H2.78a1.67,1.67,0,0,1-1.67-1.67V2.78A1.67,1.67,0,0,1,2.78,1.11H17.22a1.67,1.67,0,0,1,1.67,1.67Z"/><path class="cls-1" d="M10,4.44A5.56,5.56,0,1,0,15.56,10,5.56,5.56,0,0,0,10,4.44Zm0,10A4.44,4.44,0,1,1,14.44,10,4.44,4.44,0,0,1,10,14.44Z"/><path class="cls-1" d="M16.11,2.22a1.67,1.67,0,1,0,1.67,1.67,1.67,1.67,0,0,0-1.67-1.67Zm0,2.22a.54.54,0,0,1-.55-.55.55.55,0,0,1,.55-.56.56.56,0,0,1,.56.56.55.55,0,0,1-.56.55Z"/></g></g></svg>