<svg xmlns="http://www.w3.org/2000/svg" xmlns:xlink="http://www.w3.org/1999/xlink" viewBox="0 0 107.23 107.23"><defs><style>.cls-1{fill:url(#linear-gradient);}</style><linearGradient id="linear-gradient" y1="-6584.57" x2="107.23" y2="-6584.57" gradientTransform="matrix(1, 0, 0, -1, 0, -6530.95)" gradientUnits="userSpaceOnUse"><stop offset="0" stop-color="#79e2cd"/><stop offset="0.23" stop-color="#7ddbcf"/><stop offset="0.56" stop-color="#81c8d3"/><stop offset="0.96" stop-color="#95a9db"/><stop offset="1" stop-color="#98a5dc"/></linearGradient></defs><g id="Layer_2" data-name="Layer 2"><g id="Layer_1-2" data-name="Layer 1"><g id="Layer_2-2" data-name="Layer 2"><g id="Layer_1-2-2" data-name="Layer 1-2"><path class="cls-1" d="M53.62,0h0a53.61,53.61,0,0,1,53.61,53.62h0a53.61,53.61,0,0,1-53.61,53.61h0A53.61,53.61,0,0,1,0,53.62H0A53.61,53.61,0,0,1,53.62,0Z"/><path d="M23.35,45.39a4.23,4.23,0,0,1,.17-.93,4.62,4.62,0,0,1,.39-.88,4.33,4.33,0,0,1,.57-.78,3.94,3.94,0,0,1,.74-.61,3.34,3.34,0,0,1,.85-.41,3.27,3.27,0,0,1,1-.15,2.87,2.87,0,0,1,.77.11,3.93,3.93,0,0,1,.8.32L28,43.69a3,3,0,0,0-.5-.19,1.74,1.74,0,0,0-.45-.06,2.09,2.09,0,0,0-.71.15,3.11,3.11,0,0,0-.68.4,3,3,0,0,0-.53.59,1.63,1.63,0,0,0-.27.7.29.29,0,0,0,.09.25.56.56,0,0,0,.26.17,1.71,1.71,0,0,0,.38.13l.43.11.79.23a3,3,0,0,1,.69.3,1.43,1.43,0,0,1,.65,1.3,2.32,2.32,0,0,1-.22,1,2.7,2.7,0,0,1-.61.81,3.44,3.44,0,0,1-.88.58,5.78,5.78,0,0,1-1.05.39,7.15,7.15,0,0,1-1.12.22c-.36,0-.71.06-1.07.07a5.92,5.92,0,0,1-1.72-.25,3.73,3.73,0,0,1-1.35-.71,3.14,3.14,0,0,1-.88-1.16,3.82,3.82,0,0,1-.32-1.6v-.28a2.46,2.46,0,0,1,0-.28,6.48,6.48,0,0,1,.16-1.16c.08-.37.17-.7.26-1s.19-.53.27-.71.12-.28.13-.31l1.39.58c-.1.25-.2.49-.29.73a7.16,7.16,0,0,0-.23.75,6.57,6.57,0,0,0-.16.77,5.25,5.25,0,0,0-.06.79,1.88,1.88,0,0,0,.25,1,1.84,1.84,0,0,0,.62.62,2.52,2.52,0,0,0,.88.32,5.14,5.14,0,0,0,1,.1,8.2,8.2,0,0,0,1.32-.1,6.4,6.4,0,0,0,1.07-.25,3.15,3.15,0,0,0,.76-.37.79.79,0,0,0,.33-.43l-.75-.16c-.26-.06-.51-.13-.77-.21a4,4,0,0,1-.72-.29,2.08,2.08,0,0,1-.59-.43,1.64,1.64,0,0,1-.39-.61A1.84,1.84,0,0,1,23.35,45.39Z"/><path d="M33.76,47a2,2,0,0,1-.32,0,1.16,1.16,0,0,1-.45-.12,4.35,4.35,0,0,1-.46,1.31,6,6,0,0,1-.83,1.16,7.7,7.7,0,0,1-1.13,1,11.36,11.36,0,0,1-1.34.81l-1-1.4.79-.43c.27-.16.52-.33.77-.5a8.77,8.77,0,0,0,.68-.56,4.37,4.37,0,0,0,.55-.59,3,3,0,0,0,.37-.62,1.79,1.79,0,0,0,.13-.65,2.63,2.63,0,0,0-.09-.55,6.75,6.75,0,0,0-.21-.71c-.09-.26-.18-.51-.28-.77l-.3-.71,1.6-.7c.12.37.27.74.43,1.11a5.49,5.49,0,0,0,.39.71,1.45,1.45,0,0,0,.37.37.6.6,0,0,0,.34.11h.14V47Z"/><path d="M38.6,45.23V47h-.12a3.08,3.08,0,0,1-.53,0,2.62,2.62,0,0,1-.48-.13,2.08,2.08,0,0,1-.43-.19,2,2,0,0,1-.33-.24,2,2,0,0,1-.6.32,4.35,4.35,0,0,1-.71.18,6.7,6.7,0,0,1-.77.08l-.78,0h-.22V45.23h.22c.27,0,.5,0,.71,0a4.85,4.85,0,0,0,.55-.08,1.49,1.49,0,0,0,.4-.15.82.82,0,0,0,.26-.23,1,1,0,0,0,.16-.39,2.38,2.38,0,0,0-.09-.91c0-.15-.08-.3-.11-.44l1.61-.46c0,.17.08.32.12.45s.06.27.08.4.05.26.06.4,0,.27.06.43l.06.32a1.75,1.75,0,0,0,.12.32.79.79,0,0,0,.23.25.6.6,0,0,0,.39.1Zm-2.78,3.38-1,1L33.7,48.58l1.07-1.08,1.06,1.06,1-1.05,1.07,1.08-1.07,1.07Z"/><path d="M38.39,45.23h1.19a4.6,4.6,0,0,0,.64,0,2.93,2.93,0,0,0,.57-.13,1.16,1.16,0,0,0,.43-.25.79.79,0,0,0,.21-.43,1.43,1.43,0,0,0-.06-.65,1.26,1.26,0,0,0-.16-.33c-.1-.15-.21-.29-.32-.43s-.28-.32-.45-.5-.34-.35-.53-.53-.38-.37-.59-.55-.42-.36-.62-.53l.17-1.5,4.66-2.08.67,1.49-3.68,1.71c.19.14.38.29.56.45s.38.37.56.57a8,8,0,0,1,.51.64,6.23,6.23,0,0,1,.41.71,3.7,3.7,0,0,1,.28.72,2.55,2.55,0,0,1,.1.72,2.8,2.8,0,0,1-.21,1.07,2.69,2.69,0,0,1-.59.86,2.57,2.57,0,0,1-.88.57,2.92,2.92,0,0,1-1.13.22H38.39Zm.4-7.38L43,36.08l.31.66-4.59,1.94Z"/><path d="M47,43.67l.24.83c.07.29.13.57.18.86a5.29,5.29,0,0,1,.07.8,3.85,3.85,0,0,1-.14,1,4.83,4.83,0,0,1-.4,1,6.75,6.75,0,0,1-.62.89,7.46,7.46,0,0,1-.78.81,9.7,9.7,0,0,1-1.95,1.29l-1-1.41q.39-.19.81-.45t.78-.54a8,8,0,0,0,.7-.61,4.94,4.94,0,0,0,.56-.64,2.9,2.9,0,0,0,.38-.66,1.66,1.66,0,0,0,.14-.66,2.07,2.07,0,0,0-.06-.5,5.76,5.76,0,0,0-.18-.59c-.07-.21-.16-.43-.25-.66s-.22-.49-.32-.76l1.6-.73C46.82,43.14,46.9,43.4,47,43.67Z"/><path d="M48.55,46.05c0-.32,0-.64.05-1s0-.63,0-.93v-.83c0-.52-.05-1-.07-1.38s0-.75-.06-1.06,0-.57-.06-.8,0-.45-.07-.65,0-.37-.07-.54,0-.34-.08-.52l1.72-.57c.08.5.14,1,.19,1.5s.09,1,.12,1.45,0,.89,0,1.28,0,.74,0,1v.83c0,.29,0,.6,0,.92s0,.64,0,1,0,.65-.05,1L48.51,47C48.52,46.69,48.54,46.38,48.55,46.05Z"/><path d="M55.21,47a2.13,2.13,0,0,1-.33,0,1.21,1.21,0,0,1-.45-.12A4.35,4.35,0,0,1,54,48.15a6,6,0,0,1-.83,1.16,8.17,8.17,0,0,1-1.12,1,11.48,11.48,0,0,1-1.35.81l-1-1.4.79-.43c.27-.16.53-.33.77-.5s.46-.36.68-.55a5,5,0,0,0,.54-.59A2.82,2.82,0,0,0,52.8,47a1.56,1.56,0,0,0,.13-.64,2,2,0,0,0-.08-.55c-.06-.21-.13-.46-.22-.71a8.11,8.11,0,0,0-.28-.78c-.1-.26-.21-.49-.3-.71l1.61-.7A10.56,10.56,0,0,0,54.08,44a3.81,3.81,0,0,0,.4.71,1.19,1.19,0,0,0,.36.38.61.61,0,0,0,.35.11h.13V47Z"/><path d="M55.29,45.23h.49c.2,0,.41,0,.63,0l.67,0c.22,0,.44,0,.66-.08a5.27,5.27,0,0,0,.57-.14,1.56,1.56,0,0,0,.43-.21,9.85,9.85,0,0,1-1.33,0,2.91,2.91,0,0,1-1-.23,1.44,1.44,0,0,1-.69-.6,2,2,0,0,1-.25-1.06,3.5,3.5,0,0,1,.25-1.27A3.64,3.64,0,0,1,56,41a2.52,2.52,0,0,1,.43-.49,1.87,1.87,0,0,1,.54-.33,1.56,1.56,0,0,1,.64-.13,1.9,1.9,0,0,1,.81.17,2.18,2.18,0,0,1,.64.45,3.24,3.24,0,0,1,.51.66,4,4,0,0,1,.36.79,5.17,5.17,0,0,1,.22.86,4.73,4.73,0,0,1,.07.83A3.24,3.24,0,0,1,60,45a2.74,2.74,0,0,1-.52.85,3,3,0,0,1-.79.57,4.62,4.62,0,0,1-1,.34,7.63,7.63,0,0,1-1.15.18c-.41,0-.83,0-1.25,0h-.2V45.22Zm2.26-6.77-1,1-1.07-1.08,1.07-1.07,1.06,1.06,1-1.05,1.07,1.08L58.6,39.52Zm0,3.38a.46.46,0,0,0-.26.07.88.88,0,0,0-.25.22,1.17,1.17,0,0,0-.19.3.84.84,0,0,0-.07.35.34.34,0,0,0,.1.27.83.83,0,0,0,.26.17,1.53,1.53,0,0,0,.37.08,2.6,2.6,0,0,0,.4,0h.37l.27,0a2.83,2.83,0,0,0-.13-.5,2.14,2.14,0,0,0-.2-.47A1.21,1.21,0,0,0,58,42,.64.64,0,0,0,57.57,41.84Z"/><path d="M66,46a2.92,2.92,0,0,0-.13,1,1.86,1.86,0,0,0,.21.73,2.3,2.3,0,0,0,.49.59,2.23,2.23,0,0,0,.67.42,2,2,0,0,0,.76.15,2.1,2.1,0,0,0,.51-.06,2.66,2.66,0,0,0,.55-.16,2.61,2.61,0,0,0,.52-.28A1.72,1.72,0,0,0,70,48a1.77,1.77,0,0,0,.31-.55,1.87,1.87,0,0,0,.11-.7c0-.29,0-.64,0-1s0-.82-.06-1.27,0-.91-.09-1.39-.06-.94-.1-1.4L70.07,40c0-.54-.09-1.12-.14-1.71l1.77-.41c0,.63,0,1.23.07,1.82s0,1.15.07,1.73,0,1,0,1.48,0,1,0,1.46a1.3,1.3,0,0,0,.08.34,1,1,0,0,0,.17.27,1,1,0,0,0,.26.19.84.84,0,0,0,.35.07h.12V47h-.53a1.45,1.45,0,0,1-.41-.1,4.15,4.15,0,0,1-.2,1.26,3.48,3.48,0,0,1-.49,1,3.32,3.32,0,0,1-.69.71,4,4,0,0,1-.82.47,4.48,4.48,0,0,1-.88.27,4.6,4.6,0,0,1-.84.08,4,4,0,0,1-.91-.11,3.7,3.7,0,0,1-.86-.32,3.53,3.53,0,0,1-.76-.52,3.31,3.31,0,0,1-.6-.69,3.37,3.37,0,0,1-.53-1.88,5.62,5.62,0,0,1,0-.7c0-.24.06-.47.1-.7a7,7,0,0,1,.19-.69,5.37,5.37,0,0,1,.29-.65l1.39.67A4.58,4.58,0,0,0,66,46Z"/><path d="M72.69,45.23h1.12a6.11,6.11,0,0,0,.86-.06A7.81,7.81,0,0,0,75.6,45c.31-.06.63-.13,1-.22l.93-.28c.3-.1.59-.21.85-.32s.53-.21.77-.33c-.26-.07-.52-.14-.77-.23l-.86-.3c-.29-.1-.57-.18-.84-.25A3,3,0,0,0,75.9,43a1,1,0,0,0-.39.08,2.08,2.08,0,0,0-.36.2,2.35,2.35,0,0,0-.29.26,2.73,2.73,0,0,0-.23.25l-.15.21,0,.07-1.3-.75a5.19,5.19,0,0,1,.53-.79,4.78,4.78,0,0,1,.68-.67,3.34,3.34,0,0,1,.77-.46,2,2,0,0,1,.81-.17,3.07,3.07,0,0,1,.6.07,5.72,5.72,0,0,1,.59.17l.61.24.61.28c.22.1.45.21.7.3a5.92,5.92,0,0,0,.81.27,8.64,8.64,0,0,0,.85.19,5.07,5.07,0,0,0,.86.07l-.29,1.64-.28.13-.28.13-.15.08a1.13,1.13,0,0,0,.3.24,2,2,0,0,0,.41.13,2.57,2.57,0,0,0,.4,0h.49V47H82a4.77,4.77,0,0,1-1-.09,4.29,4.29,0,0,1-.86-.27,3.71,3.71,0,0,1-.68-.43,2.57,2.57,0,0,1-.5-.59c-.36.18-.74.35-1.14.52s-.8.31-1.23.44a10.15,10.15,0,0,1-1.32.32A8.53,8.53,0,0,1,73.8,47H72.68Z"/><path d="M86.75,47a4,4,0,0,1-.69-.07,5.56,5.56,0,0,1-.7-.19,4,4,0,0,1-.64-.27,4.4,4.4,0,0,1-.56-.31,2.16,2.16,0,0,1-.39.41,2,2,0,0,1-1,.4,4,4,0,0,1-.6.05H82V45.23h.27a1.12,1.12,0,0,0,.62-.15,1.57,1.57,0,0,0,.43-.38,3.1,3.1,0,0,0,.31-.52c.09-.2.19-.38.28-.56a7.73,7.73,0,0,1,.38-.68,2.81,2.81,0,0,1,.48-.61,2.07,2.07,0,0,1,.61-.44,1.7,1.7,0,0,1,.77-.17,1.77,1.77,0,0,1,1,.27,2.3,2.3,0,0,1,.69.7,3.27,3.27,0,0,1,.4,1,4.67,4.67,0,0,1,.13,1.11,2.56,2.56,0,0,1-.14.87,2.27,2.27,0,0,1-.36.69,1.7,1.7,0,0,1-.5.46A1.14,1.14,0,0,1,86.75,47ZM86,43.41a.42.42,0,0,0-.3.13,1.3,1.3,0,0,0-.26.31,2.16,2.16,0,0,0-.22.39l-.17.4a2.32,2.32,0,0,0,.41.22L86,45l.5.13.49.07a2.52,2.52,0,0,0,0-.67,1.8,1.8,0,0,0-.19-.58,1.24,1.24,0,0,0-.31-.41.59.59,0,0,0-.4-.16Z"/><path d="M21.64,65c.21.1.43.19.64.27a4.88,4.88,0,0,0,.65.2,1.89,1.89,0,0,0,.53.08,2.57,2.57,0,0,0,.36,0,2.15,2.15,0,0,0,.44-.09,1,1,0,0,0,.38-.18.37.37,0,0,0,.18-.3,1.05,1.05,0,0,0-.13-.49,4.28,4.28,0,0,0-.37-.57,6,6,0,0,0-.53-.6c-.2-.2-.41-.39-.63-.58a7.67,7.67,0,0,0-.64-.52c-.21-.16-.41-.3-.59-.42l1-1.46c.37.27.73.56,1.07.86a10.17,10.17,0,0,1,1,1,8.22,8.22,0,0,1,.78,1.08,4.09,4.09,0,0,1,.47,1.12,1.8,1.8,0,0,1,.06.32c0,.11,0,.21,0,.32a2.21,2.21,0,0,1-.76,1.69,2.51,2.51,0,0,1-.86.48,3.13,3.13,0,0,1-1.1.17H23.4a3.47,3.47,0,0,1-.79-.08,5.41,5.41,0,0,1-.79-.21,7.35,7.35,0,0,1-.77-.32c-.23-.11-.46-.24-.68-.37l.73-1.67A4.68,4.68,0,0,0,21.64,65Z"/><path d="M29.89,67.25a3.3,3.3,0,0,1-1.17-.19,2.07,2.07,0,0,1-.79-.51,1.84,1.84,0,0,1-.44-.78,3.48,3.48,0,0,1-.14-1V62.08c0-.42,0-.83,0-1.25s0-.82-.07-1.2a8.45,8.45,0,0,0-.13-1l1.66-.5a7.9,7.9,0,0,1,.12.85c0,.33.06.68.07,1s0,.73.05,1.1,0,.7,0,1,0,.57,0,.87,0,.6,0,.88,0,.53,0,.76a1.49,1.49,0,0,0,.1.51.5.5,0,0,0,.3.3l.22,0H30v1.75Z"/><path d="M34.74,67.23a2.93,2.93,0,0,1-.66,0A7.25,7.25,0,0,1,33.3,67a7.08,7.08,0,0,1-.77-.28,3.33,3.33,0,0,1-.64-.35,2.29,2.29,0,0,1-.83.65,2.64,2.64,0,0,1-1.11.21h-.11V65.5H30a1.21,1.21,0,0,0,.62-.15A1.53,1.53,0,0,0,31,65a2.35,2.35,0,0,0,.32-.52c.09-.19.18-.38.28-.56s.24-.45.38-.68a3.07,3.07,0,0,1,.48-.61,2.21,2.21,0,0,1,.61-.44,1.57,1.57,0,0,1,.76-.17,2.12,2.12,0,0,1,.93.19,1.82,1.82,0,0,1,.63.54,2.53,2.53,0,0,1,.41.78,7.7,7.7,0,0,1,.26.94,5.06,5.06,0,0,0,.18.77c.06.19.12.29.19.29h.18v1.75h-.22a1,1,0,0,1-.56-.15,2.16,2.16,0,0,1-.43-.37l-.16.17-.16.16a.79.79,0,0,1-.15.12A.41.41,0,0,1,34.74,67.23Zm-1-3.56a.56.56,0,0,0-.3.12,1.12,1.12,0,0,0-.25.28,2.26,2.26,0,0,0-.22.37l-.17.38a3.62,3.62,0,0,0,.43.24,4.65,4.65,0,0,0,.52.2,5.11,5.11,0,0,0,.53.13,3.55,3.55,0,0,0,.47.08c-.05-.21-.1-.41-.16-.63a3.9,3.9,0,0,0-.21-.57,1.6,1.6,0,0,0-.28-.43.53.53,0,0,0-.36-.17Z"/><path d="M36.36,65.5h.74l.52,0a3.3,3.3,0,0,0,.52-.13,1.23,1.23,0,0,0,.4-.23.48.48,0,0,0,.17-.37,1.8,1.8,0,0,0-.08-.39,4,4,0,0,0-.22-.59l-.28-.68c-.11-.24-.22-.46-.33-.68l1.59-.78c.1.23.22.48.31.74s.19.53.27.8a6.85,6.85,0,0,1,.2.81,3.91,3.91,0,0,1,.07.76A2.64,2.64,0,0,1,40,65.87a2.13,2.13,0,0,1-.62.78,2.49,2.49,0,0,1-1,.45,5,5,0,0,1-1.22.15h-.88ZM38.13,61,36.9,59.79l1.23-1.23,1.23,1.23Z"/><path d="M45,65.66a3.65,3.65,0,0,1,.18-.93,4.11,4.11,0,0,1,.38-.89,5.35,5.35,0,0,1,.58-.77,4.35,4.35,0,0,1,.73-.62,3.54,3.54,0,0,1,.86-.4,3.17,3.17,0,0,1,1-.15,2.87,2.87,0,0,1,.77.11,3.36,3.36,0,0,1,.79.32L49.64,64l-.51-.18a1.74,1.74,0,0,0-.45-.06,1.78,1.78,0,0,0-.71.15,2.83,2.83,0,0,0-.67.4,2.53,2.53,0,0,0-.54.59,1.71,1.71,0,0,0-.27.7.3.3,0,0,0,.09.25.9.9,0,0,0,.26.17,2.84,2.84,0,0,0,.38.13l.43.11.8.22a2.79,2.79,0,0,1,.68.31,1.64,1.64,0,0,1,.48.5,1.68,1.68,0,0,1,.18.8,2.35,2.35,0,0,1-.23,1,2.7,2.7,0,0,1-.61.81,3.73,3.73,0,0,1-.88.58,6.63,6.63,0,0,1-1,.39,8.53,8.53,0,0,1-1.12.22,9.46,9.46,0,0,1-1.07.06,5.59,5.59,0,0,1-1.72-.24,3.89,3.89,0,0,1-1.35-.71A3.14,3.14,0,0,1,40.88,69a3.85,3.85,0,0,1-.32-1.6,2.81,2.81,0,0,1,0-.29,2.65,2.65,0,0,0,0-.27,7.53,7.53,0,0,1,.16-1.16,8.68,8.68,0,0,1,.27-1,7.24,7.24,0,0,1,.26-.7l.13-.31,1.4.58c-.11.24-.2.49-.3.73a7.16,7.16,0,0,0-.23.75,6.57,6.57,0,0,0-.16.77,5.16,5.16,0,0,0-.06.79,1.93,1.93,0,0,0,.23,1,1.9,1.9,0,0,0,.62.61,2.47,2.47,0,0,0,.89.33,5.07,5.07,0,0,0,1,.1,8.38,8.38,0,0,0,1.32-.1A6.64,6.64,0,0,0,47.22,69a2.91,2.91,0,0,0,.75-.37.75.75,0,0,0,.33-.43L47.56,68a7.27,7.27,0,0,1-.77-.2,3.74,3.74,0,0,1-.72-.29,2.08,2.08,0,0,1-.59-.43,1.52,1.52,0,0,1-.39-.61A1.94,1.94,0,0,1,45,65.66Z"/><path d="M51.18,66.32c0-.32,0-.64,0-1s0-.63,0-.93V63.6c0-.52,0-1-.07-1.38s0-.75-.06-1.06,0-.57-.06-.8,0-.45-.06-.65,0-.37-.08-.54-.05-.34-.08-.52l1.72-.57c.08.49.14,1,.19,1.5s.09,1,.12,1.44,0,.89.05,1.29,0,.74,0,1v.82c0,.3,0,.61,0,.93s0,.64,0,1,0,.64,0,.95l-1.72.27C51.14,67,51.16,66.65,51.18,66.32Z"/><path d="M61.67,65.66a4.13,4.13,0,0,1,.17-.93,4.17,4.17,0,0,1,1-1.66,4,4,0,0,1,.73-.62,3.22,3.22,0,0,1,.86-.4,3.11,3.11,0,0,1,1-.15,2.87,2.87,0,0,1,.77.11,3.26,3.26,0,0,1,.8.32L66.31,64a4.24,4.24,0,0,0-.5-.18,1.74,1.74,0,0,0-1.16.09,3.11,3.11,0,0,0-.68.4,2.73,2.73,0,0,0-.53.59,1.71,1.71,0,0,0-.27.7.33.33,0,0,0,.08.25,1,1,0,0,0,.27.17,2.43,2.43,0,0,0,.38.13l.43.11.79.22a2.86,2.86,0,0,1,.69.31,1.5,1.5,0,0,1,.47.5,1.58,1.58,0,0,1,.19.8,2.5,2.5,0,0,1-.23,1,2.7,2.7,0,0,1-.61.81,3.73,3.73,0,0,1-.88.58,6.63,6.63,0,0,1-1,.39,8.53,8.53,0,0,1-1.12.22,9.46,9.46,0,0,1-1.07.06,5.59,5.59,0,0,1-1.72-.24,3.89,3.89,0,0,1-1.35-.71A3.23,3.23,0,0,1,57.56,69a3.85,3.85,0,0,1-.32-1.6,2.81,2.81,0,0,1,0-.29c0-.09,0-.19,0-.27a6.48,6.48,0,0,1,.16-1.16,8.68,8.68,0,0,1,.27-1A7.24,7.24,0,0,1,58,64c.08-.18.12-.29.13-.31l1.39.58c-.1.24-.2.49-.29.73a7.16,7.16,0,0,0-.23.75,6.57,6.57,0,0,0-.16.77,5.16,5.16,0,0,0-.06.79,1.93,1.93,0,0,0,.23,1,1.9,1.9,0,0,0,.62.61,2.67,2.67,0,0,0,.89.33,5.07,5.07,0,0,0,1,.1,8.38,8.38,0,0,0,1.32-.1A6.64,6.64,0,0,0,63.9,69a2.91,2.91,0,0,0,.75-.37.75.75,0,0,0,.33-.43L64.24,68a6.69,6.69,0,0,1-.77-.2,3.74,3.74,0,0,1-.72-.29,2.28,2.28,0,0,1-.6-.43,1.77,1.77,0,0,1-.39-.61A1.94,1.94,0,0,1,61.67,65.66Z"/><path d="M67.16,69.45a8.78,8.78,0,0,0,1.42-.39,6.48,6.48,0,0,0,1.13-.53,3.78,3.78,0,0,0,.81-.62,2,2,0,0,0,.45-.66h-.51a2.49,2.49,0,0,1-.42,0A3.72,3.72,0,0,1,69,67a2.5,2.5,0,0,1-.78-.44,2,2,0,0,1-.5-.7,2.53,2.53,0,0,1-.18-.94,4.06,4.06,0,0,1,.08-.7,4.22,4.22,0,0,1,.21-.69,3.36,3.36,0,0,1,.34-.65,2.52,2.52,0,0,1,.46-.52,1.92,1.92,0,0,1,.56-.36,1.65,1.65,0,0,1,.66-.13,2.08,2.08,0,0,1,.78.15,2.41,2.41,0,0,1,.64.41,3.16,3.16,0,0,1,.53.62,4.51,4.51,0,0,1,.4.75,6.23,6.23,0,0,1,.28.83,6.31,6.31,0,0,1,.15.85h.24v1.75h-.36a4.55,4.55,0,0,1-.69,1.48,5.4,5.4,0,0,1-1.13,1.16,6.39,6.39,0,0,1-1.47.81,7.61,7.61,0,0,1-1.68.46Zm2.72-5.81a.38.38,0,0,0-.27.08,1.24,1.24,0,0,0-.28.28,2.82,2.82,0,0,0-.21.38.84.84,0,0,0-.08.41.43.43,0,0,0,.12.31.75.75,0,0,0,.3.2,1.48,1.48,0,0,0,.41.12l.46.06.43,0h.34a4.6,4.6,0,0,0-.2-.66,2.44,2.44,0,0,0-.26-.57,1.53,1.53,0,0,0-.34-.42A.84.84,0,0,0,69.88,63.64Z"/><path d="M72.68,65.5h1.19c.21,0,.43,0,.64,0a3.9,3.9,0,0,0,.57-.13,1.06,1.06,0,0,0,.43-.26.87.87,0,0,0,.21-.43,1.4,1.4,0,0,0-.06-.64,1,1,0,0,0-.17-.33,2.67,2.67,0,0,0-.32-.43,4.78,4.78,0,0,0-.44-.5l-.53-.54-.59-.55L73,61.11l.17-1.5,4.66-2.07L78.49,59l-3.68,1.72c.19.14.38.29.56.45s.38.37.56.57a8,8,0,0,1,.51.64,6.1,6.1,0,0,1,.41.7,4.06,4.06,0,0,1,.28.73,2.5,2.5,0,0,1,.1.72,2.64,2.64,0,0,1-.8,1.93,2.72,2.72,0,0,1-.88.57,2.91,2.91,0,0,1-1.13.21H72.68Zm.4-7.38,4.24-1.77.31.66L73,59Z"/><path d="M78.34,69.45a8.78,8.78,0,0,0,1.42-.39,6.48,6.48,0,0,0,1.13-.53,3.78,3.78,0,0,0,.81-.62,2.15,2.15,0,0,0,.45-.66h-.5a2.56,2.56,0,0,1-.43,0,3.72,3.72,0,0,1-1-.22,2.5,2.5,0,0,1-.78-.44,1.92,1.92,0,0,1-.5-.7,2.53,2.53,0,0,1-.18-.94,3.27,3.27,0,0,1,.08-.7,3.94,3.94,0,0,1,.21-.69,3.36,3.36,0,0,1,.34-.65,2.52,2.52,0,0,1,.46-.52,1.92,1.92,0,0,1,.56-.36,1.65,1.65,0,0,1,.66-.13,2.08,2.08,0,0,1,.78.15,2.41,2.41,0,0,1,.64.41,3.16,3.16,0,0,1,.53.62,5.4,5.4,0,0,1,.4.75,6.23,6.23,0,0,1,.28.83,6.31,6.31,0,0,1,.15.85h.24v1.75h-.36A4.55,4.55,0,0,1,83,68.72a5.4,5.4,0,0,1-1.13,1.16,6.39,6.39,0,0,1-1.47.81,7.61,7.61,0,0,1-1.68.46Zm2.73-5.81a.38.38,0,0,0-.27.08,1.24,1.24,0,0,0-.28.28,2.82,2.82,0,0,0-.21.38,1,1,0,0,0-.08.41.43.43,0,0,0,.12.31.75.75,0,0,0,.3.2,1.48,1.48,0,0,0,.41.12,3.62,3.62,0,0,0,.46.06l.43,0h.34a4.6,4.6,0,0,0-.2-.66,2.94,2.94,0,0,0-.26-.57,1.74,1.74,0,0,0-.34-.42A.84.84,0,0,0,81.07,63.64Z"/><path d="M83.86,65.5h.43a1.82,1.82,0,0,0,.46-.06.46.46,0,0,0,.28-.17.65.65,0,0,0,.14-.33,2.27,2.27,0,0,0,0-.52,3.07,3.07,0,0,0,0-.33c0-.18,0-.43,0-.7s0-.6-.06-1,0-.7-.07-1.07-.05-.71-.07-1,0-.64-.07-.9,0-.46-.05-.61a1.5,1.5,0,0,0,0-.22l1.76-.43c0,.06,0,.22,0,.46s0,.61.08,1.1.06,1.12.1,1.88.08,1.69.12,2.79a3.45,3.45,0,0,1-.13,1.15,2.36,2.36,0,0,1-.47.9,2.22,2.22,0,0,1-.83.59,2.92,2.92,0,0,1-1.17.21h-.43Z"/></g></g></g></g></svg>