<svg xmlns="http://www.w3.org/2000/svg" viewBox="0 0 30.34 30.34"><defs><style>.cls-1{fill:#666;}</style></defs><g id="Layer_2" data-name="Layer 2"><g id="Layer_1-2" data-name="Layer 1"><path class="cls-1" d="M11.24,22.48a11.24,11.24,0,1,1,8-19.19h0a11.24,11.24,0,0,1-8,19.19Zm0-20.19a8.95,8.95,0,1,0,6.33,2.62h0A8.9,8.9,0,0,0,11.24,2.29Z"/><path class="cls-1" d="M29.19,30.34a1.12,1.12,0,0,1-.81-.34L17.57,19.19a1.15,1.15,0,0,1,1.62-1.62L30,28.38A1.14,1.14,0,0,1,30,30,1.12,1.12,0,0,1,29.19,30.34Z"/></g></g></svg>