<svg xmlns="http://www.w3.org/2000/svg" xmlns:xlink="http://www.w3.org/1999/xlink" viewBox="0 0 50 50"><defs><style>.cls-1{fill:url(#radial-gradient);}.cls-2,.cls-3{fill:#fff;}.cls-3{stroke:#a40000;stroke-miterlimit:10;stroke-width:3px;}</style><radialGradient id="radial-gradient" cx="7.56" cy="49.58" r="54.41" gradientUnits="userSpaceOnUse"><stop offset="0" stop-color="#ecd431"/><stop offset="0.04" stop-color="#ebbd2d"/><stop offset="0.1" stop-color="#eaa529"/><stop offset="0.13" stop-color="#ea9c28"/><stop offset="0.32" stop-color="#da624e"/><stop offset="0.36" stop-color="#d85552"/><stop offset="0.44" stop-color="#d1325e"/><stop offset="0.5" stop-color="#cb1369"/><stop offset="0.66" stop-color="#b01485"/><stop offset="0.74" stop-color="#9c2096"/><stop offset="0.87" stop-color="#8031af"/><stop offset="1" stop-color="#555bcd"/></radialGradient></defs><g id="Layer_2" data-name="Layer 2"><g id="Layer_1-2" data-name="Layer 1"><path class="cls-1" d="M25,0A25,25,0,1,0,50,25,25,25,0,0,0,25,0Z"/><path class="cls-2" d="M31.33,9.37H18.69a9.33,9.33,0,0,0-9.31,9.31V31.32a9.33,9.33,0,0,0,9.31,9.31H31.33a9.33,9.33,0,0,0,9.31-9.31V18.68A9.33,9.33,0,0,0,31.33,9.37Zm6.17,22a6.17,6.17,0,0,1-6.17,6.17H18.69a6.17,6.17,0,0,1-6.16-6.17V18.68a6.17,6.17,0,0,1,6.16-6.17H31.33a6.17,6.17,0,0,1,6.17,6.17Z"/><path class="cls-2" d="M25,16.91A8.09,8.09,0,1,0,33.1,25,8.09,8.09,0,0,0,25,16.91Zm0,13A4.94,4.94,0,1,1,30,25,4.94,4.94,0,0,1,25,29.94Z"/><circle class="cls-3" cx="33.11" cy="16.98" r="1.94"/></g></g></svg>