<svg xmlns="http://www.w3.org/2000/svg" viewBox="0 0 365.84 278.9"><defs><style>.cls-1{fill:#ece8de;}.cls-2{fill:#dad7cc;}.cls-3{fill:#4f9d9d;}.cls-4{fill:#3e8080;}.cls-5{fill:#efb65a;}.cls-6{fill:#cf9e4f;}.cls-7{fill:#4c4e50;}.cls-8{fill:#3e3e40;}</style></defs><g id="Layer_2" data-name="Layer 2"><g id="Layer_1-2" data-name="Layer 1"><path class="cls-1" d="M346.62,0H18.71A18.71,18.71,0,0,0,0,18.71V258.19A18.71,18.71,0,0,0,18.71,276.9H346.62a18.72,18.72,0,0,0,18.72-18.71V18.71A18.72,18.72,0,0,0,346.62,0Z"/><path class="cls-2" d="M333.39,265.84a17.15,17.15,0,0,0,17.15-17.15V29.28a17.15,17.15,0,0,0-17.15-17.15H183.17V265.84Z"/><path class="cls-3" d="M175.77,209.44l-37.41-44.28c-4.83-5.72-16.91-5.72-21.74,0L5.85,253.73C1,259.45,7.06,266.6,16.72,266.6H183.65V218.78Z"/><path class="cls-4" d="M361,248.71l-68-123.13c-6.72-8-23.51-8-30.22,0l-52,61.56L183.82,219l0,0-.15-.18V266.6H347.86C361.3,266.6,367.7,256.66,361,248.71Z"/><path class="cls-5" d="M72.21,105a25.94,25.94,0,0,0,25.94,25.94V79A25.94,25.94,0,0,0,72.21,105Z"/><path class="cls-6" d="M98.15,79v51.88a25.94,25.94,0,0,0,0-51.88Z"/><path class="cls-7" d="M33,265.84A17.15,17.15,0,0,1,15.8,248.69V29.28A17.15,17.15,0,0,1,33,12.13H183.17V2h-164A18.72,18.72,0,0,0,.5,20.72V260.19A18.71,18.71,0,0,0,19.21,278.9h164V265.84Z"/><path class="cls-8" d="M347.12,2h-164V12.13H333.39a17.15,17.15,0,0,1,17.15,17.15V248.69a17.15,17.15,0,0,1-17.15,17.15H183.17V278.9h164a18.71,18.71,0,0,0,18.72-18.71V20.72A18.72,18.72,0,0,0,347.12,2Z"/></g></g></svg>